<svg width="2214" height="3039" xmlns="http://www.w3.org/2000/svg" xmlns:xlink="http://www.w3.org/1999/xlink" xml:space="preserve" overflow="hidden"><defs><clipPath id="clip0"><rect x="82" y="293" width="2214" height="3039"/></clipPath></defs><g clip-path="url(#clip0)" transform="translate(-82 -293)"><rect x="918.5" y="699.5" width="455" height="150" stroke="#000000" stroke-width="3.4375" stroke-linecap="butt" stroke-linejoin="round" stroke-miterlimit="10" stroke-opacity="1" fill="#D9D9D9" fill-opacity="1"/><text fill="#000000" fill-opacity="1" font-family="Arial,Arial_MSFontService,sans-serif" font-style="normal" font-variant="normal" font-weight="400" font-stretch="normal" font-size="48" text-anchor="start" direction="ltr" writing-mode="lr-tb" unicode-bidi="normal" text-decoration="none" transform="matrix(1 0 0 1 962.893 763)">Filter </text><text fill="#000000" fill-opacity="1" font-family="Arial,Arial_MSFontService,sans-serif" font-style="normal" font-variant="normal" font-weight="400" font-stretch="normal" font-size="48" text-anchor="start" direction="ltr" writing-mode="lr-tb" unicode-bidi="normal" text-decoration="none" transform="matrix(1 0 0 1 1083.21 763)">features +/</text><text fill="#000000" fill-opacity="1" font-family="Arial,Arial_MSFontService,sans-serif" font-style="normal" font-variant="normal" font-weight="400" font-stretch="normal" font-size="48" text-anchor="start" direction="ltr" writing-mode="lr-tb" unicode-bidi="normal" text-decoration="none" transform="matrix(1 0 0 1 1311.8 763)">-</text><text fill="#000000" fill-opacity="1" font-family="Arial,Arial_MSFontService,sans-serif" font-style="normal" font-variant="normal" font-weight="400" font-stretch="normal" font-size="48" text-anchor="start" direction="ltr" writing-mode="lr-tb" unicode-bidi="normal" text-decoration="none" transform="matrix(1 0 0 1 964.039 821)">balance samples</text><path d="M28.0002 487C20.268 487 13.9998 479.646 13.9998 470.574L14.0004 259.926C14.0004 250.854 7.73219 243.5 2.90636e-15 243.5 7.73219 243.5 14.0004 236.146 14.0004 227.074L14.0004 16.4256C14.0004 7.35399 20.2685-1.93755e-15 28.0007-3.8751e-15" stroke="#000000" stroke-width="3.4375" stroke-linecap="butt" stroke-linejoin="miter" stroke-miterlimit="8" stroke-opacity="1" fill="none" fill-rule="evenodd" transform="matrix(-1 0 0 1 1935.5 931.5)"/><text fill="#000000" fill-opacity="1" font-family="Arial,Arial_MSFontService,sans-serif" font-style="normal" font-variant="normal" font-weight="400" font-stretch="normal" font-size="50" text-anchor="start" direction="ltr" writing-mode="lr-tb" unicode-bidi="normal" text-decoration="none" transform="matrix(1 0 0 1 228.494 1162)">10</text><text fill="#000000" fill-opacity="1" font-family="Arial,Arial_MSFontService,sans-serif" font-style="normal" font-variant="normal" font-weight="400" font-stretch="normal" font-size="50" text-anchor="start" direction="ltr" writing-mode="lr-tb" unicode-bidi="normal" text-decoration="none" transform="matrix(1 0 0 1 284.64 1162)">-</text><text fill="#000000" fill-opacity="1" font-family="Arial,Arial_MSFontService,sans-serif" font-style="normal" font-variant="normal" font-weight="400" font-stretch="normal" font-size="50" text-anchor="start" direction="ltr" writing-mode="lr-tb" unicode-bidi="normal" text-decoration="none" transform="matrix(1 0 0 1 301.254 1162)">fold</text><text fill="#000000" fill-opacity="1" font-family="Arial,Arial_MSFontService,sans-serif" font-style="normal" font-variant="normal" font-weight="400" font-stretch="normal" font-size="50" text-anchor="start" direction="ltr" writing-mode="lr-tb" unicode-bidi="normal" text-decoration="none" transform="matrix(1 0 0 1 270.317 1223)">CV</text><path d="M1147.22 849.494 1147.42 908.322 1143.99 908.334 1143.78 849.506ZM1154.86 903.713 1145.79 931.245 1136.52 903.777Z" fill="#000000" fill-rule="nonzero" fill-opacity="1"/><rect x="416.5" y="931.5" width="1459" height="487" stroke="#000000" stroke-width="3.4375" stroke-linecap="butt" stroke-linejoin="miter" stroke-miterlimit="8" stroke-opacity="1" fill="#D9D9D9" fill-opacity="1"/><rect x="437.5" y="951.5" width="121" height="73.9999" stroke="#000000" stroke-width="3.4375" stroke-linecap="butt" stroke-linejoin="miter" stroke-miterlimit="8" stroke-opacity="1" fill="#FFFF00" fill-opacity="1"/><rect x="581.5" y="951.5" width="1273" height="73.9999" stroke="#000000" stroke-width="3.4375" stroke-linecap="butt" stroke-linejoin="miter" stroke-miterlimit="8" stroke-opacity="1" fill="#CAF297" fill-opacity="1"/><rect x="437.5" y="1044.5" width="121" height="73.9999" stroke="#000000" stroke-width="3.4375" stroke-linecap="butt" stroke-linejoin="miter" stroke-miterlimit="8" stroke-opacity="1" fill="#CAF297" fill-opacity="1"/><rect x="581.5" y="1044.5" width="121" height="73.9999" stroke="#000000" stroke-width="3.4375" stroke-linecap="butt" stroke-linejoin="miter" stroke-miterlimit="8" stroke-opacity="1" fill="#FFFF00" fill-opacity="1"/><rect x="725.5" y="1044.5" width="1129" height="73.9999" stroke="#000000" stroke-width="3.4375" stroke-linecap="butt" stroke-linejoin="miter" stroke-miterlimit="8" stroke-opacity="1" fill="#CAF297" fill-opacity="1"/><rect x="437.5" y="1322.5" width="1271" height="74.0002" stroke="#000000" stroke-width="3.4375" stroke-linecap="butt" stroke-linejoin="miter" stroke-miterlimit="8" stroke-opacity="1" fill="#CAF297" fill-opacity="1"/><rect x="1731.5" y="1322.5" width="123" height="74.0002" stroke="#000000" stroke-width="3.4375" stroke-linecap="butt" stroke-linejoin="miter" stroke-miterlimit="8" stroke-opacity="1" fill="#FFFF00" fill-opacity="1"/><text fill="#000000" fill-opacity="1" font-family="Arial,Arial_MSFontService,sans-serif" font-style="normal" font-variant="normal" font-weight="400" font-stretch="normal" font-size="48" text-anchor="start" direction="ltr" writing-mode="lr-tb" unicode-bidi="normal" text-decoration="none" transform="matrix(1 0 0 1 1155.11 1004)">Train</text><text fill="#000000" fill-opacity="1" font-family="Arial,Arial_MSFontService,sans-serif" font-style="normal" font-variant="normal" font-weight="400" font-stretch="normal" font-size="48" text-anchor="start" direction="ltr" writing-mode="lr-tb" unicode-bidi="normal" text-decoration="none" transform="matrix(1 0 0 1 1121.59 1291)">…</text><path d="M1.71874-0.00532884 1.93677 70.315-1.50072 70.3257-1.71874 0.00532884ZM9.37044 65.7086 0.289075 93.2369-8.96281 65.7655Z" fill="#000000" fill-rule="nonzero" fill-opacity="1" transform="matrix(-1 0 0 1 1145.79 606.5)"/><text fill="#000000" fill-opacity="1" font-family="Arial,Arial_MSFontService,sans-serif" font-style="normal" font-variant="normal" font-weight="700" font-stretch="normal" font-size="50" text-anchor="start" direction="ltr" writing-mode="lr-tb" unicode-bidi="normal" text-decoration="none" transform="matrix(1 0 0 1 883.544 1595)">Measure performance</text><text fill="#000000" fill-opacity="1" font-family="Arial,Arial_MSFontService,sans-serif" font-style="normal" font-variant="normal" font-weight="700" font-stretch="normal" font-size="50" text-anchor="start" direction="ltr" writing-mode="lr-tb" unicode-bidi="normal" text-decoration="none" transform="matrix(1 0 0 1 913.336 1656)">on left</text><text fill="#000000" fill-opacity="1" font-family="Arial,Arial_MSFontService,sans-serif" font-style="normal" font-variant="normal" font-weight="700" font-stretch="normal" font-size="50" text-anchor="start" direction="ltr" writing-mode="lr-tb" unicode-bidi="normal" text-decoration="none" transform="matrix(1 0 0 1 1064.01 1656)">-</text><text fill="#000000" fill-opacity="1" font-family="Arial,Arial_MSFontService,sans-serif" font-style="normal" font-variant="normal" font-weight="700" font-stretch="normal" font-size="50" text-anchor="start" direction="ltr" writing-mode="lr-tb" unicode-bidi="normal" text-decoration="none" transform="matrix(1 0 0 1 1080.63 1656)">out CV folds</text><text fill="#000000" fill-opacity="1" font-family="Arial,Arial_MSFontService,sans-serif" font-style="normal" font-variant="normal" font-weight="400" font-stretch="normal" font-size="50" text-anchor="start" direction="ltr" writing-mode="lr-tb" unicode-bidi="normal" text-decoration="none" transform="matrix(1 0 0 1 1956.95 1162)">Tune model </text><text fill="#000000" fill-opacity="1" font-family="Arial,Arial_MSFontService,sans-serif" font-style="normal" font-variant="normal" font-weight="400" font-stretch="normal" font-size="50" text-anchor="start" direction="ltr" writing-mode="lr-tb" unicode-bidi="normal" text-decoration="none" transform="matrix(1 0 0 1 1962.98 1223)">parameters</text><text fill="#000000" fill-opacity="1" font-family="Arial,Arial_MSFontService,sans-serif" font-style="normal" font-variant="normal" font-weight="400" font-stretch="normal" font-size="64" text-anchor="start" direction="ltr" writing-mode="lr-tb" unicode-bidi="normal" text-decoration="none" transform="matrix(1 0 0 1 415.976 409)">No true hold</text><text fill="#000000" fill-opacity="1" font-family="Arial,Arial_MSFontService,sans-serif" font-style="normal" font-variant="normal" font-weight="400" font-stretch="normal" font-size="64" text-anchor="start" direction="ltr" writing-mode="lr-tb" unicode-bidi="normal" text-decoration="none" transform="matrix(1 0 0 1 764.309 409)">-</text><text fill="#000000" fill-opacity="1" font-family="Arial,Arial_MSFontService,sans-serif" font-style="normal" font-variant="normal" font-weight="400" font-stretch="normal" font-size="64" text-anchor="start" direction="ltr" writing-mode="lr-tb" unicode-bidi="normal" text-decoration="none" transform="matrix(1 0 0 1 785.507 409)">out</text><rect x="416.5" y="533.5" width="1459" height="72.9999" stroke="#000000" stroke-width="3.4375" stroke-linecap="butt" stroke-linejoin="miter" stroke-miterlimit="8" stroke-opacity="1" fill="#8CC9F7" fill-opacity="1"/><text fill="#000000" fill-opacity="1" font-family="Arial,Arial_MSFontService,sans-serif" font-style="normal" font-variant="normal" font-weight="400" font-stretch="normal" font-size="48" text-anchor="start" direction="ltr" writing-mode="lr-tb" unicode-bidi="normal" text-decoration="none" transform="matrix(1 0 0 1 998.128 585)">Whole dataset</text><path d="M1795.22 1396.5 1795.22 1410.25 1791.78 1410.25 1791.78 1396.5ZM1795.22 1420.56 1795.22 1434.31 1791.78 1434.31 1791.78 1420.56ZM1795.22 1444.63 1795.22 1458.38 1791.78 1458.38 1791.78 1444.63ZM1802.67 1462.85 1793.5 1490.35 1784.33 1462.85Z" fill="#000000" fill-rule="nonzero" fill-opacity="1"/><path d="M1793.5 1501.5C1793.5 1509.23 1786.15 1515.5 1777.07 1515.5L1163.43 1515.5C1154.35 1515.5 1147 1521.77 1147 1529.5 1147 1521.77 1139.65 1515.5 1130.57 1515.5L516.926 1515.5C507.854 1515.5 500.5 1509.23 500.5 1501.5" stroke="#000000" stroke-width="3.4375" stroke-linecap="butt" stroke-linejoin="miter" stroke-miterlimit="8" stroke-opacity="1" fill="none" fill-rule="evenodd"/><path d="M788.219 1210.5 788.223 1224.25 784.785 1224.25 784.781 1210.5ZM788.226 1234.56 788.23 1248.31 784.793 1248.31 784.788 1234.56ZM788.233 1258.62 788.237 1272.37 784.8 1272.38 784.796 1258.63ZM788.24 1282.69 788.245 1296.44 784.807 1296.44 784.803 1282.69ZM788.248 1306.75 788.252 1320.5 784.814 1320.5 784.81 1306.75ZM788.255 1330.81 788.259 1344.56 784.821 1344.56 784.817 1330.81ZM788.262 1354.87 788.266 1368.62 784.829 1368.63 784.825 1354.88ZM788.269 1378.94 788.273 1392.69 784.836 1392.69 784.832 1378.94ZM788.276 1403 788.281 1416.75 784.843 1416.75 784.839 1403ZM788.284 1427.06 788.288 1440.81 784.85 1440.81 784.846 1427.06ZM788.291 1451.12 788.295 1464.87 784.857 1464.88 784.853 1451.13ZM795.742 1462.31 786.584 1489.82 777.409 1462.32Z" fill="#000000" fill-rule="nonzero" fill-opacity="1"/><path d="M932.219 1418.5 932.219 1432.25 928.781 1432.25 928.781 1418.5ZM932.219 1442.56 932.219 1456.31 928.781 1456.31 928.781 1442.56ZM932.219 1466.63 932.219 1466.95 928.782 1466.95 928.782 1466.63ZM939.667 1462.36 930.5 1489.86 921.334 1462.36Z" fill="#000000" fill-rule="nonzero" fill-opacity="1"/><path d="M1076.22 1418.5 1076.22 1432.25 1072.78 1432.25 1072.78 1418.5ZM1076.22 1442.56 1076.22 1456.31 1072.78 1456.31 1072.78 1442.56ZM1076.22 1466.63 1076.22 1466.95 1072.78 1466.95 1072.78 1466.63ZM1083.67 1462.36 1074.5 1489.86 1065.33 1462.36Z" fill="#000000" fill-rule="nonzero" fill-opacity="1"/><path d="M1221.22 1418.5 1221.22 1432.25 1217.78 1432.25 1217.78 1418.5ZM1221.22 1442.56 1221.22 1456.31 1217.78 1456.31 1217.78 1442.56ZM1221.22 1466.63 1221.22 1466.95 1217.78 1466.95 1217.78 1466.63ZM1228.67 1462.36 1219.5 1489.86 1210.33 1462.36Z" fill="#000000" fill-rule="nonzero" fill-opacity="1"/><path d="M1365.22 1418.5 1365.22 1432.25 1361.78 1432.25 1361.78 1418.5ZM1365.22 1442.56 1365.22 1456.31 1361.78 1456.31 1361.78 1442.56ZM1365.22 1466.63 1365.22 1466.95 1361.78 1466.95 1361.78 1466.63ZM1372.67 1462.36 1363.5 1489.86 1354.33 1462.36Z" fill="#000000" fill-rule="nonzero" fill-opacity="1"/><path d="M1509.22 1418.5 1509.22 1432.25 1505.78 1432.25 1505.78 1418.5ZM1509.22 1442.56 1509.22 1456.31 1505.78 1456.31 1505.78 1442.56ZM1509.22 1466.63 1509.22 1466.95 1505.78 1466.95 1505.78 1466.63ZM1516.67 1462.36 1507.5 1489.86 1498.33 1462.36Z" fill="#000000" fill-rule="nonzero" fill-opacity="1"/><path d="M1653.22 1418.5 1653.22 1432.25 1649.78 1432.25 1649.78 1418.5ZM1653.22 1442.56 1653.22 1456.31 1649.78 1456.31 1649.78 1442.56ZM1653.22 1466.63 1653.22 1466.95 1649.78 1466.95 1649.78 1466.63ZM1660.67 1462.36 1651.5 1489.86 1642.33 1462.36Z" fill="#000000" fill-rule="nonzero" fill-opacity="1"/><rect x="437.5" y="1137.5" width="121" height="72.9999" stroke="#000000" stroke-width="3.4375" stroke-linecap="butt" stroke-linejoin="miter" stroke-miterlimit="8" stroke-opacity="1" fill="#CAF297" fill-opacity="1"/><rect x="726.5" y="1137.5" width="120" height="72.9999" stroke="#000000" stroke-width="3.4375" stroke-linecap="butt" stroke-linejoin="miter" stroke-miterlimit="8" stroke-opacity="1" fill="#FFFF00" fill-opacity="1"/><rect x="869.5" y="1137.5" width="985" height="72.9999" stroke="#000000" stroke-width="3.4375" stroke-linecap="butt" stroke-linejoin="miter" stroke-miterlimit="8" stroke-opacity="1" fill="#CAF297" fill-opacity="1"/><rect x="582.5" y="1137.5" width="120" height="72.9999" stroke="#000000" stroke-width="3.4375" stroke-linecap="butt" stroke-linejoin="miter" stroke-miterlimit="8" stroke-opacity="1" fill="#CAF297" fill-opacity="1"/><path d="M500.219 1025.5 500.219 1039.25 496.781 1039.25 496.781 1025.5ZM500.219 1049.56 500.219 1063.31 496.781 1063.31 496.781 1049.56ZM500.219 1073.62 500.219 1087.37 496.781 1087.37 496.781 1073.62ZM500.219 1097.69 500.219 1111.44 496.781 1111.44 496.781 1097.69ZM500.219 1121.75 500.219 1135.5 496.781 1135.5 496.781 1121.75ZM500.219 1145.81 500.219 1159.56 496.781 1159.56 496.781 1145.81ZM500.219 1169.87 500.219 1183.62 496.781 1183.62 496.781 1169.87ZM500.219 1193.94 500.219 1207.69 496.781 1207.69 496.781 1193.94ZM500.219 1218 500.219 1231.75 496.781 1231.75 496.781 1218ZM500.219 1242.06 500.219 1255.81 496.781 1255.81 496.781 1242.06ZM500.219 1266.12 500.219 1279.87 496.781 1279.87 496.781 1266.12ZM500.219 1290.19 500.219 1303.94 496.781 1303.94 496.781 1290.19ZM500.219 1314.25 500.219 1328 496.781 1328 496.781 1314.25ZM500.219 1338.31 500.219 1352.06 496.781 1352.06 496.781 1338.31ZM500.219 1362.37 500.219 1376.12 496.781 1376.12 496.781 1362.37ZM500.219 1386.44 500.219 1400.19 496.781 1400.19 496.781 1386.44ZM500.219 1410.5 500.219 1424.25 496.781 1424.25 496.781 1410.5ZM500.219 1434.56 500.219 1448.31 496.782 1448.31 496.781 1434.56ZM500.219 1458.62 500.219 1467.37 496.782 1467.37 496.782 1458.62ZM507.667 1462.78 498.5 1490.28 489.334 1462.78Z" fill="#000000" fill-rule="nonzero" fill-opacity="1"/><path d="M643.219 1118.5 643.219 1132.25 639.781 1132.25 639.781 1118.5ZM643.219 1142.56 643.219 1156.31 639.781 1156.31 639.781 1142.56ZM643.219 1166.63 643.219 1180.38 639.781 1180.38 639.781 1166.63ZM643.219 1190.69 643.219 1204.44 639.781 1204.44 639.781 1190.69ZM643.219 1214.75 643.219 1228.5 639.781 1228.5 639.781 1214.75ZM643.219 1238.81 643.219 1252.56 639.781 1252.56 639.781 1238.81ZM643.219 1262.88 643.219 1276.63 639.781 1276.63 639.781 1262.88ZM643.219 1286.94 643.219 1300.69 639.781 1300.69 639.781 1286.94ZM643.219 1311 643.219 1324.75 639.781 1324.75 639.781 1311ZM643.219 1335.06 643.219 1348.81 639.781 1348.81 639.781 1335.06ZM643.219 1359.13 643.219 1372.88 639.781 1372.88 639.781 1359.13ZM643.219 1383.19 643.219 1396.94 639.781 1396.94 639.781 1383.19ZM643.219 1407.25 643.219 1421 639.781 1421 639.781 1407.25ZM643.219 1431.31 643.219 1445.06 639.781 1445.06 639.781 1431.31ZM643.219 1455.38 643.219 1467.19 639.782 1467.19 639.781 1455.38ZM650.667 1462.61 641.5 1490.11 632.334 1462.61Z" fill="#000000" fill-rule="nonzero" fill-opacity="1"/><rect x="416.5" y="2523.5" width="940" height="74" stroke="#000000" stroke-width="3.4375" stroke-linecap="butt" stroke-linejoin="miter" stroke-miterlimit="8" stroke-opacity="1" fill="#8CC9F7" fill-opacity="1"/><rect x="1373.5" y="2523.5" width="502" height="74" stroke="#000000" stroke-width="3.4375" stroke-linecap="butt" stroke-linejoin="miter" stroke-miterlimit="8" stroke-opacity="1" fill="#FCD9D3" fill-opacity="1"/><rect x="928.5" y="2288.5" width="435" height="150" stroke="#000000" stroke-width="3.4375" stroke-linecap="butt" stroke-linejoin="round" stroke-miterlimit="10" stroke-opacity="1" fill="#D9D9D9" fill-opacity="1"/><text fill="#000000" fill-opacity="1" font-family="Arial,Arial_MSFontService,sans-serif" font-style="normal" font-variant="normal" font-weight="400" font-stretch="normal" font-size="48" text-anchor="start" direction="ltr" writing-mode="lr-tb" unicode-bidi="normal" text-decoration="none" transform="matrix(1 0 0 1 962.893 2352)">Filter </text><text fill="#000000" fill-opacity="1" font-family="Arial,Arial_MSFontService,sans-serif" font-style="normal" font-variant="normal" font-weight="400" font-stretch="normal" font-size="48" text-anchor="start" direction="ltr" writing-mode="lr-tb" unicode-bidi="normal" text-decoration="none" transform="matrix(1 0 0 1 1083.21 2352)">features +/</text><text fill="#000000" fill-opacity="1" font-family="Arial,Arial_MSFontService,sans-serif" font-style="normal" font-variant="normal" font-weight="400" font-stretch="normal" font-size="48" text-anchor="start" direction="ltr" writing-mode="lr-tb" unicode-bidi="normal" text-decoration="none" transform="matrix(1 0 0 1 1311.8 2352)">-</text><text fill="#000000" fill-opacity="1" font-family="Arial,Arial_MSFontService,sans-serif" font-style="normal" font-variant="normal" font-weight="400" font-stretch="normal" font-size="48" text-anchor="start" direction="ltr" writing-mode="lr-tb" unicode-bidi="normal" text-decoration="none" transform="matrix(1 0 0 1 964.039 2410)">balance samples</text><path d="M27.0002 392C19.5443 392 13.5001 384.908 13.5001 376.161L13.5001 211.839C13.5001 203.091 7.45589 196 2.33938e-15 196 7.45589 196 13.5001 188.909 13.5001 180.161L13.5001 15.839C13.5001 7.09138 19.5443 0 27.0002 0" stroke="#000000" stroke-width="3.4375" stroke-linecap="butt" stroke-linejoin="miter" stroke-miterlimit="8" stroke-opacity="1" fill="none" fill-rule="evenodd" transform="matrix(-1 0 0 1 1897.5 2866.5)"/><path d="M27.0002 501C19.5441 501 13.4998 493.908 13.4998 485.161L13.5004 266.339C13.5004 257.591 7.45604 250.5 1.99326e-15 250.5 7.45604 250.5 13.5004 243.408 13.5004 234.661L13.5004 15.8392C13.5004 7.09147 19.5447 0 27.0007 0" stroke="#000000" stroke-width="3.4375" stroke-linecap="butt" stroke-linejoin="miter" stroke-miterlimit="8" stroke-opacity="1" fill="none" fill-rule="evenodd" transform="matrix(1.83697e-16 1 1 -1.83697e-16 1374.5 2469.5)"/><path d="M1356.5 2635.5C1356.5 2643.23 1349.15 2649.5 1340.07 2649.5L902.925 2649.5C893.854 2649.5 886.5 2655.77 886.5 2663.5 886.5 2655.77 879.146 2649.5 870.075 2649.5L432.925 2649.5C423.854 2649.5 416.5 2643.23 416.5 2635.5" stroke="#000000" stroke-width="3.4375" stroke-linecap="butt" stroke-linejoin="miter" stroke-miterlimit="8" stroke-opacity="1" fill="none" fill-rule="evenodd"/><rect x="1421.5" y="2708.5" width="406" height="155" stroke="#000000" stroke-width="3.4375" stroke-linecap="butt" stroke-linejoin="round" stroke-miterlimit="10" stroke-opacity="1" fill="#FCD9D3" fill-opacity="1"/><text fill="#000000" fill-opacity="1" font-family="Arial,Arial_MSFontService,sans-serif" font-style="normal" font-variant="normal" font-weight="400" font-stretch="normal" font-size="48" text-anchor="start" direction="ltr" writing-mode="lr-tb" unicode-bidi="normal" text-decoration="none" transform="matrix(1 0 0 1 1510.11 2771)">Test tuned </text><text fill="#000000" fill-opacity="1" font-family="Arial,Arial_MSFontService,sans-serif" font-style="normal" font-variant="normal" font-weight="400" font-stretch="normal" font-size="48" text-anchor="start" direction="ltr" writing-mode="lr-tb" unicode-bidi="normal" text-decoration="none" transform="matrix(1 0 0 1 1557.96 2829)">model</text><text fill="#000000" fill-opacity="1" font-family="Arial,Arial_MSFontService,sans-serif" font-style="normal" font-variant="normal" font-weight="400" font-stretch="normal" font-size="50" text-anchor="start" direction="ltr" writing-mode="lr-tb" unicode-bidi="normal" text-decoration="none" transform="matrix(1 0 0 1 211.349 3050)">10</text><text fill="#000000" fill-opacity="1" font-family="Arial,Arial_MSFontService,sans-serif" font-style="normal" font-variant="normal" font-weight="400" font-stretch="normal" font-size="50" text-anchor="start" direction="ltr" writing-mode="lr-tb" unicode-bidi="normal" text-decoration="none" transform="matrix(1 0 0 1 267.495 3050)">-</text><text fill="#000000" fill-opacity="1" font-family="Arial,Arial_MSFontService,sans-serif" font-style="normal" font-variant="normal" font-weight="400" font-stretch="normal" font-size="50" text-anchor="start" direction="ltr" writing-mode="lr-tb" unicode-bidi="normal" text-decoration="none" transform="matrix(1 0 0 1 284.11 3050)">fold</text><text fill="#000000" fill-opacity="1" font-family="Arial,Arial_MSFontService,sans-serif" font-style="normal" font-variant="normal" font-weight="400" font-stretch="normal" font-size="50" text-anchor="start" direction="ltr" writing-mode="lr-tb" unicode-bidi="normal" text-decoration="none" transform="matrix(1 0 0 1 253.172 3111)">CV</text><path d="M0-1.71875 43.7162-1.71875 43.7162 126.394 40.2787 126.394 40.2787 0 41.9974 1.71875 0 1.71875ZM51.1641 121.811 41.9974 149.311 32.8307 121.811Z" fill="#000000" fill-rule="nonzero" fill-opacity="1" transform="matrix(-1 1.22465e-16 1.22465e-16 1 928.497 2363.5)"/><path d="M1.71875-6.21131e-06 1.71903 76.9469-1.71847 76.947-1.71875 6.21131e-06ZM9.16693 72.3636 0.000360892 99.8636-9.1664 72.3636Z" fill="#000000" fill-rule="nonzero" fill-opacity="1" transform="matrix(1 0 0 -1 1624.5 2708.36)"/><path d="M0-1.71875 270.593-1.71875 270.593 175.466 267.155 175.466 267.155 0 268.874 1.71875 0 1.71875ZM278.041 170.883 268.874 198.383 259.708 170.883Z" fill="#000000" fill-rule="nonzero" fill-opacity="1" transform="matrix(1 0 0 -1 1355.5 3061.88)"/><rect x="398.5" y="2866.5" width="957" height="392" stroke="#000000" stroke-width="3.4375" stroke-linecap="butt" stroke-linejoin="miter" stroke-miterlimit="8" stroke-opacity="1" fill="#D9D9D9" fill-opacity="1"/><rect x="411.5" y="2886.5" width="72.0002" height="74" stroke="#000000" stroke-width="3.4375" stroke-linecap="butt" stroke-linejoin="miter" stroke-miterlimit="8" stroke-opacity="1" fill="#FFFF00" fill-opacity="1"/><rect x="497.5" y="2886.5" width="844" height="74" stroke="#000000" stroke-width="3.4375" stroke-linecap="butt" stroke-linejoin="miter" stroke-miterlimit="8" stroke-opacity="1" fill="#CAF297" fill-opacity="1"/><rect x="411.5" y="2979.5" width="72.0002" height="74" stroke="#000000" stroke-width="3.4375" stroke-linecap="butt" stroke-linejoin="miter" stroke-miterlimit="8" stroke-opacity="1" fill="#CAF297" fill-opacity="1"/><rect x="497.5" y="2979.5" width="72.0002" height="74" stroke="#000000" stroke-width="3.4375" stroke-linecap="butt" stroke-linejoin="miter" stroke-miterlimit="8" stroke-opacity="1" fill="#FFFF00" fill-opacity="1"/><rect x="583.5" y="2979.5" width="758" height="74" stroke="#000000" stroke-width="3.4375" stroke-linecap="butt" stroke-linejoin="miter" stroke-miterlimit="8" stroke-opacity="1" fill="#CAF297" fill-opacity="1"/><rect x="411.5" y="3166.5" width="844" height="74" stroke="#000000" stroke-width="3.4375" stroke-linecap="butt" stroke-linejoin="miter" stroke-miterlimit="8" stroke-opacity="1" fill="#CAF297" fill-opacity="1"/><rect x="1269.5" y="3166.5" width="72.0002" height="74" stroke="#000000" stroke-width="3.4375" stroke-linecap="butt" stroke-linejoin="miter" stroke-miterlimit="8" stroke-opacity="1" fill="#FFFF00" fill-opacity="1"/><text fill="#000000" fill-opacity="1" font-family="Arial,Arial_MSFontService,sans-serif" font-style="normal" font-variant="normal" font-weight="400" font-stretch="normal" font-size="48" text-anchor="start" direction="ltr" writing-mode="lr-tb" unicode-bidi="normal" text-decoration="none" transform="matrix(1 0 0 1 863.6 2939)">Train</text><text fill="#000000" fill-opacity="1" font-family="Arial,Arial_MSFontService,sans-serif" font-style="normal" font-variant="normal" font-weight="400" font-stretch="normal" font-size="48" text-anchor="start" direction="ltr" writing-mode="lr-tb" unicode-bidi="normal" text-decoration="none" transform="matrix(1 0 0 1 852.235 3127)">…</text><path d="M1.71874-0.00553744 1.93434 66.9145-1.50314 66.9256-1.71874 0.00553744ZM9.36746 62.3072 0.289436 89.8366-8.96578 62.3663Z" fill="#000000" fill-rule="nonzero" fill-opacity="1" transform="matrix(-1 0 0 1 1145.79 2198.5)"/><text fill="#000000" fill-opacity="1" font-family="Arial,Arial_MSFontService,sans-serif" font-style="normal" font-variant="normal" font-weight="700" font-stretch="normal" font-size="50" text-anchor="start" direction="ltr" writing-mode="lr-tb" unicode-bidi="normal" text-decoration="none" transform="matrix(1 0 0 1 1521.57 2378)">Measure </text><text fill="#000000" fill-opacity="1" font-family="Arial,Arial_MSFontService,sans-serif" font-style="normal" font-variant="normal" font-weight="700" font-stretch="normal" font-size="50" text-anchor="start" direction="ltr" writing-mode="lr-tb" unicode-bidi="normal" text-decoration="none" transform="matrix(1 0 0 1 1471.15 2439)">performance</text><text fill="#000000" fill-opacity="1" font-family="Arial,Arial_MSFontService,sans-serif" font-style="normal" font-variant="normal" font-weight="400" font-stretch="normal" font-size="50" text-anchor="start" direction="ltr" writing-mode="lr-tb" unicode-bidi="normal" text-decoration="none" transform="matrix(1 0 0 1 1916.09 3050)">Tune model </text><text fill="#000000" fill-opacity="1" font-family="Arial,Arial_MSFontService,sans-serif" font-style="normal" font-variant="normal" font-weight="400" font-stretch="normal" font-size="50" text-anchor="start" direction="ltr" writing-mode="lr-tb" unicode-bidi="normal" text-decoration="none" transform="matrix(1 0 0 1 1922.12 3111)">parameters</text><text fill="#000000" fill-opacity="1" font-family="Arial,Arial_MSFontService,sans-serif" font-style="normal" font-variant="normal" font-weight="400" font-stretch="normal" font-size="64" text-anchor="start" direction="ltr" writing-mode="lr-tb" unicode-bidi="normal" text-decoration="none" transform="matrix(1 0 0 1 415.976 1992)">Filter prior to partition</text><text fill="#000000" fill-opacity="1" font-family="Arial,Arial_MSFontService,sans-serif" font-style="normal" font-variant="normal" font-weight="400" font-stretch="normal" font-size="48" text-anchor="start" direction="ltr" writing-mode="lr-tb" unicode-bidi="normal" text-decoration="none" transform="matrix(1 0 0 1 1496.24 2580)">1/3 hold out</text><text fill="#000000" fill-opacity="1" font-family="Arial,Arial_MSFontService,sans-serif" font-style="normal" font-variant="normal" font-weight="400" font-stretch="normal" font-size="48" text-anchor="start" direction="ltr" writing-mode="lr-tb" unicode-bidi="normal" text-decoration="none" transform="matrix(1 0 0 1 798.876 2576)">2/3 train</text><rect x="416.5" y="2125.5" width="1459" height="73.0002" stroke="#000000" stroke-width="3.4375" stroke-linecap="butt" stroke-linejoin="miter" stroke-miterlimit="8" stroke-opacity="1" fill="#8CC9F7" fill-opacity="1"/><text fill="#000000" fill-opacity="1" font-family="Arial,Arial_MSFontService,sans-serif" font-style="normal" font-variant="normal" font-weight="400" font-stretch="normal" font-size="48" text-anchor="start" direction="ltr" writing-mode="lr-tb" unicode-bidi="normal" text-decoration="none" transform="matrix(1 0 0 1 998.128 2178)">Whole dataset</text><path d="M888.219 2675.5 888.219 2832.18 884.782 2832.18 884.781 2675.5ZM895.667 2827.6 886.5 2855.1 877.334 2827.6Z" fill="#000000" fill-rule="nonzero" fill-opacity="1"/><text fill="#000000" fill-opacity="1" font-family="Arial,Arial_MSFontService,sans-serif" font-style="normal" font-variant="normal" font-weight="700" font-stretch="normal" font-size="92" text-anchor="start" direction="ltr" writing-mode="lr-tb" unicode-bidi="normal" text-decoration="none" transform="matrix(1 0 0 1 183.598 412)">A</text><text fill="#000000" fill-opacity="1" font-family="Arial,Arial_MSFontService,sans-serif" font-style="normal" font-variant="normal" font-weight="700" font-stretch="normal" font-size="92" text-anchor="start" direction="ltr" writing-mode="lr-tb" unicode-bidi="normal" text-decoration="none" transform="matrix(1 0 0 1 183.598 1995)">B</text><path d="M182.5 473.743C182.5 464.772 189.772 457.5 198.743 457.5L2277.26 457.5C2286.23 457.5 2293.5 464.772 2293.5 473.743L2293.5 1721.26C2293.5 1730.23 2286.23 1737.5 2277.26 1737.5L198.743 1737.5C189.772 1737.5 182.5 1730.23 182.5 1721.26Z" stroke="#BFBFBF" stroke-width="3.4375" stroke-linecap="butt" stroke-linejoin="miter" stroke-miterlimit="8" stroke-opacity="1" fill="none" fill-rule="evenodd"/><path d="M182.5 2061.76C182.5 2052.78 189.778 2045.5 198.755 2045.5L2277.25 2045.5C2286.22 2045.5 2293.5 2052.78 2293.5 2061.76L2293.5 3310.24C2293.5 3319.22 2286.22 3326.5 2277.25 3326.5L198.755 3326.5C189.778 3326.5 182.5 3319.22 182.5 3310.24Z" stroke="#BFBFBF" stroke-width="3.4375" stroke-linecap="butt" stroke-linejoin="miter" stroke-miterlimit="8" stroke-opacity="1" fill="none" fill-rule="evenodd"/></g></svg>