<?xml version="1.0" encoding="UTF-8" standalone="no"?>
<!DOCTYPE svg PUBLIC "-//W3C//DTD SVG 1.1//EN" "http://www.w3.org/Graphics/SVG/1.1/DTD/svg11.dtd">
<svg xmlns="http://www.w3.org/2000/svg" xmlns:xlink="http://www.w3.org/1999/xlink" version="1.1" width="595.2756pt" height="841.8898pt" viewBox="0 0 595.2756 841.8898">
<g enable-background="new">
<clipPath id="cp0">
<path transform="matrix(1,0,0,-1,0,841.8898)" d="M 12.00003 9.009758 L 583 9.009758 L 583 833.8898 L 12.00003 833.8898 Z "/>
</clipPath>
<g clip-path="url(#cp0)">
<path transform="matrix(1,0,0,-1,0,841.8898)" d="M 12.00003 833.8897 L 583 833.8897 L 583 9.009758 L 12.00003 9.009758 Z " fill="#ffffff"/>
</g>
<clipPath id="cp1">
<path transform="matrix(1,0,0,-1,0,841.8898)" d="M 12.00003 8.88974 L 583 8.88974 L 583 833.8898 L 12.00003 833.8898 Z "/>
</clipPath>
<g clip-path="url(#cp1)">
<path transform="matrix(1,0,0,-1,0,841.8898)" d="M 12.00003 833.8897 L 583 833.8897 L 583 8.889724 L 12.00003 8.889724 Z " fill="#ffffff"/>
<path transform="matrix(1,0,0,-1,0,841.8898)" d="M 232.7208 667.3753 L 319.7679 667.3753 L 319.7679 645.5877 L 232.7208 645.5877 Z " fill="#d9d9d9"/>
<path transform="matrix(.00008326042,0,0,.00008328286,232.7208,174.51447)" stroke-width="9525" stroke-linecap="butt" stroke-linejoin="round" fill="none" stroke="#000000" d="M 0 0 L 1045479 0 L 1045479 261610 L 0 261610 Z "/>
<text xml:space="preserve" transform="matrix(.24 0 -0 .2400647 240.7551 1014.54226)" font-size="50" font-family="ArialMT"><tspan y="-3437" x="0 29.74 40.78 51.82 65.060009 92.05 108.04 121.28001 134.52 161.51001 188.50002 201.74 228.73001 244.72 271.71">Filter features</tspan></text>
<path transform="matrix(-.00008326042,-0,0,.00008328286,458.4481,222.79419)" stroke-width="9525" stroke-linecap="butt" stroke-miterlimit="8" stroke-linejoin="miter" fill="none" stroke="#000000" d="M 76915 1350250 C 55675.1 1350250 38456.76 1330049 38456.76 1305129 L 38458.24 720245.5 C 38458.24 695326.1 21239.9 675125 0 675125 C 21239.9 675125 38458.24 654923.8 38458.24 630004.4 L 38458.24 45120.56 C 38458.24 20201.16 55676.58 0 76916.48 0 "/>
<text xml:space="preserve" transform="matrix(.24 0 -0 .2400647 64.7152 1101.1823)" font-size="50" font-family="ArialMT"><tspan y="-3437" x="0 26.985">10</tspan></text>
<text xml:space="preserve" transform="matrix(.24 0 -0 .2400647 77.66844 1101.1823)" font-size="50" font-family="ArialMT"><tspan y="-3437" x="0">-</tspan></text>
<text xml:space="preserve" transform="matrix(.24 0 -0 .2400647 81.50154 1101.1823)" font-size="50" font-family="ArialMT"><tspan y="-3437" x="0 13.220002 40.190004 51.21">fold</tspan></text>
<text xml:space="preserve" transform="matrix(.24 0 -0 .2400647 74.36404 1115.1023)" font-size="50" font-family="ArialMT"><tspan y="-3437" x="0 35.245004">CV</tspan></text>
<path transform="matrix(1,0,0,-1,0,841.8898)" d="M 276.6409 645.5887 L 276.6944 624.385 L 275.9013 624.383 L 275.8479 645.5867 Z M 278.41 625.4471 L 276.3112 619.0956 L 274.1804 625.4364 Z "/>
<path transform="matrix(1,0,0,-1,0,841.8898)" d="M 108.0468 619.0957 L 444.5742 619.0957 L 444.5742 506.6429 L 108.0468 506.6429 Z " fill="#d9d9d9"/>
<path transform="matrix(.00008326042,0,0,.00008328286,108.0468,222.79407)" stroke-width="9525" stroke-linecap="butt" stroke-miterlimit="8" stroke-linejoin="miter" fill="none" stroke="#000000" d="M 0 0 L 4041865 0 L 4041865 1350251 L 0 1350251 Z "/>
<path transform="matrix(1,0,0,-1,0,841.8898)" d="M 112.8898 614.3553 L 140.7322 614.3553 L 140.7322 597.4322 L 112.8898 597.4322 Z " fill="#ffff00"/>
<path transform="matrix(.00008326042,0,0,.00008328286,112.8898,227.53449)" stroke-width="9525" stroke-linecap="butt" stroke-miterlimit="8" stroke-linejoin="miter" fill="none" stroke="#000000" d="M 0 0 L 334401 0 L 334401 203200 L 0 203200 Z "/>
<path transform="matrix(1,0,0,-1,0,841.8898)" d="M 146.0599 614.3377 L 439.7311 614.3377 L 439.7311 597.4146 L 146.0599 597.4146 Z " fill="#caf297"/>
<path transform="matrix(.00008326042,0,0,.00008328286,146.0599,227.55207)" stroke-width="9525" stroke-linecap="butt" stroke-miterlimit="8" stroke-linejoin="miter" fill="none" stroke="#000000" d="M 0 0 L 3527140 0 L 3527140 203200 L 0 203200 Z "/>
<path transform="matrix(1,0,0,-1,0,841.8898)" d="M 112.8899 592.8527 L 140.7322 592.8527 L 140.7322 575.9296 L 112.8899 575.9296 Z " fill="#caf297"/>
<path transform="matrix(.00008326042,0,0,.00008328286,112.8899,249.03705)" stroke-width="9525" stroke-linecap="butt" stroke-miterlimit="8" stroke-linejoin="miter" fill="none" stroke="#000000" d="M 0 0 L 334400 0 L 334400 203200 L 0 203200 Z "/>
<path transform="matrix(1,0,0,-1,0,841.8898)" d="M 146.0599 592.8527 L 173.9022 592.8527 L 173.9022 575.9296 L 146.0599 575.9296 Z " fill="#ffff00"/>
<path transform="matrix(.00008326042,0,0,.00008328286,146.0599,249.03705)" stroke-width="9525" stroke-linecap="butt" stroke-miterlimit="8" stroke-linejoin="miter" fill="none" stroke="#000000" d="M 0 0 L 334400 0 L 334400 203200 L 0 203200 Z "/>
<path transform="matrix(1,0,0,-1,0,841.8898)" d="M 179.2298 592.8527 L 439.7309 592.8527 L 439.7309 575.9296 L 179.2298 575.9296 Z " fill="#caf297"/>
<path transform="matrix(.00008326042,0,0,.00008328286,179.2298,249.03705)" stroke-width="9525" stroke-linecap="butt" stroke-miterlimit="8" stroke-linejoin="miter" fill="none" stroke="#000000" d="M 0 0 L 3128750 0 L 3128750 203200 L 0 203200 Z "/>
<path transform="matrix(1,0,0,-1,0,841.8898)" d="M 112.8897 528.7543 L 406.0932 528.7543 L 406.0932 511.8312 L 112.8897 511.8312 Z " fill="#caf297"/>
<path transform="matrix(.00008326042,0,0,.00008328286,112.8897,313.1355)" stroke-width="9525" stroke-linecap="butt" stroke-miterlimit="8" stroke-linejoin="miter" fill="none" stroke="#000000" d="M 0 0 L 3521523 0 L 3521523 203200 L 0 203200 Z "/>
<path transform="matrix(1,0,0,-1,0,841.8898)" d="M 411.4209 528.7543 L 439.7309 528.7543 L 439.7309 511.8312 L 411.4209 511.8312 Z " fill="#ffff00"/>
<path transform="matrix(.00008326042,0,0,.00008328286,411.4209,313.1355)" stroke-width="9525" stroke-linecap="butt" stroke-miterlimit="8" stroke-linejoin="miter" fill="none" stroke="#000000" d="M 0 0 L 340017 0 L 340017 203200 L 0 203200 Z "/>
<text xml:space="preserve" transform="matrix(.24 0 -0 .2400647 278.4918 1064.9423)" font-size="45.83333" font-family="ArialMT"><tspan y="-3437" x="0 28.086665 43.52333 69.409999 79.89666">Train</tspan></text>
<text xml:space="preserve" transform="matrix(.24 0 -0 .2400647 270.759 1131.4223)" font-size="45.83333" font-family="ArialMT"><tspan y="-3437" x="0">&#x2026;</tspan></text>
<path transform="matrix(1,0,0,-1,0,841.8898)" d="M 275.9145 694.0809 L 275.8611 672.6648 L 276.6541 672.6628 L 276.7076 694.0789 Z M 274.1454 673.7268 L 276.2444 667.3753 L 278.375 673.7162 Z "/>
<text xml:space="preserve" transform="matrix(.24 0 -0 .2400647 215.8399 1200.7822)" font-size="50" font-family="Arial" font-weight="bold"><tspan y="-3437" x="0 40.205 67.21001 94.21501 121.22002 150.975 169.68001 196.685 209.89 239.64499 266.65 285.355 301.31 331.065 349.77003 392.72505 419.73005 449.48506 476.49006">Measure performance</tspan></text>
<text xml:space="preserve" transform="matrix(.24 0 -0 .2400647 222.713 1214.9423)" font-size="50" font-family="Arial" font-weight="bold"><tspan y="-3437" x="0 29.74 59.48 72.72 85.96001 112.95001 128.94">on left</tspan></text>
<text xml:space="preserve" transform="matrix(.24 0 -0 .2400647 257.4753 1214.9423)" font-size="50" font-family="Arial" font-weight="bold"><tspan y="-3437" x="0">-</tspan></text>
<text xml:space="preserve" transform="matrix(.24 0 -0 .2400647 261.3084 1214.9423)" font-size="50" font-family="Arial" font-weight="bold"><tspan y="-3437" x="0 29.74 59.48 75.47 88.71001 123.950008 156.44 169.68 185.66999 215.40999 228.64998 258.38999">out CV folds</tspan></text>
<text xml:space="preserve" transform="matrix(.24 0 -0 .2400647 463.482 1101.1823)" font-size="50" font-family="ArialMT"><tspan y="-3437" x="0 29.74 56.730005 83.72 110.71001 123.95001 164.14002 191.13002 218.12003 245.11003 256.15003">Tune model </tspan></text>
<text xml:space="preserve" transform="matrix(.24 0 -0 .2400647 464.8725 1115.1023)" font-size="50" font-family="ArialMT"><tspan y="-3437" x="0 26.985 53.97 69.955 96.94 137.12502 164.11002 177.34502 204.33002 220.31502">parameters</tspan></text>
<text xml:space="preserve" transform="matrix(.24 0 -0 .2400647 107.9687 927.18228)" font-size="62.5" font-family="ArialMT"><tspan y="-3437" x="0 44.606256 78.77501 95.881259 112.9875 133.34375 167.51251 201.68128">No true </tspan></text>
<text xml:space="preserve" transform="matrix(.24 0 -0 .2400647 160.4425 927.18228)" font-size="62.5" font-family="ArialMT"><tspan y="-3437" x="0 34.143754 68.287509 82.05626">hold</tspan></text>
<text xml:space="preserve" transform="matrix(.24 0 -0 .2400647 188.3316 927.18228)" font-size="62.5" font-family="ArialMT"><tspan y="-3437" x="0">-</tspan></text>
<text xml:space="preserve" transform="matrix(.24 0 -0 .2400647 193.2221 927.18228)" font-size="62.5" font-family="ArialMT"><tspan y="-3437" x="0 34.143754 68.287509">out</tspan></text>
<path transform="matrix(1,0,0,-1,0,841.8898)" d="M 108.0468 711.003 L 444.5753 711.003 L 444.5753 694.0799 L 108.0468 694.0799 Z " fill="#8cc9f7"/>
<path transform="matrix(.00008326042,0,0,.00008328286,108.0468,130.88678)" stroke-width="9525" stroke-linecap="butt" stroke-miterlimit="8" stroke-linejoin="miter" fill="none" stroke="#000000" d="M 0 0 L 4041878 0 L 4041878 203200 L 0 203200 Z "/>
<text xml:space="preserve" transform="matrix(.24 0 -0 .2400647 242.2753 968.2223)" font-size="45.83333" font-family="ArialMT"><tspan y="-3437" x="0 43.509584 69.41917 95.32875 105.792499 131.70207 144.36583 170.2754 196.18498 208.84874 234.75832 257.87208 283.78166">Whole dataset</tspan></text>
<path transform="matrix(1,0,0,-1,0,841.8898)" d="M 425.9725 511.8312 L 425.9725 508.6581 L 425.1794 508.6581 L 425.1794 511.8312 Z M 425.9725 506.2783 L 425.9725 503.1052 L 425.1795 503.1052 L 425.1794 506.2783 Z M 425.9725 500.7254 L 425.9725 497.5523 L 425.1795 497.5523 L 425.1795 500.7254 Z M 427.6908 496.5204 L 425.576 490.1742 L 423.4612 496.5204 Z "/>
<path transform="matrix(0,-.00008328286,.00008326042,0,127.3417,360.84797)" stroke-width="9525" stroke-linecap="butt" stroke-miterlimit="8" stroke-linejoin="miter" fill="none" stroke="#000000" d="M 76915 3581947 C 55675.51 3581947 38457.5 3561746 38457.5 3536828 L 38457.5 1836093 C 38457.5 1811174 21239.49 1790974 0 1790974 C 21239.49 1790974 38457.5 1770773 38457.5 1745854 L 38457.5 45119.06 C 38457.5 20200.49 55675.51 0 76915 0 "/>
<path transform="matrix(1,0,0,-1,0,841.8898)" d="M 193.7117 554.6318 L 193.7127 551.4587 L 192.9196 551.4585 L 192.9186 554.6316 Z M 193.7134 549.0789 L 193.7143 545.9058 L 192.9213 545.9056 L 192.9203 549.0787 Z M 193.715 543.526 L 193.716 540.3529 L 192.9229 540.3527 L 192.922 543.5258 Z M 193.7167 537.9731 L 193.7176 534.8001 L 192.9246 534.7998 L 192.9236 537.9729 Z M 193.7184 532.4203 L 193.7193 529.2472 L 192.9263 529.2469 L 192.9253 532.42 Z M 193.72 526.8674 L 193.721 523.6943 L 192.9279 523.694 L 192.927 526.8671 Z M 193.7217 521.3145 L 193.7226 518.1414 L 192.9296 518.1412 L 192.9286 521.3142 Z M 193.7234 515.7616 L 193.7243 512.5885 L 192.9312 512.5883 L 192.9303 515.7614 Z M 193.725 510.2087 L 193.726 507.0356 L 192.9329 507.0354 L 192.932 510.2085 Z M 193.7267 504.6558 L 193.7276 501.4828 L 192.9346 501.4825 L 192.9336 504.6556 Z M 193.7283 499.1029 L 193.7293 495.9299 L 192.9362 495.9296 L 192.9353 499.1027 Z M 195.4474 496.521 L 193.3345 490.1742 L 191.2178 496.5198 Z "/>
<path transform="matrix(1,0,0,-1,0,841.8898)" d="M 226.998 506.6428 L 226.998 503.4698 L 226.2049 503.4698 L 226.2049 506.6428 Z M 226.998 501.09 L 226.998 497.9169 L 226.2049 497.9169 L 226.2049 501.0899 Z M 226.998 495.5371 L 226.998 495.4627 L 226.205 495.4627 L 226.205 495.5371 Z M 228.7163 496.5204 L 226.6015 490.1742 L 224.4867 496.5204 Z "/>
<path transform="matrix(1,0,0,-1,0,841.8898)" d="M 260.2649 506.6428 L 260.2649 503.4698 L 259.4719 503.4698 L 259.4719 506.6428 Z M 260.265 501.09 L 260.265 497.9169 L 259.4719 497.9169 L 259.4719 501.0899 Z M 260.265 495.5371 L 260.265 495.4627 L 259.4719 495.4627 L 259.4719 495.5371 Z M 261.9833 496.5204 L 259.8685 490.1742 L 257.7536 496.5204 Z "/>
<path transform="matrix(1,0,0,-1,0,841.8898)" d="M 293.5319 506.6428 L 293.5319 503.4698 L 292.7388 503.4698 L 292.7388 506.6428 Z M 293.5319 501.09 L 293.5319 497.9169 L 292.7389 497.9169 L 292.7389 501.0899 Z M 293.5319 495.5371 L 293.5319 495.4627 L 292.7389 495.4627 L 292.7389 495.5371 Z M 295.2502 496.5204 L 293.1354 490.1742 L 291.0206 496.5204 Z "/>
<path transform="matrix(1,0,0,-1,0,841.8898)" d="M 326.7988 506.6428 L 326.7988 503.4698 L 326.0058 503.4698 L 326.0058 506.6428 Z M 326.7989 501.09 L 326.7989 497.9169 L 326.0058 497.9169 L 326.0058 501.0899 Z M 326.7989 495.5371 L 326.7989 495.4627 L 326.0058 495.4627 L 326.0058 495.5371 Z M 328.5172 496.5204 L 326.4024 490.1742 L 324.2875 496.5204 Z "/>
<path transform="matrix(1,0,0,-1,0,841.8898)" d="M 360.0658 506.6428 L 360.0658 503.4698 L 359.2727 503.4698 L 359.2727 506.6428 Z M 360.0658 501.09 L 360.0658 497.9169 L 359.2728 497.9169 L 359.2728 501.0899 Z M 360.0658 495.5371 L 360.0658 495.4627 L 359.2728 495.4627 L 359.2728 495.5371 Z M 361.7841 496.5204 L 359.6693 490.1742 L 357.5545 496.5204 Z "/>
<path transform="matrix(1,0,0,-1,0,841.8898)" d="M 393.3326 506.6428 L 393.3327 503.4698 L 392.5396 503.4698 L 392.5396 506.6428 Z M 393.3327 501.09 L 393.3327 497.9169 L 392.5396 497.9169 L 392.5396 501.0899 Z M 393.3327 495.5371 L 393.3327 495.4627 L 392.5397 495.4627 L 392.5397 495.5371 Z M 395.051 496.5204 L 392.9362 490.1742 L 390.8214 496.5204 Z "/>
<path transform="matrix(1,0,0,-1,0,841.8898)" d="M 112.8897 571.546 L 140.732 571.546 L 140.732 554.6229 L 112.8897 554.6229 Z " fill="#caf297"/>
<path transform="matrix(.00008326042,0,0,.00008328286,112.8897,270.34376)" stroke-width="9525" stroke-linecap="butt" stroke-miterlimit="8" stroke-linejoin="miter" fill="none" stroke="#000000" d="M 0 0 L 334400 0 L 334400 203200 L 0 203200 Z "/>
<path transform="matrix(1,0,0,-1,0,841.8898)" d="M 179.3938 571.5547 L 207.2365 571.5547 L 207.2365 554.6317 L 179.3938 554.6317 Z " fill="#ffff00"/>
<path transform="matrix(.00008326042,0,0,.00008328286,179.3938,270.33509)" stroke-width="9525" stroke-linecap="butt" stroke-miterlimit="8" stroke-linejoin="miter" fill="none" stroke="#000000" d="M 0 0 L 334405 0 L 334405 203200 L 0 203200 Z "/>
<path transform="matrix(1,0,0,-1,0,841.8898)" d="M 212.4001 571.546 L 439.7306 571.546 L 439.7306 554.6229 L 212.4001 554.6229 Z " fill="#caf297"/>
<path transform="matrix(.00008326042,0,0,.00008328286,212.4001,270.34376)" stroke-width="9525" stroke-linecap="butt" stroke-miterlimit="8" stroke-linejoin="miter" fill="none" stroke="#000000" d="M 0 0 L 2730354 0 L 2730354 203200 L 0 203200 Z "/>
<path transform="matrix(1,0,0,-1,0,841.8898)" d="M 146.2239 571.5547 L 174.0662 571.5547 L 174.0662 554.6317 L 146.2239 554.6317 Z " fill="#caf297"/>
<path transform="matrix(.00008326042,0,0,.00008328286,146.2239,270.33509)" stroke-width="9525" stroke-linecap="butt" stroke-miterlimit="8" stroke-linejoin="miter" fill="none" stroke="#000000" d="M 0 0 L 334400 0 L 334400 203200 L 0 203200 Z "/>
<path transform="matrix(1,0,0,-1,0,841.8898)" d="M 127.2076 597.4322 L 127.2076 594.2591 L 126.4145 594.2591 L 126.4145 597.4322 Z M 127.2076 591.8793 L 127.2076 588.7063 L 126.4146 588.7063 L 126.4145 591.8793 Z M 127.2076 586.3265 L 127.2076 583.1534 L 126.4146 583.1534 L 126.4146 586.3265 Z M 127.2076 580.7736 L 127.2076 577.6005 L 126.4146 577.6005 L 126.4146 580.7736 Z M 127.2076 575.2207 L 127.2076 572.0476 L 126.4146 572.0476 L 126.4146 575.2207 Z M 127.2076 569.6678 L 127.2076 566.4947 L 126.4146 566.4947 L 126.4146 569.6678 Z M 127.2076 564.1149 L 127.2076 560.9418 L 126.4146 560.9418 L 126.4146 564.1149 Z M 127.2076 558.562 L 127.2076 555.389 L 126.4146 555.389 L 126.4146 558.562 Z M 127.2076 553.0091 L 127.2076 549.8361 L 126.4146 549.8361 L 126.4146 553.0091 Z M 127.2076 547.4563 L 127.2076 544.2832 L 126.4146 544.2832 L 126.4146 547.4563 Z M 127.2076 541.9034 L 127.2076 538.7303 L 126.4146 538.7303 L 126.4146 541.9034 Z M 127.2076 536.3505 L 127.2076 533.1774 L 126.4146 533.1774 L 126.4146 536.3505 Z M 127.2077 530.7976 L 127.2077 527.6245 L 126.4146 527.6245 L 126.4146 530.7976 Z M 127.2077 525.2447 L 127.2077 522.0716 L 126.4146 522.0716 L 126.4146 525.2447 Z M 127.2077 519.6918 L 127.2077 516.5188 L 126.4146 516.5188 L 126.4146 519.6918 Z M 127.2077 514.139 L 127.2077 510.9659 L 126.4146 510.9659 L 126.4146 514.139 Z M 127.2077 508.5861 L 127.2077 505.413 L 126.4146 505.413 L 126.4146 508.5861 Z M 127.2077 503.0332 L 127.2077 499.8601 L 126.4146 499.8601 L 126.4146 503.0332 Z M 127.2077 497.4803 L 127.2077 495.4627 L 126.4146 495.4627 L 126.4146 497.4803 Z M 128.926 496.5204 L 126.8112 490.1742 L 124.6963 496.5204 Z "/>
<path transform="matrix(1,0,0,-1,0,841.8898)" d="M 160.3776 575.9296 L 160.3776 572.7565 L 159.5845 572.7565 L 159.5845 575.9296 Z M 160.3776 570.3767 L 160.3776 567.2036 L 159.5845 567.2036 L 159.5845 570.3767 Z M 160.3776 564.8238 L 160.3776 561.6507 L 159.5845 561.6507 L 159.5845 564.8238 Z M 160.3776 559.2709 L 160.3776 556.0979 L 159.5845 556.0979 L 159.5845 559.2709 Z M 160.3776 553.7181 L 160.3776 550.545 L 159.5845 550.545 L 159.5845 553.7181 Z M 160.3776 548.1652 L 160.3776 544.9921 L 159.5845 544.9921 L 159.5845 548.1652 Z M 160.3776 542.6123 L 160.3776 539.4392 L 159.5845 539.4392 L 159.5845 542.6123 Z M 160.3776 537.0594 L 160.3776 533.8863 L 159.5845 533.8863 L 159.5845 537.0594 Z M 160.3776 531.5065 L 160.3776 528.3334 L 159.5845 528.3334 L 159.5845 531.5065 Z M 160.3776 525.9536 L 160.3776 522.7806 L 159.5846 522.7806 L 159.5846 525.9536 Z M 160.3776 520.4007 L 160.3776 517.2277 L 159.5846 517.2277 L 159.5846 520.4007 Z M 160.3776 514.8479 L 160.3776 511.6748 L 159.5846 511.6748 L 159.5846 514.8479 Z M 160.3776 509.295 L 160.3776 506.1219 L 159.5846 506.1219 L 159.5846 509.295 Z M 160.3776 503.7421 L 160.3776 500.569 L 159.5846 500.569 L 159.5846 503.7421 Z M 160.3776 498.1892 L 160.3776 495.4627 L 159.5846 495.4627 L 159.5846 498.1892 Z M 162.0959 496.5204 L 159.9811 490.1742 L 157.8663 496.5204 Z "/>
<path transform="matrix(1,0,0,-1,0,841.8898)" d="M 108.047 251.5669 L 324.7482 251.5669 L 324.7482 234.6438 L 108.047 234.6438 Z " fill="#8cc9f7"/>
<path transform="matrix(.00008326042,0,0,.00008328286,108.047,590.3229)" stroke-width="9525" stroke-linecap="butt" stroke-miterlimit="8" stroke-linejoin="miter" fill="none" stroke="#000000" d="M 0 0 L 2602692 0 L 2602692 203200 L 0 203200 Z "/>
<path transform="matrix(1,0,0,-1,0,841.8898)" d="M 328.6861 251.5669 L 444.5753 251.5669 L 444.5753 234.6438 L 328.6861 234.6438 Z " fill="#fcd9d3"/>
<path transform="matrix(.00008326042,0,0,.00008328286,328.6861,590.3229)" stroke-width="9525" stroke-linecap="butt" stroke-miterlimit="8" stroke-linejoin="miter" fill="none" stroke="#000000" d="M 0 0 L 1391888 0 L 1391888 203200 L 0 203200 Z "/>
<path transform="matrix(1,0,0,-1,0,841.8898)" d="M 232.7208 299.8467 L 319.7679 299.8467 L 319.7679 278.0591 L 232.7208 278.0591 Z " fill="#d9d9d9"/>
<path transform="matrix(.00008326042,0,0,.00008328286,232.7208,542.0431)" stroke-width="9525" stroke-linecap="butt" stroke-linejoin="round" fill="none" stroke="#000000" d="M 0 0 L 1045479 0 L 1045479 261610 L 0 261610 Z "/>
<text xml:space="preserve" transform="matrix(.24 0 -0 .2400647 240.7551 1382.2223)" font-size="50" font-family="ArialMT"><tspan y="-3437" x="0 29.74 40.78 51.82 65.060009 92.05 108.04 121.28001 134.52 161.51001 188.50002 201.74 228.73001 244.72 271.71">Filter features</tspan></text>
<path transform="matrix(-.00008326042,-0,0,.00008328286,449.747,669.31088)" stroke-width="9525" stroke-linecap="butt" stroke-miterlimit="8" stroke-linejoin="miter" fill="none" stroke="#000000" d="M 76915 1086030 C 55675.18 1086030 38456.91 1065829 38456.91 1040909 L 38458.09 588135.6 C 38458.09 563216.1 21239.82 543015 0 543015 C 21239.82 543015 38458.09 522813.8 38458.09 497894.4 L 38458.09 45120.6 C 38458.09 20201.18 55676.37 0 76916.19 0 "/>
<path transform="matrix(0,.00008328286,.00008326042,0,328.9808,577.7041)" stroke-width="9525" stroke-linecap="butt" stroke-miterlimit="8" stroke-linejoin="miter" fill="none" stroke="#000000" d="M 76915 1388349 C 55675.51 1388349 38457.5 1368148 38457.5 1343228 L 38457.5 739295.9 C 38457.5 714376 21239.49 694174.5 0 694174.5 C 21239.49 694174.5 38457.5 673973 38457.5 649053.2 L 38457.5 45121.34 C 38457.5 20201.51 55675.51 0 76915 0 "/>
<path transform="matrix(0,-.00008328286,.00008326042,0,108.0469,622.55569)" stroke-width="9525" stroke-linecap="butt" stroke-miterlimit="8" stroke-linejoin="miter" fill="none" stroke="#000000" d="M 76915 2602684 C 55675.51 2602684 38457.5 2582483 38457.5 2557564 L 38457.5 1346462 C 38457.5 1321543 21239.49 1301342 0 1301342 C 21239.49 1301342 38457.5 1281141 38457.5 1256222 L 38457.5 45120.02 C 38457.5 20200.92 55675.51 0 76915 0 "/>
<path transform="matrix(1,0,0,-1,0,841.8898)" d="M 339.8373 209.0212 L 433.4241 209.0212 L 433.4241 173.1357 L 339.8373 173.1357 Z " fill="#fcd9d3"/>
<path transform="matrix(.00008326042,0,0,.00008328286,339.8373,632.8686)" stroke-width="9525" stroke-linecap="butt" stroke-linejoin="round" fill="none" stroke="#000000" d="M 0 0 L 1124026 0 L 1124026 430887 L 0 430887 Z "/>
<text xml:space="preserve" transform="matrix(.24 0 -0 .2400647 359.2042 1472.9423)" font-size="50" font-family="ArialMT"><tspan y="-3437" x="0 29.74 56.730005 80.97001 94.210018 107.45002 120.690029 147.68003 174.67003 201.66004 228.65004">Test tuned </tspan></text>
<text xml:space="preserve" transform="matrix(.24 0 -0 .2400647 370.7722 1486.8623)" font-size="50" font-family="ArialMT"><tspan y="-3437" x="0 40.205 67.21001 94.21501 121.22002">model</tspan></text>
<text xml:space="preserve" transform="matrix(.24 0 -0 .2400647 60.75983 1537.0222)" font-size="50" font-family="ArialMT"><tspan y="-3437" x="0 26.985">10</tspan></text>
<text xml:space="preserve" transform="matrix(.24 0 -0 .2400647 73.71307 1537.0222)" font-size="50" font-family="ArialMT"><tspan y="-3437" x="0">-</tspan></text>
<text xml:space="preserve" transform="matrix(.24 0 -0 .2400647 77.54617 1537.0222)" font-size="50" font-family="ArialMT"><tspan y="-3437" x="0 13.220002 40.190004 51.21">fold</tspan></text>
<text xml:space="preserve" transform="matrix(.24 0 -0 .2400647 70.40867 1550.9423)" font-size="50" font-family="ArialMT"><tspan y="-3437" x="0 35.245004">CV</tspan></text>
<path transform="matrix(1,0,0,-1,0,841.8898)" d="M 232.7209 289.3496 L 216.0008 289.3496 L 216.0008 259.35 L 216.7938 259.35 L 216.7938 288.9529 L 216.3973 288.5563 L 232.7209 288.5563 Z M 214.2825 260.4077 L 216.3973 254.0615 L 218.5121 260.4077 Z "/>
<path transform="matrix(1,0,0,-1,0,841.8898)" d="M 387.0273 209.0212 L 387.0273 226.7782 L 386.2343 226.7782 L 386.2342 209.0212 Z M 388.7456 225.7205 L 386.6308 232.0667 L 384.516 225.7205 Z "/>
<path transform="matrix(1,0,0,-1,0,841.8898)" d="M 324.5996 126.9584 L 387.0273 126.9584 L 387.0273 167.8473 L 386.2342 167.8473 L 386.2342 127.3551 L 386.6307 127.7517 L 324.5996 127.7517 Z M 388.7455 166.7896 L 386.6307 173.1357 L 384.5159 166.7896 Z "/>
<path transform="matrix(1,0,0,-1,0,841.8898)" d="M 103.7368 172.5789 L 324.5995 172.5789 L 324.5995 82.13121 L 103.7368 82.13121 Z " fill="#d9d9d9"/>
<path transform="matrix(.00008326042,0,0,.00008328286,103.7368,669.31088)" stroke-width="9525" stroke-linecap="butt" stroke-miterlimit="8" stroke-linejoin="miter" fill="none" stroke="#000000" d="M 0 0 L 2652674 0 L 2652674 1086030 L 0 1086030 Z "/>
<path transform="matrix(1,0,0,-1,0,841.8898)" d="M 106.9153 167.8386 L 123.5263 167.8386 L 123.5263 150.9155 L 106.9153 150.9155 Z " fill="#ffff00"/>
<path transform="matrix(.00008326042,0,0,.00008328286,106.9153,674.05117)" stroke-width="9525" stroke-linecap="butt" stroke-miterlimit="8" stroke-linejoin="miter" fill="none" stroke="#000000" d="M 0 0 L 199506 0 L 199506 203200 L 0 203200 Z "/>
<path transform="matrix(1,0,0,-1,0,841.8898)" d="M 126.7048 167.821 L 321.421 167.821 L 321.421 150.8979 L 126.7048 150.8979 Z " fill="#caf297"/>
<path transform="matrix(.00008326042,0,0,.00008328286,126.7048,674.0688)" stroke-width="9525" stroke-linecap="butt" stroke-miterlimit="8" stroke-linejoin="miter" fill="none" stroke="#000000" d="M 0 0 L 2338640 0 L 2338640 203200 L 0 203200 Z "/>
<path transform="matrix(1,0,0,-1,0,841.8898)" d="M 106.9153 146.3359 L 123.5263 146.3359 L 123.5263 129.4128 L 106.9153 129.4128 Z " fill="#caf297"/>
<path transform="matrix(.00008326042,0,0,.00008328286,106.9153,695.55386)" stroke-width="9525" stroke-linecap="butt" stroke-miterlimit="8" stroke-linejoin="miter" fill="none" stroke="#000000" d="M 0 0 L 199506 0 L 199506 203200 L 0 203200 Z "/>
<path transform="matrix(1,0,0,-1,0,841.8898)" d="M 126.7047 146.3359 L 143.3157 146.3359 L 143.3157 129.4128 L 126.7047 129.4128 Z " fill="#ffff00"/>
<path transform="matrix(.00008326042,0,0,.00008328286,126.7047,695.55386)" stroke-width="9525" stroke-linecap="butt" stroke-miterlimit="8" stroke-linejoin="miter" fill="none" stroke="#000000" d="M 0 0 L 199506 0 L 199506 203200 L 0 203200 Z "/>
<path transform="matrix(1,0,0,-1,0,841.8898)" d="M 146.4943 146.3359 L 321.421 146.3359 L 321.421 129.4128 L 146.4943 129.4128 Z " fill="#caf297"/>
<path transform="matrix(.00008326042,0,0,.00008328286,146.4943,695.55386)" stroke-width="9525" stroke-linecap="butt" stroke-miterlimit="8" stroke-linejoin="miter" fill="none" stroke="#000000" d="M 0 0 L 2100959 0 L 2100959 203200 L 0 203200 Z "/>
<path transform="matrix(1,0,0,-1,0,841.8898)" d="M 106.9152 103.1875 L 301.6313 103.1875 L 301.6313 86.26447 L 106.9152 86.26447 Z " fill="#caf297"/>
<path transform="matrix(.00008326042,0,0,.00008328286,106.9152,738.7023)" stroke-width="9525" stroke-linecap="butt" stroke-miterlimit="8" stroke-linejoin="miter" fill="none" stroke="#000000" d="M 0 0 L 2338639 0 L 2338639 203200 L 0 203200 Z "/>
<path transform="matrix(1,0,0,-1,0,841.8898)" d="M 304.81 103.1875 L 321.4209 103.1875 L 321.4209 86.26447 L 304.81 86.26447 Z " fill="#ffff00"/>
<path transform="matrix(.00008326042,0,0,.00008328286,304.81,738.7023)" stroke-width="9525" stroke-linecap="butt" stroke-miterlimit="8" stroke-linejoin="miter" fill="none" stroke="#000000" d="M 0 0 L 199506 0 L 199506 203200 L 0 203200 Z "/>
<text xml:space="preserve" transform="matrix(.24 0 -0 .2400647 211.2386 1511.5823)" font-size="45.83333" font-family="ArialMT"><tspan y="-3437" x="0 28.086665 43.52333 69.409999 79.89666">Train</tspan></text>
<text xml:space="preserve" transform="matrix(.24 0 -0 .2400647 208.6168 1555.0222)" font-size="45.83333" font-family="ArialMT"><tspan y="-3437" x="0">&#x2026;</tspan></text>
<path transform="matrix(1,0,0,-1,0,841.8898)" d="M 275.9145 326.5522 L 275.8611 305.1361 L 276.6541 305.1341 L 276.7076 326.5503 Z M 274.1454 306.1981 L 276.2444 299.8467 L 278.375 306.1875 Z "/>
<text xml:space="preserve" transform="matrix(.24 0 -0 .2400647 363.0373 1381.7422)" font-size="50" font-family="Arial" font-weight="bold"><tspan y="-3437" x="0 40.205 67.21001 94.21501 121.22002 150.975 169.68001 196.685">Measure </tspan></text>
<text xml:space="preserve" transform="matrix(.24 0 -0 .2400647 351.4058 1395.6624)" font-size="50" font-family="Arial" font-weight="bold"><tspan y="-3437" x="0 29.74 56.730005 75.47 91.46 121.2 139.94 182.88 209.87001 239.61002 266.6">performance</tspan></text>
<text xml:space="preserve" transform="matrix(.24 0 -0 .2400647 454.0557 1537.0222)" font-size="50" font-family="ArialMT"><tspan y="-3437" x="0 29.74 56.730005 83.72 110.71001 123.95001 164.14002 191.13002 218.12003 245.11003 256.15003">Tune model </tspan></text>
<text xml:space="preserve" transform="matrix(.24 0 -0 .2400647 455.4462 1550.9423)" font-size="50" font-family="ArialMT"><tspan y="-3437" x="0 26.985 53.97 69.955 96.94 137.12502 164.11002 177.34502 204.33002 220.31502">parameters</tspan></text>
<text xml:space="preserve" transform="matrix(.24 0 -0 .2400647 107.9687 1292.7023)" font-size="62.5" font-family="ArialMT"><tspan y="-3437" x="0 37.45 51.2125 64.975009 82.05001 116.187519 136.57501 153.65001 187.7875 208.175 221.9375 256.075 276.46253 293.53755 310.61256 344.75007 361.82508 395.9626 430.1001 450.4876 467.56263 481.32514 498.40016 512.16268 546.3002">Filter prior to partition</tspan></text>
<text xml:space="preserve" transform="matrix(.24 0 -0 .2400647 357.1937 1428.7822)" font-size="45.83333" font-family="ArialMT"><tspan y="-3437" x="0 25.886666 38.573335 64.46 77.14666 103.033329 128.91999 139.36083 165.2475 177.93418 203.82083 229.70749">1/3 hold out</tspan></text>
<text xml:space="preserve" transform="matrix(.24 0 -0 .2400647 196.3064 1427.8223)" font-size="45.83333" font-family="ArialMT"><tspan y="-3437" x="0 25.886666 38.573335 64.46 77.14666 89.83332 105.26999 131.15665 141.59749">2/3 train</tspan></text>
<path transform="matrix(1,0,0,-1,0,841.8898)" d="M 108.0468 343.4743 L 444.5753 343.4743 L 444.5753 326.5512 L 108.0468 326.5512 Z " fill="#8cc9f7"/>
<path transform="matrix(.00008326042,0,0,.00008328286,108.0468,498.41548)" stroke-width="9525" stroke-linecap="butt" stroke-miterlimit="8" stroke-linejoin="miter" fill="none" stroke="#000000" d="M 0 0 L 4041878 0 L 4041878 203200 L 0 203200 Z "/>
<text xml:space="preserve" transform="matrix(.24 0 -0 .2400647 242.2753 1335.9024)" font-size="45.83333" font-family="ArialMT"><tspan y="-3437" x="0 43.509584 69.41917 95.32875 105.792499 131.70207 144.36583 170.2754 196.18498 208.84874 234.75832 257.87208 283.78166">Whole dataset</tspan></text>
<path transform="matrix(1,0,0,-1,0,841.8898)" d="M 216.8603 216.5638 L 216.8604 180.4067 L 216.0674 180.4067 L 216.0673 216.5638 Z M 218.5787 181.4644 L 216.4639 175.1183 L 214.3491 181.4644 Z "/>
<text xml:space="preserve" transform="matrix(.24 0 -0 .2400647 54.35735 928.62228)" font-size="87.5" font-family="Arial" font-weight="bold"><tspan y="-3437" x="0">A</tspan></text>
<text xml:space="preserve" transform="matrix(.24 0 -0 .2400647 54.35735 1294.1423)" font-size="87.5" font-family="Arial" font-weight="bold"><tspan y="-3437" x="0">B</tspan></text>
<path transform="matrix(.00008326042,0,0,.00008328286,53.99359,113.34888)" stroke-width="9525" stroke-linecap="butt" stroke-miterlimit="8" stroke-linejoin="miter" fill="none" stroke="#bfbfbf" d="M 0 45027.44 C 0 20159.47 20159.44 0 45027.36 0 L 5804244 0 C 5829112 0 5849271 20159.47 5849271 45027.44 L 5849271 3503364 C 5849271 3528232 5829112 3548391 5804244 3548391 L 45027.36 3548391 C 20159.44 3548391 0 3528232 0 3503364 Z "/>
<path transform="matrix(.00008326042,0,0,.00008328286,53.99359,479.94889)" stroke-width="9525" stroke-linecap="butt" stroke-miterlimit="8" stroke-linejoin="miter" fill="none" stroke="#bfbfbf" d="M 0 45027.44 C 0 20159.47 20159.44 0 45027.36 0 L 5804244 0 C 5829112 0 5849271 20159.47 5849271 45027.44 L 5849271 3503364 C 5849271 3528232 5829112 3548391 5804244 3548391 L 45027.36 3548391 C 20159.44 3548391 0 3528232 0 3503364 Z "/>
</g>
</g>
</svg>
