<svg xmlns="http://www.w3.org/2000/svg" xmlns:xlink="http://www.w3.org/1999/xlink" width="620" height="851"><defs><symbol id="ac" overflow="visible"><path d="M.922 0v-7.266h1.11v1.032c.218-.364.515-.649.89-.86a2.57 2.57 0 0 1 1.297-.328c.539 0 .984.117 1.328.344.344.219.586.527.734.922.57-.844 1.317-1.266 2.235-1.266.718 0 1.27.2 1.656.594.394.398.594 1.012.594 1.844V0H9.53v-4.578c0-.488-.043-.844-.125-1.063a.943.943 0 0 0-.422-.515 1.345 1.345 0 0 0-.734-.203c-.512 0-.938.171-1.281.515-.336.336-.5.875-.5 1.625V0H5.234v-4.719c0-.539-.101-.945-.296-1.218-.2-.282-.528-.422-.985-.422-.344 0-.668.093-.969.28-.293.18-.507.446-.64.798-.125.343-.188.851-.188 1.515V0Zm0 0" style="stroke:none"/></symbol><symbol id="a" overflow="visible"><path d="M1.11 0v-9.625h6.484v1.14H2.375V-5.5h4.516v1.125H2.375V0Zm0 0" style="stroke:none"/></symbol><symbol id="c" overflow="visible"><path d="M.86 0v-9.625h1.187V0Zm0 0" style="stroke:none"/></symbol><symbol id="d" overflow="visible"><path d="M3.469-1.063 3.64-.016c-.336.07-.633.11-.891.11-.438 0-.777-.07-1.016-.203a1.113 1.113 0 0 1-.484-.532c-.094-.226-.14-.695-.14-1.406v-4H.233v-.922h.875v-1.718l1.172-.72v2.438H3.47v.922H2.28v4.078c0 .336.02.547.063.64a.53.53 0 0 0 .203.235c.094.055.226.078.406.078.125 0 .297-.015.516-.046Zm0 0" style="stroke:none"/></symbol><symbol id="e" overflow="visible"><path d="m5.656-2.25 1.219.156c-.188.711-.543 1.262-1.063 1.656-.523.399-1.187.594-2 .594-1.023 0-1.835-.312-2.437-.937-.594-.625-.89-1.504-.89-2.64 0-1.177.3-2.087.906-2.735.601-.645 1.39-.969 2.359-.969.926 0 1.688.32 2.281.953.594.637.89 1.527.89 2.672 0 .074-.007.18-.015.313H1.72c.039.773.254 1.359.64 1.765.395.406.88.61 1.454.61.437 0 .804-.114 1.109-.344.312-.227.555-.594.734-1.094ZM1.781-4.156h3.89c-.054-.582-.202-1.02-.452-1.313a1.795 1.795 0 0 0-1.453-.687c-.543 0-1 .183-1.375.547-.368.367-.57.851-.61 1.453Zm0 0" style="stroke:none"/></symbol><symbol id="f" overflow="visible"><path d="M.875 0v-6.969h1.063v1.063c.269-.5.519-.828.75-.985.226-.156.476-.234.75-.234.406 0 .812.125 1.218.375L4.25-5.656c-.293-.164-.578-.25-.86-.25-.261 0-.495.078-.703.234a1.21 1.21 0 0 0-.437.64 4.55 4.55 0 0 0-.203 1.391V0Zm0 0" style="stroke:none"/></symbol><symbol id="h" overflow="visible"><path d="M1.172 0v-6.047H.125v-.922h1.047v-.734c0-.469.039-.817.125-1.047.113-.313.312-.563.594-.75.289-.188.691-.281 1.203-.281a6.6 6.6 0 0 1 1.11.11l-.188 1.03a4.322 4.322 0 0 0-.688-.062c-.367 0-.621.078-.765.234-.149.156-.22.446-.22.86v.64h1.36v.922h-1.36V0Zm0 0" style="stroke:none"/></symbol><symbol id="i" overflow="visible"><path d="M5.438-.86c-.438.376-.86.641-1.266.797-.406.145-.84.22-1.297.22-.773 0-1.367-.188-1.781-.563-.407-.375-.61-.852-.61-1.438 0-.332.079-.64.235-.922.156-.289.36-.52.61-.687.25-.164.53-.297.843-.39a8.468 8.468 0 0 1 1.062-.173c.946-.113 1.645-.25 2.094-.406.008-.164.016-.27.016-.312 0-.477-.117-.817-.344-1.016-.305-.258-.75-.39-1.344-.39-.554 0-.965.1-1.234.296-.262.188-.453.528-.578 1.016L.687-4.984c.102-.489.274-.883.516-1.188.238-.312.586-.547 1.047-.703.457-.164.984-.25 1.578-.25.594 0 1.078.074 1.453.219.375.136.645.312.813.531.176.21.3.477.375.797.039.2.062.558.062 1.078v1.578c0 1.106.02 1.805.063 2.094.05.281.156.558.312.828H5.672a2.422 2.422 0 0 1-.234-.86Zm-.11-2.64c-.43.18-1.07.328-1.922.453-.492.063-.836.14-1.031.235-.2.085-.355.214-.469.39a1.01 1.01 0 0 0-.156.547c0 .324.113.59.344.797.238.21.594.312 1.062.312a2.42 2.42 0 0 0 1.203-.296 1.82 1.82 0 0 0 .782-.829c.125-.257.187-.648.187-1.171Zm0 0" style="stroke:none"/></symbol><symbol id="j" overflow="visible"><path d="M5.453 0v-1.031C4.91-.238 4.172.156 3.234.156c-.406 0-.789-.078-1.14-.234-.356-.156-.621-.352-.797-.594a2.033 2.033 0 0 1-.36-.875C.883-1.773.86-2.145.86-2.657v-4.312h1.188v3.86c0 .625.02 1.043.062 1.25.07.312.227.558.47.734.25.18.55.266.905.266a1.9 1.9 0 0 0 .985-.266c.312-.188.531-.438.656-.75.133-.313.203-.766.203-1.36v-3.734h1.188V0Zm0 0" style="stroke:none"/></symbol><symbol id="k" overflow="visible"><path d="m.406-2.078 1.172-.188c.07.47.254.829.547 1.079.3.25.723.375 1.266.375.539 0 .941-.11 1.203-.329.258-.218.39-.476.39-.78a.708.708 0 0 0-.343-.626c-.168-.101-.57-.238-1.204-.406-.874-.219-1.48-.406-1.812-.563a1.82 1.82 0 0 1-.766-.671 1.792 1.792 0 0 1-.25-.938c0-.3.067-.582.204-.844a1.96 1.96 0 0 1 .593-.672c.188-.132.438-.25.75-.343.313-.094.649-.141 1.016-.141.55 0 1.031.078 1.437.234.414.157.723.371.922.641.196.273.332.633.407 1.078l-1.157.156c-.054-.351-.203-.629-.453-.828-.25-.207-.605-.312-1.062-.312-.543 0-.934.093-1.172.281-.23.18-.344.387-.344.625 0 .148.047.281.14.406.102.125.255.23.454.313.125.043.472.148 1.047.312.832.219 1.414.403 1.75.547.332.137.593.34.78.61.188.273.282.609.282 1.015 0 .399-.117.774-.344 1.125-.23.344-.562.61-1 .797-.43.188-.918.281-1.468.281-.907 0-1.602-.187-2.079-.562C.845-.781.54-1.336.406-2.078Zm0 0" style="stroke:none"/></symbol><symbol id="l" overflow="visible"><path d="M3.36-1.563v-2.625H.75v-1.109h2.61v-2.61h1.124v2.61h2.61v1.11h-2.61v2.625Zm0 0" style="stroke:none"/></symbol><symbol id="m" overflow="visible"><path d="M0 .156 2.781-9.78h.953L.954.156Zm0 0" style="stroke:none"/></symbol><symbol id="n" overflow="visible"><path d="M.422-2.89v-1.188h3.64v1.187Zm0 0" style="stroke:none"/></symbol><symbol id="o" overflow="visible"><path d="M1.969 0H.875v-9.625h1.188v3.438c.5-.625 1.132-.938 1.906-.938.426 0 .832.09 1.219.266.382.168.695.406.937.718.25.313.441.696.578 1.141.145.438.219.906.219 1.406 0 1.2-.297 2.125-.89 2.781-.587.649-1.294.97-2.126.97-.824 0-1.469-.345-1.937-1.032Zm0-3.531c0 .836.11 1.437.328 1.812.375.606.879.907 1.515.907.52 0 .97-.223 1.344-.672.375-.446.563-1.114.563-2 0-.914-.184-1.586-.547-2.016-.367-.438-.805-.656-1.313-.656-.511 0-.953.226-1.328.672-.375.449-.562 1.101-.562 1.953Zm0 0" style="stroke:none"/></symbol><symbol id="p" overflow="visible"><path d="M.89 0v-6.969h1.063v.985c.508-.758 1.25-1.141 2.219-1.141.414 0 .8.078 1.156.234.352.149.613.344.781.594.176.242.301.527.375.86.04.218.063.605.063 1.156V0H5.359v-4.234c0-.477-.046-.836-.14-1.079a1.119 1.119 0 0 0-.485-.578c-.23-.144-.5-.218-.812-.218-.512 0-.95.164-1.313.484-.367.324-.546.93-.546 1.813V0Zm0 0" style="stroke:none"/></symbol><symbol id="q" overflow="visible"><path d="m5.438-2.547 1.156.14c-.125.805-.453 1.434-.985 1.891-.523.45-1.164.672-1.921.672-.95 0-1.715-.312-2.297-.937C.816-1.406.53-2.297.53-3.453c0-.758.117-1.422.36-1.985a2.6 2.6 0 0 1 1.14-1.265 3.397 3.397 0 0 1 1.672-.422c.75 0 1.363.195 1.844.578.488.375.8.918.937 1.625l-1.156.172c-.105-.469-.297-.816-.578-1.047a1.468 1.468 0 0 0-1-.36c-.594 0-1.078.216-1.453.641-.375.43-.563 1.106-.563 2.032 0 .93.176 1.605.532 2.03.363.43.836.641 1.421.641.458 0 .844-.14 1.157-.421.312-.29.508-.727.593-1.313Zm0 0" style="stroke:none"/></symbol><symbol id="r" overflow="visible"><path d="M.89 0v-6.969h1.047v.985c.22-.344.508-.618.875-.829a2.484 2.484 0 0 1 1.25-.312c.508 0 .926.11 1.25.328a1.7 1.7 0 0 1 .704.89c.55-.812 1.27-1.218 2.156-1.218.695 0 1.226.195 1.594.578.375.375.562.965.562 1.766V0H9.156v-4.39c0-.47-.043-.805-.125-1.016a.952.952 0 0 0-.422-.5 1.24 1.24 0 0 0-.703-.203c-.492 0-.898.168-1.218.5-.325.324-.485.843-.485 1.562V0H5.031v-4.531c0-.52-.101-.91-.297-1.172-.187-.27-.5-.406-.937-.406-.336 0-.64.09-.922.265-.281.18-.492.438-.625.782-.125.335-.188.82-.188 1.453V0Zm0 0" style="stroke:none"/></symbol><symbol id="s" overflow="visible"><path d="M.89 2.672v-9.64H1.97v.905a2.7 2.7 0 0 1 .843-.796c.32-.176.711-.266 1.172-.266.594 0 1.114.156 1.563.469.457.304.8.734 1.031 1.297.238.554.36 1.164.36 1.828 0 .71-.133 1.351-.391 1.922-.25.574-.621 1.011-1.11 1.312-.492.3-1.007.453-1.546.453-.387 0-.735-.086-1.047-.25a2.533 2.533 0 0 1-.781-.625v3.39Zm1.063-6.11c0 .899.18 1.56.547 1.985.363.43.8.64 1.313.64.53 0 .984-.218 1.359-.656.375-.445.562-1.14.562-2.078 0-.883-.187-1.547-.562-1.984-.367-.446-.797-.672-1.297-.672-.512 0-.96.234-1.344.703-.386.469-.578 1.156-.578 2.063Zm0 0" style="stroke:none"/></symbol><symbol id="C" overflow="visible"><path d="M3.484 0v-8.484H.313v-1.141h7.625v1.14H4.75V0Zm0 0" style="stroke:none"/></symbol><symbol id="D" overflow="visible"><path d="M1.563 0v-1.344h1.343V0Zm4.484 0v-1.344H7.39V0Zm4.484 0v-1.344h1.344V0Zm0 0" style="stroke:none"/></symbol><symbol id="at" overflow="visible"><path d="M2.719 0 .156-9.625H1.47l1.468 6.313c.157.656.29 1.312.407 1.968.238-1.031.379-1.625.422-1.781l1.843-6.5h1.532L8.516-4.75c.343 1.21.593 2.344.75 3.406.125-.601.285-1.3.484-2.093l1.5-6.188h1.281L9.891 0H8.67l-2.03-7.328a38.239 38.239 0 0 1-.297-1.125c-.106.437-.2.812-.282 1.125L4.017 0Zm0 0" style="stroke:none"/></symbol><symbol id="au" overflow="visible"><path d="M.89 0v-9.625h1.172v3.453a2.66 2.66 0 0 1 2.094-.953c.508 0 .953.105 1.328.313.383.199.66.48.829.843.164.356.25.871.25 1.547V0H5.375v-4.422c0-.582-.133-1.008-.39-1.281-.25-.27-.61-.406-1.079-.406-.344 0-.672.093-.984.28-.313.18-.54.423-.672.735-.125.313-.188.742-.188 1.282V0Zm0 0" style="stroke:none"/></symbol><symbol id="av" overflow="visible"><path d="M.453-3.484c0-1.29.352-2.243 1.063-2.86.601-.52 1.336-.781 2.203-.781.957 0 1.738.313 2.344.938.601.625.906 1.496.906 2.609 0 .898-.137 1.601-.407 2.11A2.829 2.829 0 0 1 5.391-.267a3.418 3.418 0 0 1-1.672.422c-.98 0-1.774-.312-2.375-.937-.594-.625-.89-1.524-.89-2.703Zm1.203 0c0 .898.192 1.57.578 2.015.395.438.891.657 1.485.657.582 0 1.066-.223 1.453-.672.394-.446.594-1.125.594-2.032 0-.863-.2-1.515-.594-1.953-.387-.445-.871-.672-1.453-.672-.594 0-1.09.22-1.485.657-.386.437-.578 1.105-.578 2Zm0 0" style="stroke:none"/></symbol><symbol id="aw" overflow="visible"><path d="M5.406 0v-.875C4.97-.187 4.316.156 3.453.156a2.776 2.776 0 0 1-1.531-.453A3.132 3.132 0 0 1 .844-1.578c-.262-.55-.39-1.188-.39-1.906 0-.688.112-1.313.343-1.875.238-.57.586-1.008 1.047-1.313.468-.3.988-.453 1.562-.453.414 0 .785.09 1.11.266.332.18.601.406.812.687v-3.453H6.5V0ZM1.672-3.484c0 .898.187 1.57.562 2.015.375.438.817.657 1.329.657.519 0 .957-.208 1.312-.625.363-.426.547-1.07.547-1.938 0-.957-.184-1.656-.547-2.094-.367-.445-.82-.672-1.36-.672-.523 0-.96.215-1.312.641-.355.43-.531 1.102-.531 2.016Zm0 0" style="stroke:none"/></symbol><symbol id="aC" overflow="visible"><path d="M5 0H3.828v-7.531c-.281.273-.656.543-1.125.812-.46.274-.871.477-1.234.61V-7.25a6.878 6.878 0 0 0 1.718-1.11c.5-.445.852-.878 1.063-1.296H5Zm0 0" style="stroke:none"/></symbol><symbol id="aD" overflow="visible"><path d="m.563-2.547 1.187-.156c.133.68.363 1.164.688 1.453.32.293.718.438 1.187.438.563 0 1.031-.192 1.406-.579.383-.382.578-.859.578-1.421 0-.54-.18-.989-.53-1.344-.356-.352-.806-.532-1.345-.532a3.2 3.2 0 0 0-.843.141l.14-1.047c.07.012.133.016.188.016.5 0 .945-.129 1.344-.39.406-.259.609-.665.609-1.22 0-.425-.149-.78-.438-1.062-.293-.29-.668-.438-1.125-.438-.468 0-.855.149-1.156.438-.305.281-.5.715-.594 1.297L.688-7.172C.832-7.96 1.16-8.57 1.671-9c.508-.438 1.144-.656 1.906-.656.52 0 1 .117 1.438.344.445.218.785.527 1.015.921.239.387.36.797.36 1.235 0 .418-.118.797-.344 1.14-.219.336-.547.606-.984.813.57.125 1.015.398 1.328.812.312.418.468.934.468 1.547a2.84 2.84 0 0 1-.921 2.14c-.606.587-1.375.876-2.313.876-.844 0-1.547-.25-2.11-.75-.554-.508-.87-1.164-.952-1.969Zm0 0" style="stroke:none"/></symbol><symbol id="aE" overflow="visible"><path d="M6.766-1.14V0H.406a1.93 1.93 0 0 1 .14-.813c.157-.437.411-.863.766-1.28.364-.427.883-.915 1.563-1.47 1.04-.851 1.742-1.53 2.11-2.03.363-.5.546-.973.546-1.423 0-.468-.168-.863-.5-1.187-.336-.32-.765-.485-1.297-.485-.574 0-1.03.172-1.375.516-.343.344-.515.82-.515 1.422L.625-6.875c.082-.906.395-1.594.938-2.063.539-.476 1.269-.718 2.187-.718.926 0 1.656.258 2.188.765.539.512.812 1.149.812 1.907 0 .386-.078.765-.234 1.14-.157.367-.418.758-.782 1.172-.367.406-.976.969-1.828 1.688-.71.593-1.164 1-1.36 1.218-.198.211-.366.418-.5.625Zm0 0" style="stroke:none"/></symbol><symbol id="t" overflow="visible"><path d="M5.219 0H3.984v-7.844c-.293.282-.683.57-1.171.86-.481.28-.907.492-1.282.625v-1.188a7.21 7.21 0 0 0 1.797-1.172c.52-.457.883-.906 1.094-1.344h.797Zm0 0" style="stroke:none"/></symbol><symbol id="u" overflow="visible"><path d="M.578-4.938c0-1.187.117-2.14.36-2.859.25-.726.613-1.285 1.093-1.672.477-.394 1.082-.594 1.813-.594.539 0 1.015.11 1.422.329.406.218.738.53 1 .937.27.406.476.902.625 1.485.144.585.218 1.375.218 2.375 0 1.18-.12 2.125-.359 2.843-.242.719-.602 1.278-1.078 1.672-.48.399-1.09.594-1.828.594-.961 0-1.715-.348-2.266-1.047-.668-.832-1-2.188-1-4.063Zm1.266 0c0 1.649.191 2.743.578 3.282.383.543.86.812 1.422.812.57 0 1.05-.27 1.437-.812.383-.551.578-1.645.578-3.282 0-1.656-.195-2.753-.578-3.296-.386-.54-.87-.813-1.453-.813-.562 0-1.012.242-1.344.719-.43.617-.64 1.746-.64 3.39Zm0 0" style="stroke:none"/></symbol><symbol id="v" overflow="visible"><path d="M.438-3.016V-4.25h3.78v1.234Zm0 0" style="stroke:none"/></symbol><symbol id="w" overflow="visible"><path d="M1.219 0v-6.297H.125v-.969h1.094v-.765c0-.489.039-.852.125-1.094.125-.313.332-.566.625-.766.3-.195.722-.296 1.265-.296.344 0 .723.042 1.141.124L4.187-9a4.707 4.707 0 0 0-.718-.063c-.375 0-.64.079-.797.235-.156.156-.235.453-.235.89v.672H3.86v.97H2.438V0Zm0 0" style="stroke:none"/></symbol><symbol id="x" overflow="visible"><path d="M.469-3.625c0-1.344.375-2.344 1.125-3 .613-.531 1.375-.797 2.281-.797.988 0 1.8.328 2.438.984.632.649.953 1.547.953 2.704 0 .937-.141 1.68-.422 2.218-.282.532-.696.95-1.235 1.25-.53.29-1.109.438-1.734.438-1.023 0-1.844-.328-2.469-.984C.781-1.47.47-2.407.47-3.626Zm1.265 0c0 .93.204 1.625.61 2.094.406.46.914.687 1.531.687.602 0 1.11-.234 1.516-.703C5.797-2.016 6-2.723 6-3.672c0-.894-.203-1.57-.61-2.031-.406-.469-.913-.703-1.515-.703a1.96 1.96 0 0 0-1.531.687c-.406.461-.61 1.157-.61 2.094Zm0 0" style="stroke:none"/></symbol><symbol id="y" overflow="visible"><path d="M.89 0v-10.016h1.235V0Zm0 0" style="stroke:none"/></symbol><symbol id="z" overflow="visible"><path d="M5.64 0v-.922C5.173-.192 4.493.172 3.61.172A2.875 2.875 0 0 1 2-.312c-.48-.32-.855-.77-1.125-1.344-.262-.57-.39-1.227-.39-1.969 0-.719.117-1.375.359-1.969.238-.593.597-1.047 1.078-1.36a2.955 2.955 0 0 1 1.625-.468c.437 0 .828.094 1.172.281.343.18.617.418.828.72v-3.595H6.78V0ZM1.75-3.625c0 .93.191 1.625.578 2.094.395.46.86.687 1.39.687.54 0 1-.219 1.376-.656.375-.445.562-1.117.562-2.016 0-1-.195-1.726-.578-2.187-.387-.469-.855-.703-1.406-.703-.555 0-1.012.226-1.375.672-.367.449-.547 1.152-.547 2.109Zm0 0" style="stroke:none"/></symbol><symbol id="A" overflow="visible"><path d="m8.234-3.516 1.329.344c-.282 1.086-.79 1.914-1.516 2.485-.719.574-1.602.859-2.64.859-1.087 0-1.966-.219-2.641-.656C2.086-.93 1.57-1.57 1.219-2.406a6.964 6.964 0 0 1-.516-2.688c0-1.039.195-1.945.594-2.718A3.984 3.984 0 0 1 3-9.579a4.945 4.945 0 0 1 2.422-.61c1.008 0 1.851.258 2.531.766.688.512 1.164 1.227 1.438 2.14l-1.313.313c-.23-.726-.57-1.258-1.015-1.593-.438-.333-.993-.5-1.657-.5-.773 0-1.418.187-1.937.562-.524.367-.887.86-1.094 1.484a5.967 5.967 0 0 0-.313 1.922c0 .856.126 1.602.376 2.235.25.636.632 1.109 1.156 1.421a3.24 3.24 0 0 0 1.703.47c.738 0 1.363-.212 1.875-.641.52-.426.875-1.063 1.062-1.907Zm0 0" style="stroke:none"/></symbol><symbol id="B" overflow="visible"><path d="M3.938 0 .062-10.016H1.5l2.61 7.282c.206.586.378 1.132.515 1.64.156-.55.336-1.097.547-1.64l2.703-7.282h1.36L5.312 0Zm0 0" style="stroke:none"/></symbol><symbol id="X" overflow="visible"><path d="M3.625 0v-8.844H.328v-1.172h7.938v1.172H4.953V0Zm0 0" style="stroke:none"/></symbol><symbol id="Y" overflow="visible"><path d="M5.688 0v-1.063C5.112-.238 4.343.173 3.374.173c-.43 0-.828-.086-1.203-.25-.367-.164-.64-.375-.828-.625a2.29 2.29 0 0 1-.375-.906C.914-1.848.89-2.234.89-2.766v-4.5h1.234v4.032c0 .648.023 1.078.078 1.296.07.325.235.579.485.766.25.188.562.281.937.281.363 0 .707-.093 1.031-.28.32-.196.551-.458.688-.782.133-.32.203-.797.203-1.422v-3.89H6.78V0Zm0 0" style="stroke:none"/></symbol><symbol id="Z" overflow="visible"><path d="M.922 0v-7.266h1.11v1.032c.53-.79 1.3-1.188 2.312-1.188.437 0 .836.078 1.203.234.363.157.633.368.812.625.188.25.317.555.391.907.05.23.078.625.078 1.187V0H5.594v-4.422c0-.5-.047-.867-.14-1.11a1.15 1.15 0 0 0-.516-.593 1.547 1.547 0 0 0-.86-.234c-.523 0-.976.168-1.36.5-.374.336-.562.964-.562 1.89V0Zm0 0" style="stroke:none"/></symbol><symbol id="aa" overflow="visible"><path d="m5.89-2.344 1.282.156c-.211.75-.586 1.336-1.125 1.75-.543.407-1.234.61-2.078.61-1.063 0-1.906-.328-2.531-.984C.82-1.47.515-2.383.515-3.563c0-1.227.312-2.176.937-2.844.633-.676 1.453-1.016 2.453-1.016.969 0 1.758.336 2.375 1 .614.656.922 1.586.922 2.781v.329H1.781c.051.792.274 1.402.672 1.828.406.43.914.64 1.531.64.446 0 .829-.117 1.141-.36.32-.237.578-.616.766-1.14ZM1.86-4.328h4.046c-.054-.613-.21-1.07-.468-1.375-.387-.469-.891-.703-1.516-.703-.574 0-1.055.187-1.438.562-.375.375-.586.883-.625 1.516Zm0 0" style="stroke:none"/></symbol><symbol id="b" overflow="visible"><path d="M.89-8.266v-1.359h1.188v1.36ZM.89 0v-6.969h1.188V0Zm0 0" style="stroke:none"/></symbol><symbol id="ad" overflow="visible"><path d="M.922 2.781V-7.266h1.125v.954c.258-.375.555-.649.89-.829.333-.187.739-.28 1.22-.28.613 0 1.155.163 1.624.484.477.312.836.761 1.078 1.343.239.586.36 1.219.36 1.907 0 .742-.137 1.414-.407 2.015-.261.594-.648 1.055-1.156 1.375-.5.313-1.031.469-1.593.469-.407 0-.778-.09-1.11-.266a2.547 2.547 0 0 1-.797-.656v3.531Zm1.11-6.375c0 .938.187 1.633.562 2.078.383.45.847.672 1.39.672.54 0 1.004-.226 1.391-.687.395-.469.594-1.188.594-2.157 0-.925-.196-1.617-.578-2.078-.375-.457-.829-.687-1.36-.687-.523 0-.984.246-1.39.734-.407.492-.61 1.2-.61 2.125Zm0 0" style="stroke:none"/></symbol><symbol id="ae" overflow="visible"><path d="M5.656-.89c-.449.386-.886.663-1.312.828a3.852 3.852 0 0 1-1.36.234c-.793 0-1.406-.192-1.843-.578C.71-.801.5-1.305.5-1.922c0-.351.078-.676.234-.969.164-.289.38-.523.641-.703A3.3 3.3 0 0 1 2.265-4a9.303 9.303 0 0 1 1.094-.188c1-.113 1.735-.253 2.204-.421v-.313c0-.508-.118-.863-.344-1.062-.313-.282-.782-.422-1.407-.422-.574 0-1 .105-1.28.312-.274.2-.477.555-.61 1.063L.719-5.188c.101-.519.281-.937.531-1.25.258-.312.625-.55 1.094-.718.476-.176 1.031-.266 1.656-.266.613 0 1.113.074 1.5.219.383.148.664.328.844.547.187.218.316.5.39.843.04.211.063.586.063 1.125v1.641c0 1.149.023 1.871.078 2.172.05.305.156.594.313.875H5.905a2.761 2.761 0 0 1-.25-.89Zm-.093-2.75c-.45.18-1.122.335-2.016.468-.5.074-.86.156-1.078.25a1.032 1.032 0 0 0-.656.969c0 .336.125.61.375.828.25.219.613.328 1.093.328.477 0 .899-.101 1.266-.312a1.96 1.96 0 0 0 .812-.86c.133-.27.204-.676.204-1.218Zm0 0" style="stroke:none"/></symbol><symbol id="af" overflow="visible"><path d="M.906 0v-7.266h1.11v1.11c.28-.52.539-.86.78-1.016.24-.164.505-.25.798-.25.414 0 .836.133 1.265.39L4.438-5.89a1.802 1.802 0 0 0-.907-.265c-.273 0-.515.086-.734.25-.211.156-.36.383-.453.672a4.807 4.807 0 0 0-.203 1.437V0Zm0 0" style="stroke:none"/></symbol><symbol id="ag" overflow="visible"><path d="M3.61-1.094 3.78-.016c-.344.07-.652.11-.922.11-.449 0-.796-.07-1.046-.203a1.23 1.23 0 0 1-.516-.563c-.094-.226-.14-.71-.14-1.453v-4.172H.25v-.969h.906v-1.796l1.219-.735v2.531h1.234v.97H2.375v4.234c0 .355.02.585.063.687a.53.53 0 0 0 .203.234c.101.063.242.094.421.094.145 0 .329-.016.547-.047Zm0 0" style="stroke:none"/></symbol><symbol id="ah" overflow="visible"><path d="m.438-2.172 1.203-.187c.07.492.265.867.578 1.125.312.261.75.39 1.312.39.563 0 .977-.113 1.25-.344.282-.226.422-.5.422-.812 0-.281-.125-.5-.375-.656-.168-.114-.586-.254-1.25-.422-.906-.227-1.539-.426-1.89-.594a1.775 1.775 0 0 1-.782-.687 1.798 1.798 0 0 1-.265-.97c0-.32.07-.616.218-.89.145-.281.348-.515.61-.703.187-.133.441-.25.765-.344a3.668 3.668 0 0 1 1.079-.156c.562 0 1.054.086 1.484.25.437.156.758.375.969.656.207.282.347.657.421 1.125l-1.203.172c-.054-.375-.214-.664-.484-.875-.262-.207-.633-.312-1.11-.312-.562 0-.964.093-1.203.281-.242.18-.359.398-.359.656 0 .157.047.297.14.422.102.137.266.246.485.328.113.043.473.149 1.078.313.875.242 1.485.433 1.828.578.344.148.61.36.797.64.196.282.297.633.297 1.047a2.1 2.1 0 0 1-.36 1.172c-.23.356-.573.637-1.03.844A3.81 3.81 0 0 1 3.53.172c-.937 0-1.656-.195-2.156-.594C.883-.816.57-1.398.437-2.172Zm0 0" style="stroke:none"/></symbol><symbol id="E" overflow="visible"><path d="M.984 0v-10.016h3.032l1.828 6.829 1.797-6.829h3.03V0H8.798v-7.89l-2 7.89H4.859L2.875-7.89V0Zm0 0" style="stroke:none"/></symbol><symbol id="F" overflow="visible"><path d="m5.203-2.313 1.922.329c-.25.699-.64 1.234-1.172 1.609-.531.367-1.195.547-1.984.547-1.262 0-2.2-.414-2.813-1.25-.48-.656-.718-1.488-.718-2.5 0-1.195.312-2.133.937-2.813.633-.687 1.438-1.03 2.406-1.03 1.07 0 1.922.359 2.547 1.077.625.711.922 1.797.89 3.266H2.407c.02.574.176 1.023.469 1.344.3.312.672.468 1.11.468.3 0 .55-.082.75-.25.206-.164.363-.43.468-.796Zm.11-1.937c-.012-.563-.153-.984-.422-1.266a1.326 1.326 0 0 0-1-.437c-.418 0-.766.152-1.047.453-.274.313-.403.73-.39 1.25Zm0 0" style="stroke:none"/></symbol><symbol id="G" overflow="visible"><path d="M2.438-5.047.702-5.359c.188-.696.52-1.211 1-1.547.477-.344 1.192-.516 2.14-.516.852 0 1.489.106 1.907.313.426.199.723.453.89.765.165.313.25.887.25 1.719l-.015 2.234c0 .649.031 1.121.094 1.422.062.305.176.625.343.969h-1.89a4.633 4.633 0 0 1-.188-.563 1.749 1.749 0 0 0-.078-.234c-.324.324-.672.57-1.047.735a3.101 3.101 0 0 1-1.203.234c-.742 0-1.328-.203-1.765-.61C.71-.844.5-1.359.5-1.984c0-.407.098-.77.297-1.094a1.92 1.92 0 0 1 .812-.735c.352-.175.864-.328 1.532-.453.894-.164 1.52-.32 1.875-.468v-.188c0-.375-.094-.64-.282-.797-.18-.156-.523-.234-1.03-.234-.345 0-.61.07-.798.203-.187.137-.344.371-.469.703Zm2.578 1.563c-.25.086-.641.183-1.172.296-.531.118-.883.227-1.047.329-.25.18-.375.402-.375.671 0 .274.098.508.297.704.195.199.453.296.765.296.344 0 .676-.113 1-.343.227-.176.38-.39.454-.64.05-.157.078-.47.078-.938Zm0 0" style="stroke:none"/></symbol><symbol id="H" overflow="visible"><path d="M.328-2.078 2.25-2.36c.082.367.25.648.5.843.25.2.602.297 1.063.297.488 0 .859-.093 1.109-.281a.6.6 0 0 0 .266-.516.489.489 0 0 0-.141-.359c-.094-.094-.309-.176-.64-.25-1.555-.344-2.54-.656-2.954-.938-.574-.394-.86-.94-.86-1.64 0-.625.243-1.149.735-1.578.5-.426 1.274-.64 2.328-.64.989 0 1.723.163 2.203.484.489.324.82.804 1 1.437l-1.812.328a1.068 1.068 0 0 0-.438-.64c-.218-.157-.527-.235-.921-.235-.512 0-.876.074-1.094.219a.438.438 0 0 0-.219.39c0 .137.066.25.203.344.164.125.758.309 1.781.547 1.032.23 1.75.512 2.157.844.394.344.593.824.593 1.437 0 .668-.28 1.243-.843 1.72-.555.48-1.371.718-2.454.718-.992 0-1.777-.203-2.359-.61a2.796 2.796 0 0 1-1.125-1.64Zm0 0" style="stroke:none"/></symbol><symbol id="I" overflow="visible"><path d="M5.781 0v-1.094a2.73 2.73 0 0 1-1.047.938c-.43.218-.882.328-1.359.328-.492 0-.93-.11-1.313-.328a1.951 1.951 0 0 1-.843-.906c-.168-.383-.25-.922-.25-1.61v-4.594H2.89v3.344c0 1.024.03 1.649.093 1.875.07.23.204.414.391.547.188.137.426.203.719.203.32 0 .613-.086.875-.266.258-.187.437-.41.531-.671.094-.27.14-.926.14-1.97v-3.062h1.923V0Zm0 0" style="stroke:none"/></symbol><symbol id="J" overflow="visible"><path d="M2.844 0H.922v-7.266h1.781v1.032c.313-.477.586-.797.828-.954.239-.156.516-.234.828-.234.438 0 .86.121 1.266.36l-.594 1.671c-.324-.207-.625-.312-.906-.312-.273 0-.5.078-.688.234-.18.149-.324.414-.437.797-.105.387-.156 1.195-.156 2.422Zm0 0" style="stroke:none"/></symbol><symbol id="L" overflow="visible"><path d="M.953-7.266h1.781v1.079c.239-.364.555-.66.954-.891A2.591 2.591 0 0 1 5-7.422c.844 0 1.555.336 2.14 1 .594.656.891 1.574.891 2.75 0 1.211-.297 2.152-.89 2.828C6.547-.164 5.828.172 4.984.172c-.398 0-.761-.078-1.093-.234-.325-.165-.664-.442-1.016-.829v3.657H.953Zm1.89 3.516c0 .813.16 1.418.485 1.813.332.386.727.578 1.188.578.445 0 .816-.176 1.109-.532.3-.363.453-.953.453-1.765 0-.758-.156-1.32-.469-1.688-.304-.375-.68-.562-1.125-.562-.468 0-.859.183-1.171.547-.313.367-.47.902-.47 1.609Zm0 0" style="stroke:none"/></symbol><symbol id="M" overflow="visible"><path d="M.172-7.266h1.062v-.546c0-.602.063-1.055.188-1.36.133-.3.375-.547.719-.734.351-.188.796-.281 1.328-.281.539 0 1.078.078 1.61.234L4.812-8.61a3.886 3.886 0 0 0-.875-.11c-.282 0-.485.07-.61.203-.117.125-.172.375-.172.75v.5h1.438v1.516H3.156V0H1.234v-5.75H.172Zm0 0" style="stroke:none"/></symbol><symbol id="N" overflow="visible"><path d="M.563-3.734c0-.633.156-1.25.468-1.844A3.204 3.204 0 0 1 2.36-6.953a4.026 4.026 0 0 1 1.938-.469c1.101 0 2.004.36 2.703 1.078.695.711 1.047 1.606 1.047 2.688 0 1.105-.356 2.023-1.063 2.75C6.274-.187 5.383.172 4.313.172a4.213 4.213 0 0 1-1.907-.453A3.058 3.058 0 0 1 1.031-1.61C.72-2.191.563-2.9.563-3.734Zm1.968.109c0 .719.172 1.273.516 1.656a1.65 1.65 0 0 0 1.265.563c.5 0 .915-.188 1.25-.563.344-.383.516-.941.516-1.672 0-.707-.172-1.254-.516-1.64-.335-.383-.75-.578-1.25-.578s-.921.195-1.265.578c-.344.386-.516.937-.516 1.656Zm0 0" style="stroke:none"/></symbol><symbol id="O" overflow="visible"><path d="M.86-7.266h1.765v1c.633-.77 1.39-1.156 2.266-1.156.468 0 .875.102 1.218.297.344.188.625.477.844.86.313-.383.649-.673 1.016-.86.375-.195.77-.297 1.187-.297.531 0 .977.11 1.344.328.375.211.656.528.844.953.133.305.203.805.203 1.5V0H9.625v-4.156c0-.719-.07-1.18-.203-1.39-.18-.27-.453-.407-.828-.407-.262 0-.512.086-.75.25-.242.156-.414.398-.516.719-.105.312-.156.812-.156 1.5V0H5.25v-3.984c0-.696-.04-1.149-.11-1.36-.062-.207-.167-.36-.312-.453a1.001 1.001 0 0 0-.578-.156c-.305 0-.574.086-.813.25-.23.156-.398.387-.5.687-.105.293-.156.79-.156 1.485V0H.86Zm0 0" style="stroke:none"/></symbol><symbol id="P" overflow="visible"><path d="M7.61 0H5.686v-3.703c0-.781-.042-1.285-.125-1.516a1.065 1.065 0 0 0-.406-.547 1.12 1.12 0 0 0-.656-.187c-.336 0-.637.094-.906.281-.262.18-.446.418-.547.719-.094.305-.14.86-.14 1.672V0H.983v-7.266h1.797v1.079c.625-.82 1.422-1.235 2.39-1.235.415 0 .802.078 1.157.234.352.149.617.34.797.579.176.242.3.511.375.812.07.293.11.719.11 1.281Zm0 0" style="stroke:none"/></symbol><symbol id="Q" overflow="visible"><path d="m7.328-5.11-1.89.344c-.063-.382-.211-.671-.438-.859-.219-.188-.512-.281-.875-.281-.48 0-.86.168-1.14.5-.282.324-.422.87-.422 1.64 0 .868.14 1.477.421 1.829.29.355.68.53 1.172.53.364 0 .66-.1.89-.312.24-.207.407-.562.5-1.062l1.891.312c-.199.875-.578 1.54-1.14 1.985C5.742-.047 5 .172 4.063.172c-1.063 0-1.915-.332-2.547-1C.89-1.504.578-2.438.578-3.625c0-1.195.317-2.129.953-2.797.633-.664 1.492-1 2.578-1 .875 0 1.57.195 2.094.578.531.375.906.953 1.125 1.735Zm0 0" style="stroke:none"/></symbol><symbol id="R" overflow="visible"><path d="M1 0v-10.016h1.922V0Zm0 0" style="stroke:none"/></symbol><symbol id="S" overflow="visible"><path d="M4.328-7.266v1.532H3.016v2.937c0 .586.007.93.03 1.031.032.094.087.18.173.25a.603.603 0 0 0 .344.094c.175 0 .43-.062.765-.187l.156 1.484C4.047.07 3.54.172 2.97.172 2.625.172 2.313.113 2.03 0c-.273-.125-.476-.273-.61-.453-.124-.188-.214-.438-.265-.75-.043-.227-.062-.68-.062-1.36v-3.171H.219v-1.532h.875v-1.437l1.922-1.125v2.562Zm0 0" style="stroke:none"/></symbol><symbol id="T" overflow="visible"><path d="M.781-2.672v-1.922h3.781v1.922Zm0 0" style="stroke:none"/></symbol><symbol id="U" overflow="visible"><path d="m7.438-3.688 1.953.626c-.305 1.093-.805 1.906-1.5 2.437-.7.531-1.586.797-2.657.797-1.336 0-2.433-.453-3.296-1.36C1.082-2.102.655-3.348.655-4.921c0-1.664.43-2.957 1.297-3.875.863-.926 2-1.39 3.406-1.39 1.22 0 2.211.359 2.985 1.078.457.43.797 1.043 1.015 1.843l-2 .485c-.117-.52-.359-.93-.734-1.235-.375-.3-.836-.453-1.375-.453-.742 0-1.344.274-1.813.813-.46.531-.687 1.39-.687 2.578 0 1.273.223 2.18.672 2.719.457.53 1.05.796 1.781.796.54 0 1.004-.164 1.39-.5.384-.343.665-.882.845-1.624Zm0 0" style="stroke:none"/></symbol><symbol id="V" overflow="visible"><path d="M3.578 0 0-10.016h2.188l2.53 7.407 2.454-7.407h2.156L5.734 0Zm0 0" style="stroke:none"/></symbol><symbol id="W" overflow="visible"><path d="M7.656 0H5.875v-1.063a2.87 2.87 0 0 1-1.047.938A2.797 2.797 0 0 1 3.61.172c-.836 0-1.546-.336-2.14-1.016-.594-.676-.89-1.613-.89-2.812 0-1.227.284-2.16.859-2.797.582-.645 1.316-.969 2.203-.969.812 0 1.515.34 2.109 1.016v-3.61h1.906ZM2.531-3.781c0 .773.11 1.328.328 1.672.313.5.743.75 1.297.75.438 0 .813-.188 1.125-.563.313-.375.469-.937.469-1.687 0-.832-.152-1.43-.453-1.797a1.443 1.443 0 0 0-1.156-.547c-.461 0-.844.183-1.157.547-.304.355-.453.898-.453 1.625Zm0 0" style="stroke:none"/></symbol><symbol id="ai" overflow="visible"><path d="M1.36 0v-12.828h1.75L9.843-2.75v-10.078h1.625V0H9.734L3-10.078V0Zm0 0" style="stroke:none"/></symbol><symbol id="aj" overflow="visible"><path d="M.594-4.64c0-1.727.476-3.005 1.437-3.829C2.832-9.156 3.805-9.5 4.953-9.5c1.281 0 2.32.422 3.125 1.266.813.836 1.219 1.984 1.219 3.453 0 1.199-.184 2.14-.547 2.828A3.728 3.728 0 0 1 7.187-.36a4.541 4.541 0 0 1-2.234.562c-1.305 0-2.355-.414-3.156-1.25C.992-1.879.594-3.078.594-4.64Zm1.625 0c0 1.187.254 2.077.765 2.671.52.594 1.176.89 1.97.89.78 0 1.429-.296 1.952-.89.52-.601.782-1.515.782-2.734 0-1.145-.266-2.016-.797-2.61-.524-.593-1.168-.89-1.938-.89-.793 0-1.45.297-1.969.89-.511.586-.765 1.477-.765 2.672Zm0 0" style="stroke:none"/></symbol><symbol id="al" overflow="visible"><path d="m4.625-1.406.219 1.39c-.438.094-.836.141-1.188.141-.574 0-1.015-.09-1.328-.266-.312-.187-.539-.425-.672-.718-.125-.29-.187-.91-.187-1.86v-5.344H.312v-1.234H1.47v-2.297l1.562-.953v3.25h1.594v1.235H3.031v5.421c0 .461.024.75.078.875.063.125.157.23.282.313.125.074.3.11.53.11.177 0 .411-.02.704-.063Zm0 0" style="stroke:none"/></symbol><symbol id="am" overflow="visible"><path d="M1.156 0v-9.297h1.422v1.406c.363-.656.695-1.086 1-1.296A1.8 1.8 0 0 1 4.594-9.5c.531 0 1.07.168 1.625.5l-.547 1.469c-.387-.227-.774-.344-1.156-.344-.344 0-.657.105-.938.313A1.68 1.68 0 0 0 3-6.704a6.044 6.044 0 0 0-.266 1.844V0Zm0 0" style="stroke:none"/></symbol><symbol id="an" overflow="visible"><path d="M7.266 0v-1.36C6.546-.315 5.566.204 4.328.204c-.555 0-1.07-.105-1.547-.312-.469-.207-.824-.47-1.062-.782-.23-.32-.387-.71-.469-1.171-.074-.313-.11-.801-.11-1.47v-5.765H2.72v5.156c0 .825.031 1.383.094 1.672.101.406.312.73.624.969.32.242.723.36 1.204.36a2.6 2.6 0 0 0 1.328-.36c.414-.25.707-.582.875-1 .176-.414.265-1.02.265-1.813v-4.984h1.579V0Zm0 0" style="stroke:none"/></symbol><symbol id="ao" overflow="visible"><path d="m7.547-3 1.625.203c-.262.961-.742 1.7-1.438 2.219-.687.523-1.574.781-2.656.781-1.355 0-2.433-.414-3.234-1.25C1.05-1.879.656-3.05.656-4.563c0-1.562.399-2.773 1.203-3.64C2.672-9.066 3.72-9.5 5-9.5c1.238 0 2.25.422 3.031 1.266.79.843 1.188 2.03 1.188 3.562v.422H2.28c.063 1.023.348 1.809.86 2.36.52.542 1.171.812 1.953.812.57 0 1.062-.149 1.468-.453.415-.313.743-.801.985-1.469ZM2.375-5.547h5.188c-.075-.781-.274-1.363-.594-1.75-.5-.601-1.153-.906-1.953-.906-.73 0-1.34.246-1.829.734-.492.48-.761 1.121-.812 1.922Zm0 0" style="stroke:none"/></symbol><symbol id="ap" overflow="visible"><path d="M1.188 0v-12.828H2.75v4.61C3.488-9.07 4.422-9.5 5.547-9.5c.687 0 1.281.137 1.781.406.508.274.875.649 1.094 1.125.219.48.328 1.172.328 2.078V0H7.172v-5.89c0-.79-.172-1.364-.516-1.72-.336-.35-.812-.53-1.437-.53-.469 0-.914.12-1.328.359-.407.242-.7.57-.875.984-.18.418-.266.992-.266 1.719V0Zm0 0" style="stroke:none"/></symbol><symbol id="aq" overflow="visible"><path d="M1.14 0v-12.828H2.72V0Zm0 0" style="stroke:none"/></symbol><symbol id="ar" overflow="visible"><path d="M7.203 0v-1.172C6.617-.254 5.753.203 4.61.203a3.675 3.675 0 0 1-2.046-.61c-.618-.406-1.094-.972-1.438-1.702C.781-2.848.609-3.691.609-4.641c0-.925.157-1.765.47-2.515.312-.758.773-1.336 1.39-1.735A3.676 3.676 0 0 1 4.547-9.5c.55 0 1.047.121 1.484.36.438.23.797.538 1.078.921v-4.61h1.563V0ZM2.234-4.64c0 1.187.25 2.077.75 2.671.5.594 1.094.89 1.782.89.687 0 1.27-.28 1.75-.843.476-.57.718-1.43.718-2.578 0-1.281-.246-2.219-.734-2.813-.492-.593-1.094-.89-1.813-.89-.699 0-1.28.289-1.75.86-.468.573-.703 1.476-.703 2.702Zm0 0" style="stroke:none"/></symbol><symbol id="as" overflow="visible"><path d="M.563-3.844v-1.594h4.843v1.594Zm0 0" style="stroke:none"/></symbol><symbol id="ax" overflow="visible"><path d="M1.469 0v-12.828h8.656v1.515H3.172v3.97h6.015v1.515H3.173V0Zm0 0" style="stroke:none"/></symbol><symbol id="ay" overflow="visible"><path d="M1.188-11.016v-1.812h1.578v1.812ZM1.188 0v-9.297h1.578V0Zm0 0" style="stroke:none"/></symbol><symbol id="az" overflow="visible"><path d="M1.188 3.563v-12.86h1.421v1.219c.344-.477.727-.832 1.157-1.063.425-.238.941-.359 1.546-.359.79 0 1.489.203 2.094.61.614.406 1.07.984 1.375 1.734.313.742.469 1.554.469 2.437 0 .95-.172 1.809-.516 2.578-.343.762-.84 1.344-1.484 1.75-.648.395-1.328.594-2.047.594-.531 0-1.008-.11-1.422-.328A3.137 3.137 0 0 1 2.75-.969v4.532Zm1.421-8.157c0 1.2.239 2.086.72 2.657.487.574 1.077.859 1.765.859.695 0 1.297-.297 1.797-.89.5-.595.75-1.509.75-2.75 0-1.188-.246-2.071-.735-2.657-.492-.594-1.074-.89-1.75-.89-.668 0-1.261.312-1.781.937-.512.625-.766 1.539-.766 2.734Zm0 0" style="stroke:none"/></symbol><symbol id="aA" overflow="visible"><path d="M7.25-1.14c-.586.492-1.148.84-1.688 1.046a5.087 5.087 0 0 1-1.734.297c-1.023 0-1.808-.242-2.36-.734-.554-.5-.827-1.14-.827-1.922 0-.457.101-.875.312-1.25.207-.375.477-.672.813-.89a4.299 4.299 0 0 1 1.14-.532c.313-.07.781-.148 1.406-.234 1.27-.145 2.204-.32 2.797-.532.008-.218.016-.359.016-.421 0-.633-.152-1.086-.453-1.36-.399-.351-.992-.531-1.781-.531-.75 0-1.305.133-1.657.39-.343.262-.605.72-.78 1.375L.921-6.64c.133-.656.363-1.187.687-1.593.32-.407.786-.72 1.391-.938.602-.219 1.305-.328 2.11-.328.788 0 1.43.094 1.921.281.5.188.864.422 1.094.703.238.282.406.637.5 1.063.05.273.078.758.078 1.453v2.11c0 1.46.031 2.386.094 2.78.07.387.207.758.406 1.11h-1.64a3.024 3.024 0 0 1-.313-1.14Zm-.14-3.532c-.575.242-1.43.445-2.563.61-.649.093-1.106.199-1.375.312-.274.117-.48.29-.625.516a1.278 1.278 0 0 0-.219.734c0 .43.156.781.469 1.063.32.273.789.406 1.406.406.602 0 1.14-.13 1.61-.39a2.363 2.363 0 0 0 1.046-1.095c.164-.351.25-.879.25-1.578Zm0 0" style="stroke:none"/></symbol><symbol id="aB" overflow="visible"><path d="M1.188 0v-9.297h1.406v1.328C3.28-8.989 4.27-9.5 5.563-9.5c.55 0 1.062.102 1.53.297.477.2.833.465 1.063.797.227.324.39.71.485 1.156.062.293.093.805.093 1.531V0H7.156v-5.656c0-.633-.062-1.11-.187-1.422a1.457 1.457 0 0 0-.64-.766 2.055 2.055 0 0 0-1.11-.297c-.668 0-1.246.215-1.735.641-.492.43-.734 1.234-.734 2.422V0Zm0 0" style="stroke:none"/></symbol><symbol id="aF" overflow="visible"><path d="M18.5 0h-4.047l-1.61-4.188H5.47L3.953 0H0l7.188-18.438h3.937Zm-6.844-7.297L9.11-14.14 6.625-7.297Zm0 0" style="stroke:none"/></symbol><symbol id="aG" overflow="visible"><path d="M1.89-18.438h7.376c1.457 0 2.539.063 3.25.188.718.117 1.359.367 1.921.75.57.387 1.047.902 1.422 1.547.383.637.579 1.355.579 2.156 0 .867-.235 1.656-.704 2.375a4.42 4.42 0 0 1-1.89 1.625c1.125.324 1.988.883 2.594 1.672.601.793.906 1.719.906 2.781 0 .836-.2 1.649-.594 2.438-.387.793-.918 1.43-1.594 1.906-.68.469-1.511.762-2.5.875-.625.063-2.12.105-4.484.125H1.89Zm3.72 3.063v4.266h2.437c1.457 0 2.36-.02 2.703-.063.645-.07 1.148-.289 1.516-.656.363-.363.546-.844.546-1.438 0-.57-.164-1.035-.484-1.39-.312-.364-.777-.582-1.39-.656-.376-.04-1.438-.063-3.188-.063Zm0 7.328v4.938h3.452c1.344 0 2.192-.036 2.547-.11.551-.101 1-.347 1.344-.734.352-.395.531-.914.531-1.563 0-.562-.136-1.035-.406-1.421-.262-.383-.648-.665-1.156-.844-.512-.176-1.61-.266-3.297-.266Zm0 0" style="stroke:none"/></symbol></defs><path d="M918.5 699.505h455.005v150H918.499Zm0 0" style="fill-rule:nonzero;fill:#d9d9d9;fill-opacity:1;stroke-width:3.4375;stroke-linecap:butt;stroke-linejoin:round;stroke:#000;stroke-opacity:1;stroke-miterlimit:10" transform="matrix(.28004 0 0 .28003 -22.963 -82.048)"/><g style="fill:#000;fill-opacity:1"><use xlink:href="#a" x="246.684" y="131.613"/><use xlink:href="#b" x="254.894" y="131.613"/><use xlink:href="#c" x="257.881" y="131.613"/><use xlink:href="#d" x="260.867" y="131.613"/><use xlink:href="#e" x="264.602" y="131.613"/><use xlink:href="#f" x="272.077" y="131.613"/><use xlink:href="#g" x="276.553" y="131.613"/></g><g style="fill:#000;fill-opacity:1"><use xlink:href="#h" x="280.375" y="131.613"/><use xlink:href="#e" x="284.11" y="131.613"/><use xlink:href="#i" x="291.585" y="131.613"/><use xlink:href="#d" x="299.061" y="131.613"/><use xlink:href="#j" x="302.795" y="131.613"/><use xlink:href="#f" x="310.271" y="131.613"/><use xlink:href="#e" x="314.747" y="131.613"/><use xlink:href="#k" x="322.223" y="131.613"/><use xlink:href="#g" x="328.944" y="131.613"/><use xlink:href="#l" x="332.678" y="131.613"/><use xlink:href="#m" x="340.528" y="131.613"/></g><use xlink:href="#n" x="344.387" y="131.613" style="fill:#000;fill-opacity:1"/><g style="fill:#000;fill-opacity:1"><use xlink:href="#o" x="247.004" y="147.856"/><use xlink:href="#i" x="254.48" y="147.856"/><use xlink:href="#c" x="261.955" y="147.856"/><use xlink:href="#i" x="264.942" y="147.856"/><use xlink:href="#p" x="272.417" y="147.856"/><use xlink:href="#q" x="279.893" y="147.856"/><use xlink:href="#e" x="286.614" y="147.856"/><use xlink:href="#g" x="294.089" y="147.856"/><use xlink:href="#k" x="297.824" y="147.856"/><use xlink:href="#i" x="304.545" y="147.856"/><use xlink:href="#r" x="312.02" y="147.856"/><use xlink:href="#s" x="323.217" y="147.856"/><use xlink:href="#c" x="330.693" y="147.856"/><use xlink:href="#e" x="333.679" y="147.856"/><use xlink:href="#k" x="341.155" y="147.856"/></g><path d="M27.996 486.994c-7.728 0-13.99-7.351-13.99-16.419V259.923c0-9.067-6.278-16.419-14.006-16.419 7.728 0 14.005-7.351 14.005-16.432V16.419C14.005 7.352 20.268 0 27.996 0" style="fill:none;stroke-width:3.4375;stroke-linecap:butt;stroke-linejoin:miter;stroke:#000;stroke-opacity:1;stroke-miterlimit:8" transform="matrix(-.28004 0 0 .28003 519.047 178.797)"/><g style="fill:#000;fill-opacity:1"><use xlink:href="#t" x="41.023" y="243.343"/><use xlink:href="#u" x="48.81" y="243.343"/></g><use xlink:href="#v" x="56.746" y="243.343" style="fill:#000;fill-opacity:1"/><g style="fill:#000;fill-opacity:1"><use xlink:href="#w" x="61.398" y="243.343"/><use xlink:href="#x" x="65.289" y="243.343"/><use xlink:href="#y" x="73.075" y="243.343"/><use xlink:href="#z" x="76.186" y="243.343"/></g><g style="fill:#000;fill-opacity:1"><use xlink:href="#A" x="52.734" y="260.425"/><use xlink:href="#B" x="62.846" y="260.425"/></g><path d="m298.3 155.832.055 16.473-.96.004-.06-16.473Zm2.141 15.184-2.543 7.71-2.593-7.69Zm0 0" style="stroke:none;fill-rule:nonzero;fill:#000;fill-opacity:1"/><path d="M416.5 931.5h1459.005v486.994H416.499Zm0 0" style="fill-rule:nonzero;fill:#d9d9d9;fill-opacity:1;stroke-width:3.4375;stroke-linecap:butt;stroke-linejoin:miter;stroke:#000;stroke-opacity:1;stroke-miterlimit:8" transform="matrix(.28004 0 0 .28003 -22.963 -82.048)"/><path d="M437.507 951.504H558.5v74.002H437.507Zm0 0" style="fill-rule:nonzero;fill:#ff0;fill-opacity:1;stroke-width:3.4375;stroke-linecap:butt;stroke-linejoin:miter;stroke:#000;stroke-opacity:1;stroke-miterlimit:8" transform="matrix(.28004 0 0 .28003 -22.963 -82.048)"/><path d="M581.503 951.504h1272.994v74.002H581.503ZM437.507 1044.506H558.5v73.988H437.507Zm0 0" style="fill-rule:nonzero;fill:#caf297;fill-opacity:1;stroke-width:3.4375;stroke-linecap:butt;stroke-linejoin:miter;stroke:#000;stroke-opacity:1;stroke-miterlimit:8" transform="matrix(.28004 0 0 .28003 -22.963 -82.048)"/><path d="M581.503 1044.506h120.994v73.988H581.503Zm0 0" style="fill-rule:nonzero;fill:#ff0;fill-opacity:1;stroke-width:3.4375;stroke-linecap:butt;stroke-linejoin:miter;stroke:#000;stroke-opacity:1;stroke-miterlimit:8" transform="matrix(.28004 0 0 .28003 -22.963 -82.048)"/><path d="M725.5 1044.506h1128.997v73.988H725.5ZM437.507 1322.493h1271v74.003h-1271Zm0 0" style="fill-rule:nonzero;fill:#caf297;fill-opacity:1;stroke-width:3.4375;stroke-linecap:butt;stroke-linejoin:miter;stroke:#000;stroke-opacity:1;stroke-miterlimit:8" transform="matrix(.28004 0 0 .28003 -22.963 -82.048)"/><path d="M1731.494 1322.493h123.003v74.003h-123.003Zm0 0" style="fill-rule:nonzero;fill:#ff0;fill-opacity:1;stroke-width:3.4375;stroke-linecap:butt;stroke-linejoin:miter;stroke:#000;stroke-opacity:1;stroke-miterlimit:8" transform="matrix(.28004 0 0 .28003 -22.963 -82.048)"/><g style="fill:#000;fill-opacity:1"><use xlink:href="#C" x="300.508" y="199.098"/><use xlink:href="#f" x="308.719" y="199.098"/><use xlink:href="#i" x="313.195" y="199.098"/><use xlink:href="#b" x="320.67" y="199.098"/><use xlink:href="#p" x="323.657" y="199.098"/></g><use xlink:href="#D" x="291.121" y="279.465" style="fill:#000;fill-opacity:1"/><path d="m297.418 87.785-.063 19.692.965.003.063-19.69Zm-2.14 18.403 2.542 7.71 2.59-7.695Zm0 0" style="stroke:none;fill-rule:nonzero;fill:#000;fill-opacity:1"/><g style="fill:#000;fill-opacity:1"><use xlink:href="#E" x="224.461" y="364.593"/><use xlink:href="#F" x="236.124" y="364.593"/><use xlink:href="#G" x="243.911" y="364.593"/><use xlink:href="#H" x="251.698" y="364.593"/><use xlink:href="#I" x="259.485" y="364.593"/><use xlink:href="#J" x="268.037" y="364.593"/><use xlink:href="#F" x="273.486" y="364.593"/><use xlink:href="#K" x="281.273" y="364.593"/><use xlink:href="#L" x="285.163" y="364.593"/><use xlink:href="#F" x="293.716" y="364.593"/><use xlink:href="#J" x="301.503" y="364.593"/><use xlink:href="#M" x="306.952" y="364.593"/><use xlink:href="#N" x="311.615" y="364.593"/><use xlink:href="#J" x="320.167" y="364.593"/><use xlink:href="#O" x="325.616" y="364.593"/><use xlink:href="#G" x="338.066" y="364.593"/><use xlink:href="#P" x="345.852" y="364.593"/><use xlink:href="#Q" x="354.405" y="364.593"/><use xlink:href="#F" x="362.192" y="364.593"/></g><g style="fill:#000;fill-opacity:1"><use xlink:href="#N" x="232.805" y="381.675"/><use xlink:href="#P" x="241.357" y="381.675"/><use xlink:href="#K" x="249.91" y="381.675"/><use xlink:href="#R" x="253.8" y="381.675"/><use xlink:href="#F" x="257.69" y="381.675"/><use xlink:href="#M" x="265.477" y="381.675"/><use xlink:href="#S" x="270.14" y="381.675"/></g><use xlink:href="#T" x="275" y="381.675" style="fill:#000;fill-opacity:1"/><g style="fill:#000;fill-opacity:1"><use xlink:href="#N" x="279.652" y="381.675"/><use xlink:href="#I" x="288.205" y="381.675"/><use xlink:href="#S" x="296.758" y="381.675"/><use xlink:href="#K" x="301.42" y="381.675"/><use xlink:href="#U" x="305.31" y="381.675"/><use xlink:href="#V" x="315.422" y="381.675"/><use xlink:href="#K" x="324.761" y="381.675"/><use xlink:href="#M" x="328.651" y="381.675"/><use xlink:href="#N" x="333.313" y="381.675"/><use xlink:href="#R" x="341.866" y="381.675"/><use xlink:href="#W" x="345.756" y="381.675"/><use xlink:href="#H" x="354.309" y="381.675"/></g><g style="fill:#000;fill-opacity:1"><use xlink:href="#X" x="525.055" y="243.343"/><use xlink:href="#Y" x="533.607" y="243.343"/><use xlink:href="#Z" x="541.394" y="243.343"/><use xlink:href="#aa" x="549.181" y="243.343"/><use xlink:href="#ab" x="556.968" y="243.343"/><use xlink:href="#ac" x="560.858" y="243.343"/><use xlink:href="#x" x="572.521" y="243.343"/><use xlink:href="#z" x="580.308" y="243.343"/><use xlink:href="#aa" x="588.095" y="243.343"/><use xlink:href="#y" x="595.882" y="243.343"/><use xlink:href="#ab" x="598.993" y="243.343"/></g><g style="fill:#000;fill-opacity:1"><use xlink:href="#ad" x="526.742" y="260.425"/><use xlink:href="#ae" x="534.529" y="260.425"/><use xlink:href="#af" x="542.316" y="260.425"/><use xlink:href="#ae" x="546.979" y="260.425"/><use xlink:href="#ac" x="554.765" y="260.425"/><use xlink:href="#aa" x="566.429" y="260.425"/><use xlink:href="#ag" x="574.216" y="260.425"/><use xlink:href="#aa" x="578.106" y="260.425"/><use xlink:href="#af" x="585.893" y="260.425"/><use xlink:href="#ah" x="590.555" y="260.425"/></g><g style="fill:#000;fill-opacity:1"><use xlink:href="#ai" x="93.523" y="32.482"/><use xlink:href="#aj" x="106.467" y="32.482"/><use xlink:href="#ak" x="116.434" y="32.482"/><use xlink:href="#al" x="121.414" y="32.482"/><use xlink:href="#am" x="126.393" y="32.482"/><use xlink:href="#an" x="132.361" y="32.482"/><use xlink:href="#ao" x="142.329" y="32.482"/><use xlink:href="#ak" x="152.296" y="32.482"/><use xlink:href="#ap" x="157.276" y="32.482"/><use xlink:href="#aj" x="167.243" y="32.482"/><use xlink:href="#aq" x="177.211" y="32.482"/><use xlink:href="#ar" x="181.193" y="32.482"/></g><use xlink:href="#as" x="191.07" y="32.482" style="fill:#000;fill-opacity:1"/><g style="fill:#000;fill-opacity:1"><use xlink:href="#aj" x="197.008" y="32.482"/><use xlink:href="#an" x="206.975" y="32.482"/><use xlink:href="#al" x="216.943" y="32.482"/></g><path d="M416.5 533.505h1459.005v72.998H416.499Zm0 0" style="fill-rule:nonzero;fill:#8cc9f7;fill-opacity:1;stroke-width:3.4375;stroke-linecap:butt;stroke-linejoin:miter;stroke:#000;stroke-opacity:1;stroke-miterlimit:8" transform="matrix(.28004 0 0 .28003 -22.963 -82.048)"/><g style="fill:#000;fill-opacity:1"><use xlink:href="#at" x="256.551" y="81.77"/><use xlink:href="#au" x="269.238" y="81.77"/><use xlink:href="#av" x="276.713" y="81.77"/><use xlink:href="#c" x="284.189" y="81.77"/><use xlink:href="#e" x="287.175" y="81.77"/><use xlink:href="#g" x="294.651" y="81.77"/><use xlink:href="#aw" x="298.386" y="81.77"/><use xlink:href="#i" x="305.861" y="81.77"/><use xlink:href="#d" x="313.337" y="81.77"/><use xlink:href="#i" x="317.071" y="81.77"/><use xlink:href="#k" x="324.547" y="81.77"/><use xlink:href="#e" x="331.268" y="81.77"/><use xlink:href="#d" x="338.744" y="81.77"/></g><path d="M479.762 309.008v3.851h-.961v-3.851Zm0 6.738v3.852h-.961v-3.852Zm0 6.742v3.848h-.961v-3.848Zm2.09 5.102-2.57 7.7-2.567-7.7Zm0 0" style="stroke:none;fill-rule:nonzero;fill:#000;fill-opacity:1"/><path d="M1793.498 1501.494c0 7.742-7.351 14.005-16.432 14.005H1163.43c-9.08 0-16.432 6.278-16.432 14.006 0-7.728-7.35-14.006-16.432-14.006H516.933c-9.081 0-16.432-6.263-16.432-14.005" style="fill:none;stroke-width:3.4375;stroke-linecap:butt;stroke-linejoin:miter;stroke:#000;stroke-opacity:1;stroke-miterlimit:8" transform="matrix(.28004 0 0 .28003 -22.963 -82.048)"/><path d="m197.766 256.926.004 3.847h-.965v-3.847Zm.004 6.734v3.852h-.961l-.004-3.852Zm0 6.738.003 3.852-.964.004v-3.852Zm.003 6.743v3.847h-.96l-.004-3.847Zm0 6.734.004 3.852h-.964v-3.852Zm.004 6.738v3.852h-.96l-.005-3.852Zm0 6.739.004 3.851h-.965v-3.848Zm.004 6.738v3.851h-.96l-.005-3.851Zm0 6.738.004 3.852h-.965v-3.852Zm.004 6.738v3.852h-.96v-3.852Zm0 6.739.004 3.851h-.965v-3.847Zm2.09 3.132-2.566 7.704-2.57-7.7ZM238.094 315.168v3.852h-.965v-3.852Zm0 6.738v3.852h-.965v-3.852Zm0 6.742v.09h-.965v-.09Zm2.086-1.195-2.57 7.7-2.567-7.7ZM278.418 315.168v3.852h-.965v-3.852Zm0 6.738v3.852h-.965v-3.852Zm0 6.742v.09h-.965v-.09Zm2.086-1.195-2.567 7.7-2.57-7.7ZM319.023 315.168v3.852h-.964v-3.852Zm0 6.738v3.852h-.964v-3.852Zm0 6.742v.09h-.964v-.09Zm2.086-1.195-2.566 7.7-2.57-7.7ZM359.348 315.168v3.852h-.965v-3.852Zm0 6.738v3.852h-.965v-3.852Zm0 6.742v.09h-.965v-.09Zm2.086-1.195-2.567 7.7-2.57-7.7ZM399.672 315.168v3.852h-.961v-3.852Zm0 6.738v3.852h-.961v-3.852Zm0 6.742v.09h-.961v-.09Zm2.086-1.195-2.567 7.7-2.566-7.7ZM440 315.168v3.852h-.965v-3.852Zm0 6.738v3.852h-.965v-3.852Zm0 6.742v.09h-.965v-.09Zm2.086-1.195-2.57 7.7-2.567-7.7Zm0 0" style="stroke:none;fill-rule:nonzero;fill:#000;fill-opacity:1"/><path d="M437.507 1137.494H558.5v73.012H437.507Zm0 0" style="fill-rule:nonzero;fill:#caf297;fill-opacity:1;stroke-width:3.4375;stroke-linecap:butt;stroke-linejoin:miter;stroke:#000;stroke-opacity:1;stroke-miterlimit:8" transform="matrix(.28004 0 0 .28003 -22.963 -82.048)"/><path d="M726.504 1137.494h119.99v73.012h-119.99Zm0 0" style="fill-rule:nonzero;fill:#ff0;fill-opacity:1;stroke-width:3.4375;stroke-linecap:butt;stroke-linejoin:miter;stroke:#000;stroke-opacity:1;stroke-miterlimit:8" transform="matrix(.28004 0 0 .28003 -22.963 -82.048)"/><path d="M869.496 1137.494h985.001v73.012H869.496ZM582.493 1137.494h120.004v73.012H582.493Zm0 0" style="fill-rule:nonzero;fill:#caf297;fill-opacity:1;stroke-width:3.4375;stroke-linecap:butt;stroke-linejoin:miter;stroke:#000;stroke-opacity:1;stroke-miterlimit:8" transform="matrix(.28004 0 0 .28003 -22.963 -82.048)"/><path d="M117.117 205.121v3.848h-.965v-3.848Zm0 6.734v3.852h-.965v-3.852Zm0 6.739v3.851h-.965v-3.851Zm0 6.742v3.848h-.965v-3.848Zm0 6.734v3.852h-.965v-3.852Zm0 6.739v3.851h-.965v-3.851Zm0 6.738v3.851h-.965v-3.851Zm0 6.738v3.852h-.965v-3.852Zm0 6.738v3.852h-.965v-3.852Zm0 6.739v3.851h-.965v-3.851Zm0 6.738v3.848h-.965V272.5Zm0 6.738v3.852h-.965v-3.852Zm0 6.739v3.851h-.965v-3.851Zm0 6.738v3.851h-.965v-3.851Zm0 6.738v3.848h-.965v-3.848Zm0 6.738v3.852h-.965v-3.852Zm0 6.739v3.851h-.965v-3.851Zm0 6.738v3.848h-.965v-3.848Zm0 6.734v2.453h-.965v-2.453Zm2.086 1.168-2.566 7.7-2.57-7.7ZM157.16 231.16v3.852h-.96v-3.852Zm0 6.738v3.852h-.96v-3.852Zm0 6.743v3.847h-.96v-3.847Zm0 6.734v3.852h-.96v-3.852Zm0 6.738v3.852h-.96v-3.852Zm0 6.739v3.851h-.96v-3.851Zm0 6.742v3.847h-.96v-3.847Zm0 6.734v3.852h-.96v-3.852Zm0 6.738v3.852h-.96v-3.852Zm0 6.739v3.851h-.96v-3.851Zm0 6.738v3.852h-.96v-3.852Zm0 6.738v3.852h-.96v-3.852Zm0 6.739v3.851h-.96v-3.851Zm0 6.738v3.847h-.96v-3.847Zm0 6.738v3.309h-.96v-3.309Zm2.086 2.027-2.566 7.7-2.567-7.7Zm0 0" style="stroke:none;fill-rule:nonzero;fill:#000;fill-opacity:1"/><path d="M416.5 2523.496h940v74.003h-940Zm0 0" style="fill-rule:nonzero;fill:#8cc9f7;fill-opacity:1;stroke-width:3.4375;stroke-linecap:butt;stroke-linejoin:miter;stroke:#000;stroke-opacity:1;stroke-miterlimit:8" transform="matrix(.28004 0 0 .28003 -22.963 -82.048)"/><path d="M1373.505 2523.496h502v74.003h-502Zm0 0" style="fill-rule:nonzero;fill:#fcd9d3;fill-opacity:1;stroke-width:3.4375;stroke-linecap:butt;stroke-linejoin:miter;stroke:#000;stroke-opacity:1;stroke-miterlimit:8" transform="matrix(.28004 0 0 .28003 -22.963 -82.048)"/><path d="M928.5 2288.502h435.003v150H928.501Zm0 0" style="fill-rule:nonzero;fill:#d9d9d9;fill-opacity:1;stroke-width:3.4375;stroke-linecap:butt;stroke-linejoin:round;stroke:#000;stroke-opacity:1;stroke-miterlimit:10" transform="matrix(.28004 0 0 .28003 -22.963 -82.048)"/><g style="fill:#000;fill-opacity:1"><use xlink:href="#a" x="246.684" y="576.574"/><use xlink:href="#b" x="254.894" y="576.574"/><use xlink:href="#c" x="257.881" y="576.574"/><use xlink:href="#d" x="260.867" y="576.574"/><use xlink:href="#e" x="264.602" y="576.574"/><use xlink:href="#f" x="272.077" y="576.574"/><use xlink:href="#g" x="276.553" y="576.574"/></g><g style="fill:#000;fill-opacity:1"><use xlink:href="#h" x="280.375" y="576.574"/><use xlink:href="#e" x="284.11" y="576.574"/><use xlink:href="#i" x="291.585" y="576.574"/><use xlink:href="#d" x="299.061" y="576.574"/><use xlink:href="#j" x="302.795" y="576.574"/><use xlink:href="#f" x="310.271" y="576.574"/><use xlink:href="#e" x="314.747" y="576.574"/><use xlink:href="#k" x="322.223" y="576.574"/><use xlink:href="#g" x="328.944" y="576.574"/><use xlink:href="#l" x="332.678" y="576.574"/><use xlink:href="#m" x="340.528" y="576.574"/></g><use xlink:href="#n" x="344.387" y="576.574" style="fill:#000;fill-opacity:1"/><g style="fill:#000;fill-opacity:1"><use xlink:href="#o" x="247.004" y="592.816"/><use xlink:href="#i" x="254.48" y="592.816"/><use xlink:href="#c" x="261.955" y="592.816"/><use xlink:href="#i" x="264.942" y="592.816"/><use xlink:href="#p" x="272.417" y="592.816"/><use xlink:href="#q" x="279.893" y="592.816"/><use xlink:href="#e" x="286.614" y="592.816"/><use xlink:href="#g" x="294.089" y="592.816"/><use xlink:href="#k" x="297.824" y="592.816"/><use xlink:href="#i" x="304.545" y="592.816"/><use xlink:href="#r" x="312.02" y="592.816"/><use xlink:href="#s" x="323.217" y="592.816"/><use xlink:href="#c" x="330.693" y="592.816"/><use xlink:href="#e" x="333.679" y="592.816"/><use xlink:href="#k" x="341.155" y="592.816"/></g><path d="M27.003 392c-7.463 0-13.503-7.087-13.503-15.833V211.84c0-8.747-6.04-15.847-13.502-15.847 7.462 0 13.502-7.086 13.502-15.833V15.835C13.5 7.09 19.54.002 27.003.002" style="fill:none;stroke-width:3.4375;stroke-linecap:butt;stroke-linejoin:miter;stroke:#000;stroke-opacity:1;stroke-miterlimit:8" transform="matrix(-.28004 0 0 .28003 508.406 720.648)"/><path d="M27.004 501.005c-7.463 0-13.503-7.1-13.503-15.847V266.34c0-8.746-6.04-15.832-13.504-15.832 7.463 0 13.504-7.1 13.504-15.846V15.84c0-8.746 6.04-15.846 13.503-15.846" style="fill:none;stroke-width:3.4375;stroke-linecap:butt;stroke-linejoin:miter;stroke:#000;stroke-opacity:1;stroke-miterlimit:8" transform="matrix(0 .28003 .28004 0 361.947 609.477)"/><path d="M1356.5 2635.497c0 7.728-7.35 14.006-16.431 14.006h-437.15c-9.068 0-16.419 6.263-16.419 13.991 0-7.728-7.351-13.991-16.418-13.991h-437.15c-9.082 0-16.433-6.278-16.433-14.006" style="fill:none;stroke-width:3.4375;stroke-linecap:butt;stroke-linejoin:miter;stroke:#000;stroke-opacity:1;stroke-miterlimit:8" transform="matrix(.28004 0 0 .28003 -22.963 -82.048)"/><path d="M1421.503 2708.496h406.003v155.007h-406.003Zm0 0" style="fill-rule:nonzero;fill:#fcd9d3;fill-opacity:1;stroke-width:3.4375;stroke-linecap:butt;stroke-linejoin:round;stroke:#000;stroke-opacity:1;stroke-miterlimit:10" transform="matrix(.28004 0 0 .28003 -22.963 -82.048)"/><g style="fill:#000;fill-opacity:1"><use xlink:href="#C" x="399.922" y="693.906"/><use xlink:href="#e" x="407.133" y="693.906"/><use xlink:href="#k" x="414.608" y="693.906"/><use xlink:href="#d" x="421.329" y="693.906"/><use xlink:href="#g" x="425.064" y="693.906"/><use xlink:href="#d" x="428.798" y="693.906"/><use xlink:href="#j" x="432.533" y="693.906"/><use xlink:href="#p" x="440.009" y="693.906"/><use xlink:href="#e" x="447.484" y="693.906"/><use xlink:href="#aw" x="454.96" y="693.906"/><use xlink:href="#g" x="462.436" y="693.906"/></g><g style="fill:#000;fill-opacity:1"><use xlink:href="#r" x="413.32" y="710.148"/><use xlink:href="#av" x="424.517" y="710.148"/><use xlink:href="#aw" x="431.993" y="710.148"/><use xlink:href="#e" x="439.469" y="710.148"/><use xlink:href="#c" x="446.944" y="710.148"/></g><g style="fill:#000;fill-opacity:1"><use xlink:href="#t" x="36.223" y="772.034"/><use xlink:href="#u" x="44.01" y="772.034"/></g><use xlink:href="#v" x="51.945" y="772.034" style="fill:#000;fill-opacity:1"/><g style="fill:#000;fill-opacity:1"><use xlink:href="#w" x="56.598" y="772.034"/><use xlink:href="#x" x="60.488" y="772.034"/><use xlink:href="#y" x="68.275" y="772.034"/><use xlink:href="#z" x="71.385" y="772.034"/></g><g style="fill:#000;fill-opacity:1"><use xlink:href="#A" x="47.934" y="789.112"/><use xlink:href="#B" x="58.045" y="789.112"/></g><path d="M237.05 579.313H224.81v35.875h.96v-35.395l-.48.484h11.762Zm-14.327 34.593 2.566 7.7 2.566-7.7ZM432.438 676.363v-21.547h-.965v21.547Zm2.085-20.261-2.566-7.704-2.566 7.704ZM356.625 775.84h75.777v-49.617h-.964v49.136l.484-.48h-75.297Zm77.863-48.332-2.566-7.7-2.567 7.7Zm0 0" style="stroke:none;fill-rule:nonzero;fill:#000;fill-opacity:1"/><path d="M398.505 2866.502h956.991V3258.5H398.505Zm0 0" style="fill-rule:nonzero;fill:#d9d9d9;fill-opacity:1;stroke-width:3.4375;stroke-linecap:butt;stroke-linejoin:miter;stroke:#000;stroke-opacity:1;stroke-miterlimit:8" transform="matrix(.28004 0 0 .28003 -22.963 -82.048)"/><path d="M411.505 2886.506h71.992v73.989h-71.992Zm0 0" style="fill-rule:nonzero;fill:#ff0;fill-opacity:1;stroke-width:3.4375;stroke-linecap:butt;stroke-linejoin:miter;stroke:#000;stroke-opacity:1;stroke-miterlimit:8" transform="matrix(.28004 0 0 .28003 -22.963 -82.048)"/><path d="M497.502 2886.506h844.003v73.989H497.502ZM411.505 2979.494h71.992v74.003h-71.992Zm0 0" style="fill-rule:nonzero;fill:#caf297;fill-opacity:1;stroke-width:3.4375;stroke-linecap:butt;stroke-linejoin:miter;stroke:#000;stroke-opacity:1;stroke-miterlimit:8" transform="matrix(.28004 0 0 .28003 -22.963 -82.048)"/><path d="M497.502 2979.494h72.005v74.003h-72.005Zm0 0" style="fill-rule:nonzero;fill:#ff0;fill-opacity:1;stroke-width:3.4375;stroke-linecap:butt;stroke-linejoin:miter;stroke:#000;stroke-opacity:1;stroke-miterlimit:8" transform="matrix(.28004 0 0 .28003 -22.963 -82.048)"/><path d="M583.498 2979.494h758.007v74.003H583.498ZM411.505 3166.502h843.99v74.003h-843.99Zm0 0" style="fill-rule:nonzero;fill:#caf297;fill-opacity:1;stroke-width:3.4375;stroke-linecap:butt;stroke-linejoin:miter;stroke:#000;stroke-opacity:1;stroke-miterlimit:8" transform="matrix(.28004 0 0 .28003 -22.963 -82.048)"/><path d="M1269.5 3166.502h72.005v74.003H1269.5Zm0 0" style="fill-rule:nonzero;fill:#ff0;fill-opacity:1;stroke-width:3.4375;stroke-linecap:butt;stroke-linejoin:miter;stroke:#000;stroke-opacity:1;stroke-miterlimit:8" transform="matrix(.28004 0 0 .28003 -22.963 -82.048)"/><g style="fill:#000;fill-opacity:1"><use xlink:href="#C" x="218.875" y="740.949"/><use xlink:href="#f" x="227.086" y="740.949"/><use xlink:href="#i" x="231.562" y="740.949"/><use xlink:href="#b" x="239.038" y="740.949"/><use xlink:href="#p" x="242.024" y="740.949"/></g><use xlink:href="#D" x="215.695" y="793.594" style="fill:#000;fill-opacity:1"/><path d="m297.418 533.59-.059 18.738.961.004.063-18.742Zm-2.14 17.45 2.542 7.706 2.59-7.691Zm0 0" style="stroke:none;fill-rule:nonzero;fill:#000;fill-opacity:1"/><g style="fill:#000;fill-opacity:1"><use xlink:href="#E" x="403.133" y="583.854"/><use xlink:href="#F" x="414.796" y="583.854"/><use xlink:href="#G" x="422.583" y="583.854"/><use xlink:href="#H" x="430.37" y="583.854"/><use xlink:href="#I" x="438.157" y="583.854"/><use xlink:href="#J" x="446.709" y="583.854"/><use xlink:href="#F" x="452.158" y="583.854"/><use xlink:href="#K" x="459.945" y="583.854"/></g><g style="fill:#000;fill-opacity:1"><use xlink:href="#L" x="389.012" y="600.936"/><use xlink:href="#F" x="397.564" y="600.936"/><use xlink:href="#J" x="405.351" y="600.936"/><use xlink:href="#M" x="410.8" y="600.936"/><use xlink:href="#N" x="415.463" y="600.936"/><use xlink:href="#J" x="424.015" y="600.936"/><use xlink:href="#O" x="429.464" y="600.936"/><use xlink:href="#G" x="441.914" y="600.936"/><use xlink:href="#P" x="449.701" y="600.936"/><use xlink:href="#Q" x="458.253" y="600.936"/><use xlink:href="#F" x="466.04" y="600.936"/></g><g style="fill:#000;fill-opacity:1"><use xlink:href="#X" x="513.613" y="772.034"/><use xlink:href="#Y" x="522.166" y="772.034"/><use xlink:href="#Z" x="529.953" y="772.034"/><use xlink:href="#aa" x="537.74" y="772.034"/><use xlink:href="#ab" x="545.526" y="772.034"/><use xlink:href="#ac" x="549.417" y="772.034"/><use xlink:href="#x" x="561.08" y="772.034"/><use xlink:href="#z" x="568.867" y="772.034"/><use xlink:href="#aa" x="576.654" y="772.034"/><use xlink:href="#y" x="584.441" y="772.034"/><use xlink:href="#ab" x="587.551" y="772.034"/></g><g style="fill:#000;fill-opacity:1"><use xlink:href="#ad" x="515.301" y="789.112"/><use xlink:href="#ae" x="523.088" y="789.112"/><use xlink:href="#af" x="530.875" y="789.112"/><use xlink:href="#ae" x="535.537" y="789.112"/><use xlink:href="#ac" x="543.324" y="789.112"/><use xlink:href="#aa" x="554.987" y="789.112"/><use xlink:href="#ag" x="562.774" y="789.112"/><use xlink:href="#aa" x="566.664" y="789.112"/><use xlink:href="#af" x="574.451" y="789.112"/><use xlink:href="#ah" x="579.114" y="789.112"/></g><g style="fill:#000;fill-opacity:1"><use xlink:href="#ax" x="93.523" y="475.763"/><use xlink:href="#ay" x="104.471" y="475.763"/><use xlink:href="#aq" x="108.453" y="475.763"/><use xlink:href="#al" x="112.435" y="475.763"/><use xlink:href="#ao" x="117.414" y="475.763"/><use xlink:href="#am" x="127.382" y="475.763"/><use xlink:href="#ak" x="133.35" y="475.763"/><use xlink:href="#az" x="138.329" y="475.763"/><use xlink:href="#am" x="148.297" y="475.763"/><use xlink:href="#ay" x="154.265" y="475.763"/><use xlink:href="#aj" x="158.247" y="475.763"/><use xlink:href="#am" x="168.214" y="475.763"/><use xlink:href="#ak" x="174.183" y="475.763"/><use xlink:href="#al" x="179.162" y="475.763"/><use xlink:href="#aj" x="184.141" y="475.763"/><use xlink:href="#ak" x="194.109" y="475.763"/><use xlink:href="#az" x="199.088" y="475.763"/><use xlink:href="#aA" x="209.056" y="475.763"/><use xlink:href="#am" x="219.023" y="475.763"/><use xlink:href="#al" x="224.992" y="475.763"/><use xlink:href="#ay" x="229.971" y="475.763"/><use xlink:href="#al" x="233.953" y="475.763"/><use xlink:href="#ay" x="238.932" y="475.763"/><use xlink:href="#aj" x="242.914" y="475.763"/><use xlink:href="#aB" x="252.881" y="475.763"/></g><g style="fill:#000;fill-opacity:1"><use xlink:href="#aC" x="396.039" y="640.422"/><use xlink:href="#m" x="403.515" y="640.422"/><use xlink:href="#aD" x="407.249" y="640.422"/><use xlink:href="#g" x="414.725" y="640.422"/><use xlink:href="#au" x="418.459" y="640.422"/><use xlink:href="#av" x="425.935" y="640.422"/><use xlink:href="#c" x="433.411" y="640.422"/><use xlink:href="#aw" x="436.397" y="640.422"/><use xlink:href="#g" x="443.873" y="640.422"/><use xlink:href="#av" x="447.607" y="640.422"/><use xlink:href="#j" x="455.083" y="640.422"/><use xlink:href="#d" x="462.559" y="640.422"/></g><g style="fill:#000;fill-opacity:1"><use xlink:href="#aE" x="200.75" y="639.301"/><use xlink:href="#m" x="208.226" y="639.301"/><use xlink:href="#aD" x="211.96" y="639.301"/><use xlink:href="#g" x="219.436" y="639.301"/><use xlink:href="#d" x="223.17" y="639.301"/><use xlink:href="#f" x="226.905" y="639.301"/><use xlink:href="#i" x="231.381" y="639.301"/><use xlink:href="#b" x="238.857" y="639.301"/><use xlink:href="#p" x="241.843" y="639.301"/></g><path d="M416.5 2125.5h1459.005v72.999H416.499Zm0 0" style="fill-rule:nonzero;fill:#8cc9f7;fill-opacity:1;stroke-width:3.4375;stroke-linecap:butt;stroke-linejoin:miter;stroke:#000;stroke-opacity:1;stroke-miterlimit:8" transform="matrix(.28004 0 0 .28003 -22.963 -82.048)"/><g style="fill:#000;fill-opacity:1"><use xlink:href="#at" x="256.551" y="527.848"/><use xlink:href="#au" x="269.238" y="527.848"/><use xlink:href="#av" x="276.713" y="527.848"/><use xlink:href="#c" x="284.189" y="527.848"/><use xlink:href="#e" x="287.175" y="527.848"/><use xlink:href="#g" x="294.651" y="527.848"/><use xlink:href="#aw" x="298.386" y="527.848"/><use xlink:href="#i" x="305.861" y="527.848"/><use xlink:href="#d" x="313.337" y="527.848"/><use xlink:href="#i" x="317.071" y="527.848"/><use xlink:href="#k" x="324.547" y="527.848"/><use xlink:href="#e" x="331.268" y="527.848"/><use xlink:href="#d" x="338.744" y="527.848"/></g><path d="M225.77 667.164v43.875h-.961v-43.875Zm2.085 42.59-2.566 7.703-2.566-7.703Zm0 0" style="stroke:none;fill-rule:nonzero;fill:#000;fill-opacity:1"/><use xlink:href="#aF" x="28.449" y="33.322" style="fill:#000;fill-opacity:1"/><use xlink:href="#aG" x="28.449" y="476.604" style="fill:#000;fill-opacity:1"/><path d="M182.503 473.745c0-8.97 7.268-16.252 16.237-16.252h2078.526c8.97 0 16.237 7.282 16.237 16.252v1247.51c0 8.97-7.267 16.238-16.237 16.238H198.74c-8.97 0-16.237-7.268-16.237-16.237ZM182.503 2061.765c0-8.983 7.282-16.265 16.25-16.265h2078.5c8.969 0 16.25 7.282 16.25 16.265V3310.24c0 8.983-7.281 16.265-16.25 16.265h-2078.5c-8.968 0-16.25-7.282-16.25-16.265Zm0 0" style="fill:none;stroke-width:3.4375;stroke-linecap:butt;stroke-linejoin:miter;stroke:#bfbfbf;stroke-opacity:1;stroke-miterlimit:8" transform="matrix(.28004 0 0 .28003 -22.963 -82.048)"/></svg>