<svg xmlns="http://www.w3.org/2000/svg" xmlns:xlink="http://www.w3.org/1999/xlink" width="620" height="879" viewBox="0 0 620 878"><defs><symbol id="L" overflow="visible"><path d="m8.125-3.469 1.313.328c-.274 1.075-.766 1.899-1.485 2.47-.71.562-1.578.843-2.61.843-1.073 0-1.945-.219-2.609-.656-.668-.438-1.18-1.067-1.53-1.891a6.807 6.807 0 0 1-.516-2.656c0-1.02.195-1.914.593-2.688a4.07 4.07 0 0 1 1.672-1.75 4.969 4.969 0 0 1 2.406-.594c.989 0 1.82.25 2.5.75.676.5 1.145 1.211 1.407 2.126l-1.282.312c-.23-.719-.562-1.242-1-1.578-.437-.332-.992-.5-1.656-.5-.762 0-1.398.183-1.906.547a2.901 2.901 0 0 0-1.078 1.469c-.2.617-.297 1.25-.297 1.906 0 .843.117 1.578.36 2.203.25.625.628 1.094 1.14 1.406.52.313 1.082.469 1.687.469.727 0 1.348-.207 1.86-.625.508-.426.851-1.055 1.031-1.89Zm0 0" style="stroke:none"/></symbol><symbol id="a" overflow="visible"><path d="M3.438 0v-8.375H.312V-9.5h7.532v1.125h-3.14V0Zm0 0" style="stroke:none"/></symbol><symbol id="c" overflow="visible"><path d="m.406-2.047 1.156-.187c.063.46.239.812.532 1.062.3.25.719.375 1.25.375.539 0 .937-.11 1.187-.328.258-.219.39-.473.39-.766a.708.708 0 0 0-.343-.625c-.156-.101-.555-.238-1.187-.406-.856-.207-1.45-.39-1.782-.547-.336-.164-.586-.383-.75-.656a1.757 1.757 0 0 1-.25-.922c0-.312.067-.598.204-.86.144-.257.335-.476.578-.655.175-.125.421-.235.734-.329.313-.093.648-.14 1.016-.14.539 0 1.015.078 1.421.234.407.156.708.371.907.64.195.262.332.61.406 1.048l-1.14.156c-.055-.352-.204-.629-.454-.828-.25-.196-.605-.297-1.062-.297-.531 0-.914.09-1.14.266-.231.18-.345.386-.345.625 0 .148.047.28.141.406.094.125.242.23.453.312.113.043.457.14 1.031.297.82.219 1.395.402 1.72.547.331.137.585.34.765.61.187.273.281.605.281 1 0 .386-.117.75-.344 1.093-.218.344-.547.61-.984.797-.43.188-.906.281-1.438.281-.898 0-1.578-.18-2.046-.547-.47-.375-.774-.925-.907-1.656Zm0 0" style="stroke:none"/></symbol><symbol id="d" overflow="visible"><path d="m3.422-1.047.172 1.031c-.336.07-.633.11-.89.11-.419 0-.747-.07-.985-.203a1.113 1.113 0 0 1-.485-.532c-.093-.218-.14-.675-.14-1.375v-3.953h-.86v-.906h.86v-1.703l1.156-.703v2.406h1.172v.906H2.25v4.016c0 .336.02.547.063.64a.53.53 0 0 0 .203.235c.093.055.222.078.39.078.133 0 .305-.016.516-.047Zm0 0" style="stroke:none"/></symbol><symbol id="e" overflow="visible"><path d="M.86 0v-6.875h1.046v1.031c.27-.476.52-.797.75-.953.227-.156.477-.234.75-.234.395 0 .797.125 1.203.375l-.406 1.078a1.7 1.7 0 0 0-.86-.25c-.25 0-.48.078-.687.234-.199.149-.344.356-.437.625a4.777 4.777 0 0 0-.188 1.375V0Zm0 0" style="stroke:none"/></symbol><symbol id="f" overflow="visible"><path d="M5.375-.844c-.438.367-.86.625-1.266.781a3.724 3.724 0 0 1-1.28.22c-.75 0-1.329-.18-1.735-.548-.407-.375-.61-.847-.61-1.421 0-.333.07-.641.22-.922.155-.282.359-.504.609-.672.25-.164.53-.297.843-.39.227-.052.57-.11 1.031-.173.946-.101 1.641-.234 2.079-.39.007-.164.015-.27.015-.313 0-.469-.11-.8-.328-1-.305-.258-.746-.39-1.328-.39-.555 0-.96.093-1.219.28-.261.188-.453.528-.578 1.016l-1.14-.156c.101-.476.269-.867.5-1.172.238-.3.582-.531 1.03-.687a4.6 4.6 0 0 1 1.563-.25c.594 0 1.07.07 1.438.203.363.137.633.312.812.531.176.211.297.469.36.781.039.2.062.559.062 1.079v1.562c0 1.086.024 1.773.078 2.063.051.28.149.554.297.812H5.61a2.271 2.271 0 0 1-.234-.844Zm-.11-2.61c-.417.18-1.054.325-1.906.438-.48.075-.82.153-1.015.235-.2.086-.356.21-.469.375a1.035 1.035 0 0 0-.156.562c0 .313.117.574.36.782.237.199.581.296 1.03.296.446 0 .848-.093 1.204-.28.351-.196.609-.47.765-.813.125-.258.188-.649.188-1.172Zm0 0" style="stroke:none"/></symbol><symbol id="g" overflow="visible"><path d="M.875-8.156V-9.5h1.172v1.344ZM.875 0v-6.875h1.172V0Zm0 0" style="stroke:none"/></symbol><symbol id="h" overflow="visible"><path d="M.875 0v-6.875h1.047v.969c.508-.75 1.242-1.125 2.203-1.125.406 0 .781.074 1.125.218.352.149.613.344.781.594.176.242.301.528.375.86.04.21.063.586.063 1.125V0H5.312v-4.188c0-.468-.046-.82-.14-1.062a1.132 1.132 0 0 0-.484-.563c-.231-.144-.5-.218-.813-.218-.5 0-.934.164-1.297.484-.355.313-.531.914-.531 1.797V0Zm0 0" style="stroke:none"/></symbol><symbol id="m" overflow="visible"><path d="M1.094 0v-9.5H7.5v1.125H2.344v2.938h4.469v1.125h-4.47V0Zm0 0" style="stroke:none"/></symbol><symbol id="n" overflow="visible"><path d="M.844 0v-9.5h1.172V0Zm0 0" style="stroke:none"/></symbol><symbol id="p" overflow="visible"><path d="M1.156 0v-5.969H.125v-.906h1.031v-.734c0-.457.04-.801.125-1.032.114-.3.313-.546.594-.734.281-.188.676-.281 1.188-.281.32 0 .687.039 1.093.11L3.97-8.532a4.322 4.322 0 0 0-.688-.063c-.355 0-.605.078-.75.235-.148.148-.219.43-.219.843v.641h1.344v.906H2.312V0Zm0 0" style="stroke:none"/></symbol><symbol id="q" overflow="visible"><path d="M5.39 0v-1.016C4.849-.234 4.118.156 3.204.156c-.406 0-.789-.078-1.14-.234-.356-.156-.618-.348-.782-.578a2.307 2.307 0 0 1-.36-.875C.868-1.758.845-2.117.845-2.61v-4.266h1.172v3.813c0 .605.023 1.015.078 1.234.07.305.222.543.453.719.238.18.535.265.89.265a1.9 1.9 0 0 0 .985-.265c.312-.188.531-.43.656-.735.125-.312.188-.758.188-1.343v-3.688h1.171V0Zm0 0" style="stroke:none"/></symbol><symbol id="r" overflow="visible"><path d="M3.328-1.531v-2.61H.734v-1.093h2.594v-2.579h1.094v2.579h2.594v1.093H4.422v2.61Zm0 0" style="stroke:none"/></symbol><symbol id="s" overflow="visible"><path d="m0 .156 2.75-9.812h.938L.938.156Zm0 0" style="stroke:none"/></symbol><symbol id="t" overflow="visible"><path d="M.422-2.844v-1.172H4v1.172Zm0 0" style="stroke:none"/></symbol><symbol id="u" overflow="visible"><path d="M1.953 0H.875v-9.5h1.156v3.39c.5-.613 1.13-.921 1.89-.921.427 0 .829.09 1.204.265.375.168.68.407.922.72.25.304.441.671.578 1.109.145.437.219.902.219 1.39 0 1.18-.293 2.09-.875 2.735-.586.648-1.29.968-2.11.968-.812 0-1.449-.336-1.906-1.015Zm-.016-3.484c0 .824.114 1.418.344 1.78.364.606.86.907 1.485.907.507 0 .945-.219 1.312-.656.375-.445.563-1.113.563-2 0-.895-.18-1.555-.532-1.985-.355-.425-.789-.64-1.296-.64-.512 0-.954.226-1.329.672-.367.437-.546 1.078-.546 1.922Zm0 0" style="stroke:none"/></symbol><symbol id="v" overflow="visible"><path d="m5.375-2.516 1.14.141c-.124.793-.449 1.414-.968 1.86-.512.449-1.14.671-1.89.671-.95 0-1.712-.304-2.282-.922-.574-.613-.86-1.492-.86-2.64 0-.75.126-1.399.376-1.953.25-.563.625-.977 1.125-1.25a3.29 3.29 0 0 1 1.64-.422c.75 0 1.36.187 1.828.562.477.375.786.914.922 1.61l-1.14.171c-.106-.457-.297-.8-.579-1.03a1.45 1.45 0 0 0-.984-.36c-.586 0-1.062.215-1.437.64-.368.418-.547 1.079-.547 1.985 0 .93.176 1.605.531 2.031.352.418.816.625 1.39.625.458 0 .837-.14 1.141-.422.313-.281.508-.71.594-1.297Zm0 0" style="stroke:none"/></symbol><symbol id="w" overflow="visible"><path d="M.875 0v-6.875h1.047v.969a2.38 2.38 0 0 1 .86-.813C3.144-6.926 3.55-7.03 4-7.03c.508 0 .926.105 1.25.312a1.7 1.7 0 0 1 .703.89c.54-.8 1.25-1.202 2.125-1.202.688 0 1.211.187 1.578.562.364.375.547.961.547 1.75V0H9.047v-4.328c0-.469-.043-.8-.125-1a.977.977 0 0 0-.406-.5c-.2-.133-.43-.203-.688-.203-.492 0-.898.164-1.219.484-.312.324-.468.84-.468 1.547v4H4.969v-4.469c0-.52-.102-.91-.297-1.172-.188-.257-.496-.39-.922-.39-.336 0-.64.09-.922.265-.273.18-.469.434-.594.766-.125.324-.187.805-.187 1.438V0Zm0 0" style="stroke:none"/></symbol><symbol id="x" overflow="visible"><path d="M.875 2.64v-9.515h1.063v.89c.25-.35.53-.613.843-.78.32-.176.707-.266 1.156-.266.583 0 1.098.152 1.547.453.457.305.801.73 1.032 1.281a4.74 4.74 0 0 1 .343 1.813c0 .699-.132 1.328-.39 1.89-.25.563-.617.996-1.094 1.297-.48.3-.984.453-1.516.453a2.245 2.245 0 0 1-1.812-.875v3.36Zm1.063-6.046c0 .886.175 1.543.53 1.969.364.43.802.64 1.313.64.508 0 .946-.219 1.313-.656.375-.445.562-1.129.562-2.047 0-.875-.183-1.531-.547-1.969-.355-.437-.78-.656-1.28-.656s-.946.234-1.329.703c-.375.461-.563 1.133-.563 2.016Zm0 0" style="stroke:none"/></symbol><symbol id="y" overflow="visible"><path d="M5.344 0v-.875C4.906-.187 4.266.156 3.422.156a2.698 2.698 0 0 1-1.516-.453c-.46-.3-.82-.723-1.078-1.266-.25-.539-.375-1.164-.375-1.875 0-.687.113-1.304.344-1.859.226-.562.57-.988 1.031-1.281a2.73 2.73 0 0 1 1.531-.453c.414 0 .786.09 1.11.265.332.168.597.391.797.672V-9.5h1.156V0ZM1.656-3.438c0 .887.18 1.547.547 1.985.375.437.817.656 1.328.656.508 0 .942-.207 1.297-.625.352-.414.531-1.05.531-1.906 0-.945-.183-1.64-.546-2.078-.356-.438-.805-.657-1.344-.657-.512 0-.946.215-1.297.641-.344.418-.516 1.078-.516 1.984Zm0 0" style="stroke:none"/></symbol><symbol id="z" overflow="visible"><path d="M.438-3.438c0-1.269.351-2.21 1.062-2.828.594-.507 1.316-.765 2.172-.765.945 0 1.719.312 2.312.937.602.617.907 1.469.907 2.563 0 .886-.137 1.586-.407 2.094-.261.5-.648.89-1.156 1.171-.5.282-1.055.422-1.656.422-.969 0-1.75-.304-2.344-.922C.734-1.39.438-2.28.438-3.437Zm1.203 0c0 .876.191 1.54.578 1.985.383.437.867.656 1.453.656a1.81 1.81 0 0 0 1.437-.656c.383-.445.579-1.125.579-2.031 0-.844-.196-1.485-.579-1.922a1.844 1.844 0 0 0-1.437-.657c-.586 0-1.07.22-1.453.657-.387.43-.578 1.086-.578 1.968Zm0 0" style="stroke:none"/></symbol><symbol id="R" overflow="visible"><path d="M1.547 0v-1.328h1.328V0Zm4.437 0v-1.328h1.329V0Zm4.422 0v-1.328h1.328V0Zm0 0" style="stroke:none"/></symbol><symbol id="aD" overflow="visible"><path d="M4.953 0H3.781v-7.422a6.44 6.44 0 0 1-1.11.797 7.12 7.12 0 0 1-1.218.594v-1.125a7 7 0 0 0 1.703-1.11c.489-.437.836-.859 1.047-1.265h.75Zm0 0" style="stroke:none"/></symbol><symbol id="aE" overflow="visible"><path d="m.563-2.5 1.156-.156c.133.656.363 1.133.687 1.422.32.293.719.437 1.188.437.539 0 1-.187 1.375-.562.383-.383.578-.86.578-1.422 0-.531-.18-.969-.531-1.313-.344-.351-.79-.531-1.329-.531-.218 0-.496.043-.828.125l.125-1.016c.082.012.145.016.188.016.5 0 .945-.129 1.344-.39.394-.258.593-.66.593-1.204 0-.426-.148-.781-.437-1.062-.281-.281-.652-.422-1.11-.422-.46 0-.84.148-1.14.437-.305.282-.496.711-.578 1.282L.672-7.08c.144-.78.469-1.382.969-1.812.507-.425 1.14-.64 1.89-.64.52 0 1 .11 1.438.328.437.219.77.523 1 .906.226.387.343.797.343 1.235 0 .406-.109.78-.328 1.125-.218.335-.546.601-.984.796.563.125 1 .399 1.313.813.312.406.468.914.468 1.516 0 .835-.304 1.542-.906 2.124-.605.575-1.371.86-2.297.86-.836 0-1.527-.25-2.078-.75-.555-.5-.867-1.14-.938-1.922Zm0 0" style="stroke:none"/></symbol><symbol id="aF" overflow="visible"><path d="M.875 0v-9.5h1.172v3.406c.539-.625 1.226-.937 2.062-.937.508 0 .954.101 1.329.297.375.199.64.476.796.828.164.355.25.87.25 1.547V0H5.313v-4.36c0-.581-.125-1.003-.375-1.265-.25-.27-.61-.406-1.079-.406-.343 0-.668.09-.968.265-.305.18-.524.422-.657.735-.125.304-.187.726-.187 1.265V0Zm0 0" style="stroke:none"/></symbol><symbol id="aG" overflow="visible"><path d="M6.688-1.125V0H.405C.395-.281.437-.55.531-.813c.164-.425.422-.843.766-1.25.351-.414.863-.898 1.531-1.453 1.04-.843 1.738-1.507 2.094-2 .363-.5.547-.968.547-1.406 0-.469-.168-.86-.5-1.172-.324-.312-.75-.469-1.282-.469-.562 0-1.015.168-1.359.5-.336.336-.5.797-.5 1.391l-1.203-.11c.082-.894.39-1.577.922-2.046.539-.469 1.258-.703 2.156-.703.914 0 1.64.258 2.172.765.531.5.797 1.125.797 1.875 0 .375-.078.746-.234 1.11-.157.367-.418.75-.782 1.156-.355.406-.953.965-1.797 1.672-.699.594-1.148.996-1.343 1.203-.2.21-.368.418-.5.625Zm0 0" style="stroke:none"/></symbol><symbol id="i" overflow="visible"><path d="M2.656 0v-6.469H.234v-.86h5.813v.86H3.625V0Zm0 0" style="stroke:none"/></symbol><symbol id="j" overflow="visible"><path d="m4.313-1.703.921.11c-.148.542-.418.964-.812 1.265-.399.305-.902.453-1.516.453-.781 0-1.402-.238-1.86-.719C.599-1.07.376-1.742.376-2.609c0-.895.227-1.586.688-2.079.457-.488 1.054-.734 1.796-.734.707 0 1.286.242 1.735.719.445.48.672 1.164.672 2.047v.234h-3.97c.04.586.208 1.031.5 1.344.302.305.673.453 1.11.453.332 0 .614-.082.844-.25.238-.176.426-.453.563-.828ZM1.358-3.156h2.954c-.043-.446-.153-.785-.329-1.016a1.412 1.412 0 0 0-1.125-.516c-.406 0-.75.141-1.03.422-.282.274-.438.641-.47 1.11Zm0 0" style="stroke:none"/></symbol><symbol id="k" overflow="visible"><path d="m.313-1.578.89-.14c.05.355.192.624.422.812.227.187.547.281.953.281.414 0 .723-.082.922-.25.195-.164.297-.363.297-.594a.541.541 0 0 0-.266-.468c-.125-.083-.433-.188-.922-.313-.656-.164-1.117-.305-1.375-.422a1.379 1.379 0 0 1-.578-.515 1.394 1.394 0 0 1-.187-.704c0-.238.05-.457.156-.656.113-.207.258-.379.438-.516.144-.101.335-.187.578-.25.238-.07.5-.109.78-.109.415 0 .782.063 1.095.188.312.117.539.277.687.484.156.2.258.469.313.813l-.875.124c-.043-.28-.157-.492-.344-.64-.188-.156-.461-.234-.813-.234-.418 0-.714.07-.89.203-.18.136-.266.296-.266.484 0 .117.035.219.11.313.07.093.187.171.343.234.094.043.36.121.797.234.633.168 1.078.309 1.328.422.258.106.457.262.594.469.145.21.219.465.219.765 0 .305-.09.59-.266.86-.168.262-.418.465-.75.61a2.82 2.82 0 0 1-1.125.218C1.891.125 1.363-.015 1-.297.645-.586.414-1.016.312-1.578Zm0 0" style="stroke:none"/></symbol><symbol id="l" overflow="visible"><path d="m2.64-.797.126.781a3.45 3.45 0 0 1-.672.079c-.336 0-.59-.047-.766-.141a.835.835 0 0 1-.375-.406C.88-.66.843-1.016.843-1.547v-3.062H.189v-.704h.656v-1.312l.89-.531v1.843h.907v.704h-.907V-1.5c0 .25.016.414.047.484a.422.422 0 0 0 .157.188c.07.043.175.062.312.062.094 0 .223-.007.39-.03Zm0 0" style="stroke:none"/></symbol><symbol id="A" overflow="visible"><path d="m.578-2.594 1.266-.11c.093.626.312 1.095.656 1.407.352.313.77.469 1.25.469.582 0 1.078-.219 1.484-.656.407-.446.61-1.036.61-1.766 0-.688-.2-1.227-.594-1.625-.387-.406-.89-.61-1.516-.61-.398 0-.75.09-1.062.266-.313.18-.559.407-.735.688l-1.14-.14.953-5.095h4.922v1.157H2.719l-.531 2.671c.593-.414 1.218-.625 1.874-.625.864 0 1.594.305 2.188.907.594.593.89 1.36.89 2.297 0 .898-.261 1.671-.78 2.328C5.722-.227 4.851.172 3.75.172c-.898 0-1.633-.25-2.203-.75C.984-1.086.66-1.758.578-2.594Zm0 0" style="stroke:none"/></symbol><symbol id="B" overflow="visible"><path d="M.438-2.969v-1.219h3.734v1.22Zm0 0" style="stroke:none"/></symbol><symbol id="C" overflow="visible"><path d="M1.203 0v-6.219H.125v-.953h1.078v-.766c0-.476.04-.832.125-1.062.113-.32.317-.578.61-.766.3-.195.718-.296 1.25-.296.343 0 .722.039 1.14.109l-.187 1.062a4.707 4.707 0 0 0-.72-.062c-.366 0-.624.078-.78.234-.157.156-.235.453-.235.89v.657h1.406v.953H2.407V0Zm0 0" style="stroke:none"/></symbol><symbol id="D" overflow="visible"><path d="M.453-3.578c0-1.332.367-2.317 1.11-2.953.613-.532 1.367-.797 2.265-.797.977 0 1.781.324 2.406.969.625.648.938 1.539.938 2.671 0 .93-.14 1.657-.422 2.188-.273.523-.672.93-1.203 1.219a3.492 3.492 0 0 1-1.719.437C2.816.156 2-.16 1.375-.797.758-1.44.453-2.367.453-3.578Zm1.25 0c0 .918.195 1.605.594 2.062.406.45.914.672 1.531.672.594 0 1.086-.226 1.485-.687.406-.457.609-1.157.609-2.094 0-.883-.203-1.555-.61-2.016-.398-.457-.89-.687-1.484-.687a1.96 1.96 0 0 0-1.531.687c-.399.45-.594 1.137-.594 2.063Zm0 0" style="stroke:none"/></symbol><symbol id="E" overflow="visible"><path d="M.89 0v-9.906h1.204V0Zm0 0" style="stroke:none"/></symbol><symbol id="F" overflow="visible"><path d="M5.563 0v-.906c-.461.71-1.125 1.062-2 1.062a2.82 2.82 0 0 1-1.579-.469A3.144 3.144 0 0 1 .86-1.625C.598-2.195.47-2.848.47-3.578c0-.719.117-1.367.36-1.953.237-.582.597-1.024 1.077-1.328A2.844 2.844 0 0 1 3.5-7.33c.438 0 .82.095 1.156.282.344.18.617.414.828.703v-3.562h1.204V0ZM1.719-3.578c0 .918.191 1.605.578 2.062.394.45.851.672 1.375.672.531 0 .976-.21 1.344-.64.375-.438.562-1.102.562-2 0-.977-.187-1.696-.562-2.157-.375-.457-.84-.687-1.391-.687-.543 0-.996.226-1.36.672-.367.437-.546 1.133-.546 2.078Zm0 0" style="stroke:none"/></symbol><symbol id="G" overflow="visible"><path d="M5.61 0v-1.047C5.054-.242 4.296.156 3.327.156c-.418 0-.812-.078-1.187-.234-.368-.164-.637-.367-.813-.61a2.29 2.29 0 0 1-.375-.906C.91-1.832.891-2.21.891-2.734v-4.438h1.203v3.984c0 .637.023 1.063.078 1.282.07.312.234.562.484.75.25.18.555.265.922.265.363 0 .703-.086 1.016-.265.32-.188.55-.442.687-.766.133-.32.203-.789.203-1.406v-3.844h1.22V0Zm0 0" style="stroke:none"/></symbol><symbol id="H" overflow="visible"><path d="m3.563-1.094.171 1.078c-.336.07-.636.11-.906.11-.45 0-.793-.07-1.031-.203a1.256 1.256 0 0 1-.516-.547c-.093-.227-.14-.707-.14-1.438v-4.125H.25v-.953h.89v-1.781l1.204-.719v2.5h1.219v.953h-1.22v4.188c0 .344.02.57.063.672a.53.53 0 0 0 .203.234c.102.055.243.078.422.078.133 0 .313-.016.531-.047Zm0 0" style="stroke:none"/></symbol><symbol id="I" overflow="visible"><path d="m5.813-2.313 1.265.157c-.2.742-.57 1.312-1.11 1.719-.53.398-1.214.593-2.046.593-1.055 0-1.887-.32-2.5-.969C.805-1.457.5-2.362.5-3.53c0-1.196.313-2.13.938-2.797.625-.664 1.43-1 2.421-1 .957 0 1.739.328 2.344.984.602.649.906 1.563.906 2.75v.313H1.766c.039.793.257 1.398.656 1.812.406.418.906.625 1.5.625.445 0 .828-.113 1.14-.344.32-.238.57-.613.75-1.125ZM1.828-4.28h4c-.055-.594-.203-1.04-.453-1.344a1.855 1.855 0 0 0-1.5-.703c-.563 0-1.04.187-1.422.562-.375.368-.586.86-.625 1.485Zm0 0" style="stroke:none"/></symbol><symbol id="J" overflow="visible"><path d="M.89 0v-7.172h1.094v1.094c.282-.508.54-.844.782-1 .238-.164.5-.25.78-.25.407 0 .821.133 1.25.39l-.421 1.125c-.305-.175-.602-.265-.89-.265-.274 0-.512.086-.72.25-.21.156-.359.375-.453.656-.136.43-.203.902-.203 1.422V0Zm0 0" style="stroke:none"/></symbol><symbol id="b" overflow="visible"><path d="m5.594-2.219 1.203.156c-.188.7-.543 1.247-1.063 1.641-.511.387-1.168.578-1.968.578-1.012 0-1.813-.304-2.407-.922C.773-1.39.484-2.258.484-3.375c0-1.156.297-2.05.891-2.688.602-.644 1.379-.968 2.328-.968.914 0 1.664.312 2.25.937.582.625.875 1.508.875 2.64v.313h-5.14c.039.75.253 1.329.64 1.735.383.406.867.61 1.453.61.426 0 .79-.114 1.094-.345.3-.226.54-.586.719-1.078ZM1.75-4.094h3.86c-.055-.582-.204-1.02-.454-1.312a1.774 1.774 0 0 0-1.437-.672c-.543 0-.996.183-1.36.547-.367.355-.57.836-.609 1.437Zm0 0" style="stroke:none"/></symbol><symbol id="M" overflow="visible"><path d="M3.89 0 .063-9.906h1.422l2.563 7.203c.207.574.383 1.11.531 1.61.145-.532.32-1.067.531-1.61l2.672-7.203H9.11L5.234 0Zm0 0" style="stroke:none"/></symbol><symbol id="N" overflow="visible"><path d="M5.156 0H3.938v-7.75c-.293.281-.68.563-1.157.844a7.054 7.054 0 0 1-1.281.625v-1.172A7.184 7.184 0 0 0 3.281-8.61c.508-.457.875-.899 1.094-1.329h.781Zm0 0" style="stroke:none"/></symbol><symbol id="O" overflow="visible"><path d="M.578-4.875c0-1.176.117-2.117.36-2.828.238-.719.593-1.27 1.062-1.656.477-.383 1.078-.579 1.797-.579.531 0 .992.11 1.39.329.407.21.739.515 1 .921.258.399.461.887.61 1.47.156.573.234 1.355.234 2.343 0 1.156-.12 2.094-.36 2.813-.241.71-.6 1.261-1.077 1.656-.469.386-1.07.578-1.797.578-.95 0-1.7-.344-2.25-1.031C.898-1.68.578-3.02.578-4.875Zm1.25 0c0 1.625.188 2.71.563 3.25.382.531.851.797 1.406.797.562 0 1.031-.27 1.406-.813.383-.539.578-1.617.578-3.234 0-1.633-.195-2.719-.578-3.25-.375-.54-.851-.813-1.422-.813-.554 0-.996.243-1.328.72-.418.605-.625 1.718-.625 3.343Zm0 0" style="stroke:none"/></symbol><symbol id="P" overflow="visible"><path d="M.922-8.5v-1.406H2.14V-8.5Zm0 8.5v-7.172H2.14V0Zm0 0" style="stroke:none"/></symbol><symbol id="Q" overflow="visible"><path d="M.906 0v-7.172H2v1.016c.531-.782 1.29-1.172 2.281-1.172.438 0 .832.078 1.188.234.363.157.633.36.812.61.188.25.317.546.39.89.04.23.063.625.063 1.188V0H5.516v-4.36c0-.5-.047-.867-.141-1.109a1.174 1.174 0 0 0-.5-.593 1.616 1.616 0 0 0-.844-.22c-.523 0-.968.169-1.343.5-.376.325-.563.946-.563 1.86V0Zm0 0" style="stroke:none"/></symbol><symbol id="af" overflow="visible"><path d="M3.578 0v-8.734H.328v-1.172h7.844v1.172H4.89V0Zm0 0" style="stroke:none"/></symbol><symbol id="ag" overflow="visible"><path d="M.906 0v-7.172H2v1A2.59 2.59 0 0 1 2.89-7c.376-.219.801-.328 1.282-.328.531 0 .96.11 1.297.328.343.219.586.527.734.922.563-.832 1.297-1.25 2.203-1.25.719 0 1.266.2 1.64.594.384.386.579.992.579 1.812V0H9.422v-4.516c0-.488-.043-.836-.125-1.046a.943.943 0 0 0-.422-.516 1.345 1.345 0 0 0-.734-.203c-.5 0-.918.172-1.25.515-.336.336-.5.868-.5 1.594V0H5.17v-4.656c0-.54-.1-.946-.296-1.219-.2-.27-.523-.406-.969-.406-.344 0-.664.093-.953.281-.293.18-.508.438-.64.781-.126.344-.188.844-.188 1.5V0Zm0 0" style="stroke:none"/></symbol><symbol id="ah" overflow="visible"><path d="M.906 2.75v-9.922h1.11v.938c.257-.364.55-.633.875-.813.332-.187.734-.281 1.203-.281.613 0 1.156.156 1.625.469.468.312.82.757 1.062 1.328.239.574.36 1.203.36 1.89 0 .743-.137 1.403-.407 1.985-.261.586-.64 1.031-1.14 1.343-.5.313-1.028.47-1.578.47-.407 0-.774-.087-1.094-.25a2.264 2.264 0 0 1-.797-.657v3.5Zm1.11-6.297c0 .93.187 1.61.562 2.047.375.438.82.656 1.344.656.539 0 1.004-.222 1.39-.672.383-.457.579-1.164.579-2.125 0-.914-.188-1.597-.563-2.046-.375-.458-.824-.688-1.344-.688-.523 0-.98.246-1.375.734-.398.48-.593 1.18-.593 2.094Zm0 0" style="stroke:none"/></symbol><symbol id="ai" overflow="visible"><path d="M5.594-.89c-.45.386-.883.656-1.297.812a3.812 3.812 0 0 1-1.344.234c-.793 0-1.402-.191-1.828-.578C.707-.805.5-1.297.5-1.89c0-.351.078-.671.234-.953a2.18 2.18 0 0 1 .625-.703c.258-.176.551-.312.875-.406.239-.063.602-.117 1.094-.172.977-.125 1.695-.266 2.156-.422.008-.164.016-.273.016-.328 0-.488-.117-.836-.344-1.047-.312-.27-.777-.406-1.39-.406-.575 0-.996.105-1.266.312-.273.2-.477.547-.61 1.047L.704-5.125c.113-.508.29-.922.531-1.234.25-.313.61-.551 1.079-.72.468-.163 1.007-.25 1.624-.25.614 0 1.114.075 1.5.22.383.136.665.312.844.53a2 2 0 0 1 .375.829c.04.21.063.586.063 1.125V-3c0 1.125.023 1.84.078 2.14.05.305.156.59.312.86H5.83a2.483 2.483 0 0 1-.235-.89Zm-.11-2.704c-.437.18-1.101.328-1.984.453-.5.075-.855.157-1.063.25-.199.086-.355.215-.468.391-.117.18-.172.371-.172.578 0 .324.117.594.36.813.25.21.609.312 1.077.312a2.57 2.57 0 0 0 1.25-.297c.364-.207.633-.488.813-.843.125-.27.187-.676.187-1.22Zm0 0" style="stroke:none"/></symbol><symbol id="aj" overflow="visible"><path d="m.422-2.14 1.203-.188c.07.48.258.851.563 1.11.312.25.742.374 1.296.374.563 0 .973-.11 1.235-.328.27-.226.406-.5.406-.812a.743.743 0 0 0-.344-.641c-.168-.102-.586-.238-1.25-.406-.898-.227-1.515-.426-1.86-.594a1.819 1.819 0 0 1-.78-.672 1.798 1.798 0 0 1-.266-.969c0-.32.07-.617.219-.89a1.96 1.96 0 0 1 .594-.672c.195-.145.457-.266.78-.36.321-.093.673-.14 1.048-.14.562 0 1.054.086 1.484.25.426.156.738.375.938.656.207.274.347.637.421 1.094l-1.187.172c-.055-.375-.211-.66-.469-.86-.262-.207-.625-.312-1.094-.312-.562 0-.964.094-1.203.281-.242.18-.36.39-.36.64 0 .157.052.298.157.423.094.136.25.246.469.328.113.043.469.148 1.062.312.864.23 1.461.418 1.797.563.344.148.61.36.797.64.195.274.297.618.297 1.032 0 .406-.121.793-.36 1.156-.23.355-.57.633-1.015.828-.45.188-.953.281-1.516.281-.93 0-1.636-.191-2.125-.578C.867-.805.555-1.379.422-2.14Zm0 0" style="stroke:none"/></symbol><symbol id="S" overflow="visible"><path d="M.984 0v-9.906H3.97l1.797 6.765 1.78-6.765h3V0H8.689v-7.797L6.718 0H4.798L2.828-7.797V0Zm0 0" style="stroke:none"/></symbol><symbol id="T" overflow="visible"><path d="m5.14-2.281 1.891.312c-.242.7-.625 1.23-1.156 1.594-.523.355-1.172.531-1.953.531-1.25 0-2.18-.406-2.781-1.218C.67-1.72.437-2.54.437-3.533c0-1.187.305-2.113.922-2.78.625-.676 1.414-1.016 2.375-1.016 1.063 0 1.899.355 2.516 1.062.613.7.91 1.778.89 3.235H2.39c.008.562.16 1 .454 1.312.289.313.656.469 1.094.469.289 0 .535-.078.734-.234.207-.164.363-.43.469-.797Zm.11-1.922c-.012-.55-.152-.969-.422-1.25a1.324 1.324 0 0 0-.984-.422c-.418 0-.762.152-1.031.453-.274.305-.403.711-.391 1.219Zm0 0" style="stroke:none"/></symbol><symbol id="U" overflow="visible"><path d="M2.406-4.984.687-5.297c.196-.687.532-1.195 1-1.531.47-.332 1.172-.5 2.11-.5.844 0 1.473.101 1.89.297.415.199.708.453.875.765.165.305.25.868.25 1.688L6.798-2.36c0 .636.023 1.105.078 1.406.063.293.176.61.344.953H5.344a3.879 3.879 0 0 1-.172-.563 1.015 1.015 0 0 0-.078-.218 3.382 3.382 0 0 1-1.047.703 2.962 2.962 0 0 1-1.172.234c-.742 0-1.324-.195-1.75-.594C.707-.844.5-1.348.5-1.952c0-.406.094-.766.281-1.078a1.92 1.92 0 0 1 .813-.735c.351-.175.86-.328 1.515-.453.883-.164 1.5-.316 1.844-.453v-.203c0-.363-.094-.617-.281-.766-.18-.156-.516-.234-1.016-.234-.336 0-.594.07-.781.203-.188.125-.344.356-.469.688Zm2.547 1.546c-.25.075-.64.168-1.172.282-.523.117-.86.226-1.015.328-.25.18-.375.402-.375.672 0 .273.097.508.296.703.196.187.446.281.75.281.344 0 .672-.113.985-.344.226-.164.379-.375.453-.625.05-.164.078-.472.078-.921Zm0 0" style="stroke:none"/></symbol><symbol id="V" overflow="visible"><path d="m.328-2.047 1.906-.297c.07.375.235.664.485.86.25.187.597.28 1.047.28.488 0 .859-.093 1.109-.28a.597.597 0 0 0 .25-.5.489.489 0 0 0-.14-.36c-.094-.094-.31-.176-.641-.25-1.532-.332-2.5-.64-2.907-.922-.562-.382-.843-.921-.843-1.609 0-.625.242-1.145.734-1.563.488-.425 1.25-.64 2.281-.64.977 0 1.707.164 2.188.484.476.313.805.782.984 1.407l-1.797.328a1.068 1.068 0 0 0-.437-.625c-.211-.157-.512-.235-.906-.235-.5 0-.86.07-1.079.203-.148.106-.218.235-.218.391 0 .137.062.25.187.344.176.125.77.304 1.781.531 1.008.23 1.711.512 2.11.844.394.344.594.82.594 1.422 0 .656-.278 1.218-.829 1.687-.542.469-1.351.703-2.421.703-.98 0-1.758-.195-2.329-.594A2.742 2.742 0 0 1 .329-2.046Zm0 0" style="stroke:none"/></symbol><symbol id="W" overflow="visible"><path d="M5.719 0v-1.078a2.723 2.723 0 0 1-1.032.906c-.43.219-.882.328-1.359.328-.48 0-.914-.105-1.297-.312a1.888 1.888 0 0 1-.828-.89c-.168-.384-.25-.915-.25-1.595v-4.53h1.89v3.296c0 1.012.036 1.633.11 1.86.07.218.195.398.375.53.188.137.422.204.703.204.332 0 .625-.086.875-.266.258-.176.438-.394.532-.656.093-.27.14-.914.14-1.938v-3.03h1.89V0Zm0 0" style="stroke:none"/></symbol><symbol id="X" overflow="visible"><path d="M2.813 0H.905v-7.172h1.766v1.016c.3-.477.57-.79.812-.938.239-.156.516-.234.829-.234.425 0 .843.121 1.25.36l-.594 1.64c-.324-.195-.621-.297-.89-.297-.263 0-.485.074-.673.219-.187.148-.336.414-.437.797-.106.375-.156 1.171-.156 2.39Zm0 0" style="stroke:none"/></symbol><symbol id="Z" overflow="visible"><path d="M.938-7.172h1.765v1.047c.227-.352.54-.64.938-.86a2.565 2.565 0 0 1 1.296-.343c.833 0 1.54.328 2.125.984.583.649.875 1.555.875 2.719 0 1.2-.296 2.133-.89 2.797-.586.656-1.293.984-2.125.984-.399 0-.758-.078-1.078-.234-.313-.156-.653-.426-1.016-.813v3.625H.938Zm1.875 3.469c0 .805.16 1.398.484 1.781.32.387.71.578 1.172.578.437 0 .8-.176 1.093-.531.29-.352.438-.93.438-1.734 0-.75-.152-1.305-.453-1.672-.305-.364-.68-.547-1.125-.547-.461 0-.844.18-1.156.531-.305.356-.454.887-.454 1.594Zm0 0" style="stroke:none"/></symbol><symbol id="aa" overflow="visible"><path d="M.156-7.172H1.22v-.531c0-.602.062-1.05.187-1.344.125-.3.36-.547.703-.734.352-.188.79-.281 1.313-.281.539 0 1.07.078 1.594.234L4.75-8.5a3.886 3.886 0 0 0-.875-.11c-.273 0-.469.07-.594.204-.117.125-.172.37-.172.734v.5h1.422v1.5H3.11V0H1.22v-5.672H.156Zm0 0" style="stroke:none"/></symbol><symbol id="ab" overflow="visible"><path d="M.547-3.688c0-.624.156-1.234.469-1.828a3.16 3.16 0 0 1 1.312-1.343c.57-.313 1.211-.47 1.922-.47 1.082 0 1.969.356 2.656 1.063.696.7 1.047 1.586 1.047 2.657 0 1.086-.351 1.984-1.047 2.703-.699.71-1.578 1.062-2.64 1.062-.657 0-1.29-.148-1.891-.437a3.11 3.11 0 0 1-1.36-1.313c-.312-.57-.468-1.27-.468-2.093Zm1.953.11c0 .71.164 1.25.5 1.625.344.375.758.562 1.25.562.5 0 .914-.187 1.25-.562.332-.375.5-.922.5-1.64 0-.708-.168-1.25-.5-1.626a1.607 1.607 0 0 0-1.25-.562c-.492 0-.906.187-1.25.562-.336.375-.5.922-.5 1.64Zm0 0" style="stroke:none"/></symbol><symbol id="ac" overflow="visible"><path d="M.844-7.172h1.75v.984c.625-.757 1.367-1.14 2.234-1.14.457 0 .852.094 1.188.281.343.188.625.477.843.86.313-.383.649-.672 1.016-.86a2.518 2.518 0 0 1 1.172-.281c.531 0 .976.11 1.344.328.363.21.632.523.812.938.125.304.188.796.188 1.484V0H9.5v-4.094c0-.718-.07-1.176-.203-1.375-.168-.27-.434-.406-.797-.406-.273 0-.527.086-.766.25-.23.156-.398.39-.5.703-.105.313-.156.809-.156 1.484V0h-1.89v-3.922c0-.695-.04-1.144-.11-1.344-.062-.207-.168-.359-.312-.453-.137-.101-.329-.156-.579-.156-.292 0-.558.078-.796.234-.23.157-.399.387-.5.688-.094.293-.141.781-.141 1.469V0H.844Zm0 0" style="stroke:none"/></symbol><symbol id="ad" overflow="visible"><path d="M7.516 0H5.625v-3.656c0-.781-.043-1.281-.125-1.5a1.073 1.073 0 0 0-.406-.532 1.12 1.12 0 0 0-.657-.187c-.324 0-.617.09-.875.266-.261.18-.445.418-.546.718-.094.293-.141.84-.141 1.641V0H.985v-7.172h1.75v1.047c.632-.8 1.425-1.203 2.374-1.203.414 0 .797.078 1.141.234.344.149.602.34.781.578.188.23.313.496.375.797.07.293.11.715.11 1.266Zm0 0" style="stroke:none"/></symbol><symbol id="ae" overflow="visible"><path d="m7.25-5.047-1.875.328c-.063-.363-.21-.64-.438-.828-.218-.195-.507-.297-.859-.297-.469 0-.844.168-1.125.5-.281.324-.422.867-.422 1.625 0 .856.14 1.461.422 1.813.281.343.664.515 1.156.515.352 0 .645-.097.875-.296.227-.208.391-.563.485-1.063l1.875.313c-.2.867-.574 1.515-1.125 1.953-.543.43-1.278.64-2.203.64C2.96.156 2.125-.172 1.5-.828.883-1.492.578-2.41.578-3.578c0-1.188.313-2.11.938-2.766.625-.656 1.468-.984 2.53-.984.876 0 1.567.187 2.079.562.52.375.895.95 1.125 1.72Zm0 0" style="stroke:none"/></symbol><symbol id="ak" overflow="visible"><path d="M1.344 0v-12.656h1.718L9.72-2.72v-9.937h1.61V0h-1.72L2.953-9.953V0Zm0 0" style="stroke:none"/></symbol><symbol id="al" overflow="visible"><path d="m7.453-2.953 1.61.203C8.8-1.812 8.328-1.082 7.64-.562c-.68.511-1.555.765-2.625.765-1.336 0-2.399-.41-3.188-1.234C1.035-1.851.641-3.016.641-4.516c0-1.539.394-2.734 1.187-3.578.8-.851 1.836-1.281 3.11-1.281 1.226 0 2.226.418 3 1.25.78.836 1.171 2.008 1.171 3.516v.421H2.25c.063 1.012.348 1.782.86 2.313.507.531 1.148.797 1.921.797.57 0 1.055-.145 1.453-.438.407-.3.727-.78.97-1.437ZM2.343-5.47H7.47c-.074-.77-.274-1.347-.594-1.734-.492-.594-1.133-.89-1.922-.89-.719 0-1.324.241-1.812.718-.48.469-.746 1.105-.797 1.906Zm0 0" style="stroke:none"/></symbol><symbol id="am" overflow="visible"><path d="m.547-2.734 1.531-.25c.094.617.332 1.09.719 1.421.394.325.945.485 1.656.485.719 0 1.25-.14 1.594-.422.344-.29.516-.633.516-1.031a.945.945 0 0 0-.454-.828c-.21-.133-.742-.313-1.593-.532-1.137-.28-1.93-.523-2.375-.734-.438-.219-.774-.508-1-.875a2.307 2.307 0 0 1-.344-1.234c0-.407.094-.782.281-1.125.188-.352.442-.645.766-.875.25-.188.582-.336 1-.454a4.636 4.636 0 0 1 1.344-.187c.718 0 1.347.105 1.89.313.54.21.942.492 1.203.843.258.356.442.824.547 1.406l-1.531.22c-.063-.477-.262-.848-.594-1.11-.336-.258-.805-.39-1.406-.39-.719 0-1.23.12-1.531.359-.305.23-.454.5-.454.812 0 .211.063.39.188.547.125.168.32.309.594.422.156.055.613.183 1.375.39 1.101.293 1.867.532 2.297.72.437.187.78.464 1.03.827.25.356.376.797.376 1.329 0 .511-.152.996-.453 1.453-.305.46-.742.812-1.313 1.062-.574.25-1.218.375-1.937.375-1.2 0-2.11-.242-2.735-.734C1.11-1.031.711-1.766.547-2.734Zm0 0" style="stroke:none"/></symbol><symbol id="an" overflow="visible"><path d="M4.563-1.39 4.78-.017A5.66 5.66 0 0 1 3.61.125c-.562 0-1-.09-1.312-.266-.313-.187-.531-.421-.656-.703-.125-.289-.188-.906-.188-1.844v-5.28H.313v-1.204h1.14v-2.265L3-12.376v3.203h1.563v1.203H3v5.375c0 .438.023.727.078.86.05.125.14.226.266.296.125.075.3.11.531.11.176 0 .406-.02.688-.063Zm0 0" style="stroke:none"/></symbol><symbol id="ao" overflow="visible"><path d="M7.125 0v-1.156C6.539-.25 5.687.204 4.562.204c-.742 0-1.417-.2-2.03-.595-.618-.406-1.09-.968-1.423-1.687-.336-.727-.5-1.563-.5-2.5 0-.914.149-1.742.454-2.484.3-.75.757-1.32 1.375-1.72a3.709 3.709 0 0 1 2.046-.593c.551 0 1.04.121 1.47.36.437.23.788.527 1.062.89v-4.531h1.546V0ZM2.203-4.578c0 1.18.242 2.058.735 2.64.5.575 1.085.86 1.765.86.676 0 1.254-.274 1.734-.828.477-.551.72-1.399.72-2.547 0-1.25-.247-2.164-.735-2.75-.48-.594-1.074-.89-1.781-.89-.7 0-1.282.28-1.75.843-.461.563-.688 1.453-.688 2.672Zm0 0" style="stroke:none"/></symbol><symbol id="aq" overflow="visible"><path d="m10.406-4.438 1.672.422c-.344 1.375-.976 2.43-1.89 3.157C9.27-.141 8.155.219 6.844.219 5.469.219 4.352-.055 3.5-.61c-.855-.563-1.508-1.368-1.953-2.422-.45-1.051-.672-2.18-.672-3.39 0-1.321.25-2.474.75-3.454.508-.977 1.227-1.723 2.156-2.234a6.355 6.355 0 0 1 3.078-.766c1.27 0 2.336.324 3.204.969.863.648 1.468 1.554 1.812 2.719l-1.656.39c-.293-.926-.719-1.598-1.281-2.015-.563-.415-1.266-.626-2.11-.626-.969 0-1.781.235-2.437.704A3.684 3.684 0 0 0 3-8.86a7.578 7.578 0 0 0-.39 2.421c0 1.086.156 2.028.468 2.829.313.804.8 1.402 1.469 1.796a4.113 4.113 0 0 0 2.156.594c.938 0 1.727-.27 2.375-.812.656-.54 1.098-1.344 1.328-2.406Zm0 0" style="stroke:none"/></symbol><symbol id="ar" overflow="visible"><path d="M4.984 0 .078-12.656h1.813L5.187-3.47c.258.742.485 1.434.672 2.078.188-.687.41-1.379.672-2.078l3.422-9.187h1.719L6.703 0Zm0 0" style="stroke:none"/></symbol><symbol id="au" overflow="visible"><path d="m.797-4.063 1.578-.14c.07.637.242 1.156.516 1.562.28.407.707.735 1.28.985.583.25 1.235.375 1.954.375.633 0 1.195-.094 1.688-.282.488-.195.851-.457 1.093-.78.239-.333.36-.696.36-1.095a1.64 1.64 0 0 0-.344-1.03c-.23-.302-.61-.552-1.14-.75-.345-.134-1.102-.345-2.266-.626-1.157-.281-1.97-.547-2.438-.797-.605-.312-1.058-.703-1.36-1.171a2.909 2.909 0 0 1-.437-1.579c0-.632.18-1.226.547-1.78.363-.563.89-.985 1.578-1.267.696-.289 1.473-.437 2.328-.437.946 0 1.774.152 2.485.453.719.305 1.27.75 1.656 1.344.383.586.594 1.246.625 1.984l-1.61.125c-.085-.8-.374-1.406-.874-1.812-.5-.414-1.235-.625-2.204-.625-1.023 0-1.765.187-2.234.562-.46.375-.687.824-.687 1.344 0 .46.164.836.5 1.125.32.293 1.164.594 2.53.906 1.364.305 2.298.57 2.798.797.738.344 1.285.777 1.64 1.297.352.523.532 1.121.532 1.797 0 .68-.2 1.312-.594 1.906-.387.594-.938 1.059-1.656 1.39-.72.333-1.532.5-2.438.5-1.148 0-2.11-.167-2.89-.5a4.071 4.071 0 0 1-1.829-1.5 4.301 4.301 0 0 1-.687-2.28Zm0 0" style="stroke:none"/></symbol><symbol id="av" overflow="visible"><path d="M1.172-10.875v-1.781h1.562v1.781ZM1.172 0v-9.172h1.562V0Zm0 0" style="stroke:none"/></symbol><symbol id="aw" overflow="visible"><path d="M1.172 0v-9.172h1.39v1.297c.676-1 1.649-1.5 2.922-1.5.551 0 1.055.102 1.516.297.469.2.816.46 1.047.781.238.324.406.703.5 1.14.05.294.078.798.078 1.516V0H7.078v-5.578c0-.633-.062-1.11-.187-1.422a1.523 1.523 0 0 0-.657-.75c-.304-.188-.664-.281-1.078-.281-.656 0-1.23.215-1.718.64-.481.418-.72 1.211-.72 2.375V0Zm0 0" style="stroke:none"/></symbol><symbol id="ax" overflow="visible"><path d="m.875.766 1.516.218c.062.47.238.805.53 1.016.384.29.911.438 1.579.438.719 0 1.273-.149 1.672-.438.394-.281.66-.684.797-1.203.082-.324.117-.988.11-2C6.398-.398 5.55 0 4.53 0 3.27 0 2.297-.453 1.61-1.36.922-2.272.58-3.366.58-4.64c0-.876.155-1.68.468-2.423.312-.738.77-1.304 1.375-1.703.601-.406 1.312-.609 2.125-.609 1.082 0 1.973.438 2.672 1.313v-1.11h1.437v7.922c0 1.426-.148 2.438-.437 3.031-.293.602-.758 1.078-1.39 1.422-.626.344-1.4.516-2.313.516-1.094 0-1.98-.246-2.657-.735C1.18 2.492.852 1.754.875.766ZM2.172-4.75c0 1.21.238 2.09.719 2.64a2.27 2.27 0 0 0 1.796.829c.708 0 1.301-.274 1.782-.828.488-.551.734-1.414.734-2.594 0-1.113-.25-1.957-.75-2.531-.492-.57-1.09-.86-1.797-.86-.687 0-1.277.281-1.765.844-.48.563-.72 1.398-.72 2.5Zm0 0" style="stroke:none"/></symbol><symbol id="ay" overflow="visible"><path d="M1.125 0v-12.656h1.563V0Zm0 0" style="stroke:none"/></symbol><symbol id="az" overflow="visible"><path d="M1.172 3.516V-9.172h1.406v1.188c.344-.457.723-.801 1.14-1.032.415-.238.927-.359 1.532-.359.781 0 1.469.203 2.063.61.601.398 1.054.964 1.359 1.703.312.73.469 1.53.469 2.406 0 .937-.172 1.781-.516 2.531-.336.75-.824 1.328-1.469 1.734a3.769 3.769 0 0 1-2.015.594c-.524 0-.993-.11-1.407-.328A3.262 3.262 0 0 1 2.72-.953v4.469Zm1.406-8.047c0 1.18.238 2.047.719 2.61.476.562 1.055.843 1.734.843.688 0 1.274-.29 1.766-.875.5-.582.75-1.484.75-2.703 0-1.176-.242-2.051-.719-2.625-.48-.582-1.058-.875-1.734-.875-.657 0-1.242.312-1.75.937-.512.617-.766 1.512-.766 2.688Zm0 0" style="stroke:none"/></symbol><symbol id="aA" overflow="visible"><path d="M7.156-1.125c-.574.492-1.133.836-1.672 1.031a4.91 4.91 0 0 1-1.703.297C2.77.203 1.992-.039 1.453-.53.91-1.02.641-1.648.641-2.421c0-.446.097-.852.296-1.22.208-.375.477-.671.813-.89a3.799 3.799 0 0 1 1.125-.516c.3-.082.758-.16 1.375-.234 1.258-.157 2.188-.336 2.781-.547v-.406c0-.625-.148-1.067-.437-1.329-.399-.351-.985-.53-1.766-.53-.742 0-1.289.132-1.64.39-.344.25-.602.703-.766 1.36l-1.516-.22c.133-.644.36-1.164.672-1.562.32-.406.781-.71 1.375-.922.602-.219 1.3-.328 2.094-.328.781 0 1.414.094 1.906.281.488.18.848.406 1.078.688.239.281.399.636.485 1.062.05.262.078.735.078 1.422v2.078c0 1.45.031 2.367.094 2.75.07.375.207.742.406 1.094H7.469a2.984 2.984 0 0 1-.313-1.125Zm-.125-3.484c-.562.242-1.414.437-2.547.593-.636.094-1.09.2-1.359.313a1.383 1.383 0 0 0-.61.5 1.278 1.278 0 0 0-.218.734c0 .418.156.766.469 1.047.312.274.773.406 1.39.406.594 0 1.125-.129 1.594-.39a2.37 2.37 0 0 0 1.031-1.078c.164-.344.25-.86.25-1.547Zm0 0" style="stroke:none"/></symbol><symbol id="aB" overflow="visible"><path d="M1.156 0v-9.172h1.39v1.39c.364-.644.696-1.07 1-1.28.302-.208.63-.313.985-.313.532 0 1.067.168 1.61.5l-.547 1.438a2.248 2.248 0 0 0-1.14-.329 1.45 1.45 0 0 0-.907.313c-.274.2-.465.48-.578.844a5.841 5.841 0 0 0-.266 1.812V0Zm0 0" style="stroke:none"/></symbol><symbol id="aC" overflow="visible"><path d="M.594-4.594c0-1.695.469-2.953 1.406-3.765.79-.676 1.754-1.016 2.89-1.016 1.258 0 2.29.414 3.094 1.234.801.825 1.204 1.965 1.204 3.422 0 1.188-.18 2.121-.532 2.797A3.796 3.796 0 0 1 7.11-.359a4.514 4.514 0 0 1-2.218.562c-1.282 0-2.32-.41-3.11-1.234C.988-1.851.594-3.04.594-4.594Zm1.594 0c0 1.18.253 2.059.765 2.64.508.587 1.156.876 1.938.876.77 0 1.41-.29 1.921-.875.52-.582.782-1.477.782-2.688 0-1.132-.262-1.992-.782-2.578-.511-.582-1.152-.875-1.921-.875-.782 0-1.43.293-1.938.875-.512.586-.765 1.461-.765 2.625Zm0 0" style="stroke:none"/></symbol><symbol id="as" overflow="visible"><path d="m13.516-6.688 3.562 1.125c-.555 1.993-1.465 3.47-2.734 4.438C13.07-.165 11.457.313 9.5.313c-2.418 0-4.406-.82-5.969-2.47-1.554-1.655-2.328-3.913-2.328-6.78 0-3.032.781-5.383 2.344-7.063 1.57-1.676 3.633-2.516 6.187-2.516 2.227 0 4.036.657 5.422 1.97.832.78 1.457 1.901 1.875 3.358l-3.64.86c-.22-.938-.672-1.676-1.36-2.219-.68-.55-1.508-.828-2.484-.828-1.356 0-2.453.484-3.297 1.453-.836.969-1.25 2.54-1.25 4.703 0 2.305.41 3.946 1.234 4.922.832.98 1.91 1.469 3.235 1.469.976 0 1.816-.305 2.515-.922.707-.625 1.22-1.602 1.532-2.938Zm0 0" style="stroke:none"/></symbol><symbol id="at" overflow="visible"><path d="M1.844-18.203h6.718c1.52 0 2.676.117 3.47.344a6.086 6.086 0 0 1 2.75 1.672c.757.804 1.335 1.789 1.734 2.953.394 1.168.593 2.601.593 4.296 0 1.5-.187 2.793-.562 3.876-.45 1.335-1.094 2.406-1.938 3.218-.648.625-1.511 1.11-2.593 1.453-.813.262-1.899.391-3.25.391H1.844Zm3.672 3.078v12.063h2.75c1.03 0 1.77-.055 2.218-.172.602-.157 1.098-.41 1.485-.766.394-.352.719-.938.969-1.75.25-.82.374-1.938.374-3.344s-.124-2.484-.374-3.234c-.25-.758-.602-1.348-1.047-1.766-.45-.426-1.016-.71-1.704-.86-.511-.112-1.515-.171-3.015-.171Zm0 0" style="stroke:none"/></symbol></defs><path d="M421.496 1782.5h1494.01v490.005H421.496Zm0 0" style="fill-rule:nonzero;fill:#bfebfa;fill-opacity:1;stroke-width:3.4375;stroke-linecap:butt;stroke-linejoin:miter;stroke:#000;stroke-opacity:1;stroke-miterlimit:8" transform="matrix(.27666 0 0 .27645 -22.686 -55.566)"/><path d="M421.496 2949.493h1198v392.012h-1198Zm0 0" style="fill-rule:nonzero;fill:#d9d9d9;fill-opacity:1;stroke-width:3.4375;stroke-linecap:butt;stroke-linejoin:miter;stroke:#000;stroke-opacity:1;stroke-miterlimit:8" transform="matrix(.27666 0 0 .27645 -22.686 -55.566)"/><path d="M439.498 1798.495H715.5v73.01H439.498Zm0 0" style="fill-rule:nonzero;fill:#fcd9d3;fill-opacity:1;stroke-width:3.4375;stroke-linecap:butt;stroke-linejoin:miter;stroke:#000;stroke-opacity:1;stroke-miterlimit:8" transform="matrix(.27666 0 0 .27645 -22.686 -55.566)"/><path d="M734.505 1798.495h1162.999v73.01h-1163ZM439.498 1891.5H715.5v72.996H439.498Zm0 0" style="fill-rule:nonzero;fill:#8cc9f7;fill-opacity:1;stroke-width:3.4375;stroke-linecap:butt;stroke-linejoin:miter;stroke:#000;stroke-opacity:1;stroke-miterlimit:8" transform="matrix(.27666 0 0 .27645 -22.686 -55.566)"/><path d="M734.505 1891.5h276.99v72.996h-276.99Zm0 0" style="fill-rule:nonzero;fill:#fcd9d3;fill-opacity:1;stroke-width:3.4375;stroke-linecap:butt;stroke-linejoin:miter;stroke:#000;stroke-opacity:1;stroke-miterlimit:8" transform="matrix(.27666 0 0 .27645 -22.686 -55.566)"/><path d="M1030.5 1891.5h867.004v72.996H1030.5ZM439.498 2179.5h1162.999v72.996H439.498Zm0 0" style="fill-rule:nonzero;fill:#8cc9f7;fill-opacity:1;stroke-width:3.4375;stroke-linecap:butt;stroke-linejoin:miter;stroke:#000;stroke-opacity:1;stroke-miterlimit:8" transform="matrix(.27666 0 0 .27645 -22.686 -55.566)"/><path d="M1620.499 2179.5h277.005v72.996h-277.005Zm0 0" style="fill-rule:nonzero;fill:#fcd9d3;fill-opacity:1;stroke-width:3.4375;stroke-linecap:butt;stroke-linejoin:miter;stroke:#000;stroke-opacity:1;stroke-miterlimit:8" transform="matrix(.27666 0 0 .27645 -22.686 -55.566)"/><path d="M439.498 2969.501h99.004v72.997h-99.004Zm0 0" style="fill-rule:nonzero;fill:#ff0;fill-opacity:1;stroke-width:3.4375;stroke-linecap:butt;stroke-linejoin:miter;stroke:#000;stroke-opacity:1;stroke-miterlimit:8" transform="matrix(.27666 0 0 .27645 -22.686 -55.566)"/><path d="M557.507 2969.501h1044.99v74H557.507ZM439.498 3062.506h99.004v74h-99.004Zm0 0" style="fill-rule:nonzero;fill:#caf297;fill-opacity:1;stroke-width:3.4375;stroke-linecap:butt;stroke-linejoin:miter;stroke:#000;stroke-opacity:1;stroke-miterlimit:8" transform="matrix(.27666 0 0 .27645 -22.686 -55.566)"/><path d="M557.507 3062.506h98.99v74h-98.99Zm0 0" style="fill-rule:nonzero;fill:#ff0;fill-opacity:1;stroke-width:3.4375;stroke-linecap:butt;stroke-linejoin:miter;stroke:#000;stroke-opacity:1;stroke-miterlimit:8" transform="matrix(.27666 0 0 .27645 -22.686 -55.566)"/><path d="M674.498 3062.506h927.999v74H674.498ZM439.498 3249.504h1045.005v74H439.498Zm0 0" style="fill-rule:nonzero;fill:#caf297;fill-opacity:1;stroke-width:3.4375;stroke-linecap:butt;stroke-linejoin:miter;stroke:#000;stroke-opacity:1;stroke-miterlimit:8" transform="matrix(.27666 0 0 .27645 -22.686 -55.566)"/><path d="M1501.502 3249.504h100.995v74h-100.995Zm0 0" style="fill-rule:nonzero;fill:#ff0;fill-opacity:1;stroke-width:3.4375;stroke-linecap:butt;stroke-linejoin:miter;stroke:#000;stroke-opacity:1;stroke-miterlimit:8" transform="matrix(.27666 0 0 .27645 -22.686 -55.566)"/><g style="fill:#000;fill-opacity:1"><use xlink:href="#a" x="127.027" y="456.141"/><use xlink:href="#b" x="134.139" y="456.141"/><use xlink:href="#c" x="141.525" y="456.141"/><use xlink:href="#d" x="148.165" y="456.141"/></g><g style="fill:#000;fill-opacity:1"><use xlink:href="#a" x="318.379" y="456.141"/><use xlink:href="#e" x="326.491" y="456.141"/><use xlink:href="#f" x="330.913" y="456.141"/><use xlink:href="#g" x="338.299" y="456.141"/><use xlink:href="#h" x="341.249" y="456.141"/></g><g style="fill:#000;fill-opacity:1"><use xlink:href="#a" x="258.984" y="779.86"/><use xlink:href="#e" x="267.096" y="779.86"/><use xlink:href="#f" x="271.518" y="779.86"/><use xlink:href="#g" x="278.904" y="779.86"/><use xlink:href="#h" x="281.854" y="779.86"/></g><g style="fill:#000;fill-opacity:1"><use xlink:href="#i" x="102.527" y="779.033"/><use xlink:href="#j" x="108.78" y="779.033"/><use xlink:href="#k" x="114.473" y="779.033"/><use xlink:href="#l" x="119.591" y="779.033"/></g><path d="M780.505 2700.506H1259.5V2855.5H780.505Zm0 0" style="fill-rule:nonzero;fill:#d9d9d9;fill-opacity:1;stroke-width:3.4375;stroke-linecap:butt;stroke-linejoin:round;stroke:#000;stroke-opacity:1;stroke-miterlimit:10" transform="matrix(.27666 0 0 .27645 -22.686 -55.566)"/><g style="fill:#000;fill-opacity:1"><use xlink:href="#m" x="208.898" y="708.263"/><use xlink:href="#g" x="217.01" y="708.263"/><use xlink:href="#n" x="219.961" y="708.263"/><use xlink:href="#d" x="222.911" y="708.263"/><use xlink:href="#b" x="226.6" y="708.263"/><use xlink:href="#e" x="233.986" y="708.263"/><use xlink:href="#o" x="238.408" y="708.263"/></g><g style="fill:#000;fill-opacity:1"><use xlink:href="#p" x="242.188" y="708.263"/><use xlink:href="#b" x="245.877" y="708.263"/><use xlink:href="#f" x="253.263" y="708.263"/><use xlink:href="#d" x="260.648" y="708.263"/><use xlink:href="#q" x="264.338" y="708.263"/><use xlink:href="#e" x="271.723" y="708.263"/><use xlink:href="#b" x="276.146" y="708.263"/><use xlink:href="#c" x="283.531" y="708.263"/><use xlink:href="#o" x="290.171" y="708.263"/><use xlink:href="#r" x="293.861" y="708.263"/><use xlink:href="#s" x="301.616" y="708.263"/></g><use xlink:href="#t" x="305.43" y="708.263" style="fill:#000;fill-opacity:1"/><g style="fill:#000;fill-opacity:1"><use xlink:href="#u" x="209.219" y="724.294"/><use xlink:href="#f" x="216.604" y="724.294"/><use xlink:href="#n" x="223.99" y="724.294"/><use xlink:href="#f" x="226.94" y="724.294"/><use xlink:href="#h" x="234.326" y="724.294"/><use xlink:href="#v" x="241.711" y="724.294"/><use xlink:href="#b" x="248.351" y="724.294"/><use xlink:href="#o" x="255.737" y="724.294"/><use xlink:href="#c" x="259.426" y="724.294"/><use xlink:href="#f" x="266.066" y="724.294"/><use xlink:href="#w" x="273.452" y="724.294"/><use xlink:href="#x" x="284.514" y="724.294"/><use xlink:href="#n" x="291.9" y="724.294"/><use xlink:href="#b" x="294.85" y="724.294"/><use xlink:href="#c" x="302.236" y="724.294"/></g><path d="M28 392.005c-7.738 0-13.993-7.362-13.993-16.433V212.425c0-9.071-6.269-16.419-14.006-16.419 7.737 0 14.006-7.362 14.006-16.433V16.426c0-9.071 6.255-16.433 13.992-16.433" style="fill:none;stroke-width:3.4375;stroke-linecap:butt;stroke-linejoin:miter;stroke:#000;stroke-opacity:1;stroke-miterlimit:8" transform="matrix(-.27666 0 0 .27645 520.817 759.818)"/><path d="M28 528c-7.738 0-14.007-7.347-14.007-16.419l.014-231.154c0-9.072-6.269-16.434-14.006-16.434 7.737 0 14.006-7.347 14.006-16.419V16.42C14.007 7.348 20.262 0 27.999 0" style="fill:none;stroke-width:3.4375;stroke-linecap:butt;stroke-linejoin:miter;stroke:#000;stroke-opacity:1;stroke-miterlimit:8" transform="matrix(-.27666 0 0 .27645 520.817 437.203)"/><path d="M1602.497 2590.503c0 7.46-7.088 13.494-15.842 13.494H1036.84c-8.754 0-15.841 6.048-15.841 13.509 0-7.46-7.088-13.509-15.842-13.509H455.34c-8.754 0-15.842-6.033-15.842-13.494" style="fill:none;stroke-width:3.4375;stroke-linecap:butt;stroke-linejoin:miter;stroke:#000;stroke-opacity:1;stroke-miterlimit:8" transform="matrix(.27666 0 0 .27645 -22.686 -55.566)"/><path d="M1556.497 2700.506h405.997V2855.5h-405.997Zm0 0" style="fill-rule:nonzero;fill:#fcd9d3;fill-opacity:1;stroke-width:3.4375;stroke-linecap:butt;stroke-linejoin:round;stroke:#000;stroke-opacity:1;stroke-miterlimit:10" transform="matrix(.27666 0 0 .27645 -22.686 -55.566)"/><g style="fill:#000;fill-opacity:1"><use xlink:href="#a" x="432.461" y="708.263"/><use xlink:href="#b" x="439.573" y="708.263"/><use xlink:href="#c" x="446.958" y="708.263"/><use xlink:href="#d" x="453.598" y="708.263"/><use xlink:href="#o" x="457.288" y="708.263"/><use xlink:href="#d" x="460.977" y="708.263"/><use xlink:href="#q" x="464.667" y="708.263"/><use xlink:href="#h" x="472.053" y="708.263"/><use xlink:href="#b" x="479.438" y="708.263"/><use xlink:href="#y" x="486.824" y="708.263"/><use xlink:href="#o" x="494.209" y="708.263"/></g><g style="fill:#000;fill-opacity:1"><use xlink:href="#w" x="445.699" y="724.294"/><use xlink:href="#z" x="456.761" y="724.294"/><use xlink:href="#y" x="464.147" y="724.294"/><use xlink:href="#b" x="471.533" y="724.294"/><use xlink:href="#n" x="478.918" y="724.294"/></g><use xlink:href="#A" x="44.094" y="501.755" style="fill:#000;fill-opacity:1"/><use xlink:href="#B" x="51.859" y="501.755" style="fill:#000;fill-opacity:1"/><g style="fill:#000;fill-opacity:1"><use xlink:href="#C" x="56.457" y="501.755"/><use xlink:href="#D" x="60.3" y="501.755"/><use xlink:href="#E" x="67.994" y="501.755"/><use xlink:href="#F" x="71.067" y="501.755"/></g><g style="fill:#000;fill-opacity:1"><use xlink:href="#D" x="34.023" y="518.618"/><use xlink:href="#G" x="41.717" y="518.618"/><use xlink:href="#H" x="49.41" y="518.618"/><use xlink:href="#I" x="53.253" y="518.618"/><use xlink:href="#J" x="60.947" y="518.618"/><use xlink:href="#K" x="65.553" y="518.618"/><use xlink:href="#L" x="69.396" y="518.618"/><use xlink:href="#M" x="79.386" y="518.618"/></g><g style="fill:#000;fill-opacity:1"><use xlink:href="#N" x="40.207" y="810.548"/><use xlink:href="#O" x="47.9" y="810.548"/></g><use xlink:href="#B" x="55.738" y="810.548" style="fill:#000;fill-opacity:1"/><g style="fill:#000;fill-opacity:1"><use xlink:href="#C" x="60.336" y="810.548"/><use xlink:href="#D" x="64.179" y="810.548"/><use xlink:href="#E" x="71.873" y="810.548"/><use xlink:href="#F" x="74.946" y="810.548"/></g><g style="fill:#000;fill-opacity:1"><use xlink:href="#P" x="34.344" y="827.411"/><use xlink:href="#Q" x="37.417" y="827.411"/><use xlink:href="#Q" x="45.11" y="827.411"/><use xlink:href="#I" x="52.804" y="827.411"/><use xlink:href="#J" x="60.497" y="827.411"/><use xlink:href="#K" x="65.104" y="827.411"/><use xlink:href="#L" x="68.947" y="827.411"/><use xlink:href="#M" x="78.937" y="827.411"/></g><path d="m260.125 733.828.133 19.117-.953.008-.133-19.117Zm2.184 17.836-2.485 7.621-2.59-7.586ZM464.578 690.91v-27.594h-.953v27.594Zm2.059-26.328-2.535-7.602-2.536 7.602ZM425.367 814.273h39.16v-74.105h-.953v73.629l.477-.473h-38.684Zm41.219-72.84-2.535-7.601-2.535 7.602Zm0 0" style="stroke:none;fill-rule:nonzero;fill:#000;fill-opacity:1"/><use xlink:href="#R" x="252.902" y="831.833" style="fill:#000;fill-opacity:1"/><path d="M260.125 671.906v12.586h-.953v-12.586Zm2.059 11.32-2.536 7.602-2.539-7.601Zm0 0" style="stroke:none;fill-rule:nonzero;fill:#000;fill-opacity:1"/><g style="fill:#000;fill-opacity:1"><use xlink:href="#S" x="535.188" y="506.454"/><use xlink:href="#T" x="546.711" y="506.454"/><use xlink:href="#U" x="554.404" y="506.454"/><use xlink:href="#V" x="562.097" y="506.454"/><use xlink:href="#W" x="569.791" y="506.454"/><use xlink:href="#X" x="578.24" y="506.454"/><use xlink:href="#T" x="583.624" y="506.454"/><use xlink:href="#Y" x="591.317" y="506.454"/></g><g style="fill:#000;fill-opacity:1"><use xlink:href="#Z" x="521.238" y="523.317"/><use xlink:href="#T" x="529.688" y="523.317"/><use xlink:href="#X" x="537.381" y="523.317"/><use xlink:href="#aa" x="542.765" y="523.317"/><use xlink:href="#ab" x="547.371" y="523.317"/><use xlink:href="#X" x="555.821" y="523.317"/><use xlink:href="#ac" x="561.204" y="523.317"/><use xlink:href="#U" x="573.504" y="523.317"/><use xlink:href="#ad" x="581.197" y="523.317"/><use xlink:href="#ae" x="589.647" y="523.317"/><use xlink:href="#T" x="597.34" y="523.317"/></g><g style="fill:#000;fill-opacity:1"><use xlink:href="#af" x="526.625" y="810.548"/><use xlink:href="#G" x="535.075" y="810.548"/><use xlink:href="#Q" x="542.768" y="810.548"/><use xlink:href="#I" x="550.461" y="810.548"/><use xlink:href="#K" x="558.155" y="810.548"/><use xlink:href="#ag" x="561.998" y="810.548"/><use xlink:href="#D" x="573.521" y="810.548"/><use xlink:href="#F" x="581.214" y="810.548"/><use xlink:href="#I" x="588.908" y="810.548"/><use xlink:href="#E" x="596.601" y="810.548"/><use xlink:href="#K" x="599.674" y="810.548"/></g><g style="fill:#000;fill-opacity:1"><use xlink:href="#ah" x="528.293" y="827.411"/><use xlink:href="#ai" x="535.986" y="827.411"/><use xlink:href="#J" x="543.68" y="827.411"/><use xlink:href="#ai" x="548.286" y="827.411"/><use xlink:href="#ag" x="555.979" y="827.411"/><use xlink:href="#I" x="567.503" y="827.411"/><use xlink:href="#H" x="575.196" y="827.411"/><use xlink:href="#I" x="579.039" y="827.411"/><use xlink:href="#J" x="586.732" y="827.411"/><use xlink:href="#aj" x="591.339" y="827.411"/></g><path d="M439.498 2486.505h1162.999v72.997H439.498Zm0 0" style="fill-rule:nonzero;fill:#8cc9f7;fill-opacity:1;stroke-width:3.4375;stroke-linecap:butt;stroke-linejoin:miter;stroke:#000;stroke-opacity:1;stroke-miterlimit:8" transform="matrix(.27666 0 0 .27645 -22.686 -55.566)"/><path d="M1620.499 2486.505h277.005v72.997h-277.005Zm0 0" style="fill-rule:nonzero;fill:#fcd9d3;fill-opacity:1;stroke-width:3.4375;stroke-linecap:butt;stroke-linejoin:miter;stroke:#000;stroke-opacity:1;stroke-miterlimit:8" transform="matrix(.27666 0 0 .27645 -22.686 -55.566)"/><path d="M98.906 557.656H78.715l.476-.472v48.992l-.476-.477h181.578v19.836h-.953v-19.36l.476.473H78.242v-49.941h20.664Zm163.446 66.614-2.536 7.601-2.539-7.601ZM463.625 567.133v3.8h.953v-3.8Zm0 6.652v3.8h.953v-3.8Zm0 6.653v2.933h1.82v-.953h-1.343l.476.477v-2.457Zm4.676 2.933h3.8v-.953h-3.8Zm6.656 0h3.805v-.953h-3.805Zm6.656 0h3.805v-.953h-3.805Zm6.657 0h3.804v-.953h-3.804Zm6.66 0h3.8v-.953h-3.8Zm6.656 0h1.789v-.953h-1.79Zm.52 2.059 7.609-2.535-7.61-2.536Zm0 0" style="stroke:none;fill-rule:nonzero;fill:#000;fill-opacity:1"/><path d="M439.498 1984.504h571.997v72.997H439.498ZM1325.507 1984.504h571.997v72.997h-571.997Zm0 0" style="fill-rule:nonzero;fill:#8cc9f7;fill-opacity:1;stroke-width:3.4375;stroke-linecap:butt;stroke-linejoin:miter;stroke:#000;stroke-opacity:1;stroke-miterlimit:8" transform="matrix(.27666 0 0 .27645 -22.686 -55.566)"/><path d="M1030.5 1984.504h277.005v72.997H1030.5Zm0 0" style="fill-rule:nonzero;fill:#fcd9d3;fill-opacity:1;stroke-width:3.4375;stroke-linecap:butt;stroke-linejoin:miter;stroke:#000;stroke-opacity:1;stroke-miterlimit:8" transform="matrix(.27666 0 0 .27645 -22.686 -55.566)"/><path d="M439.498 2080.504H1305.5v72.997H439.498Zm0 0" style="fill-rule:nonzero;fill:#8cc9f7;fill-opacity:1;stroke-width:3.4375;stroke-linecap:butt;stroke-linejoin:miter;stroke:#000;stroke-opacity:1;stroke-miterlimit:8" transform="matrix(.27666 0 0 .27645 -22.686 -55.566)"/><path d="M1323.502 2080.504h277.993v72.997h-277.993Zm0 0" style="fill-rule:nonzero;fill:#fcd9d3;fill-opacity:1;stroke-width:3.4375;stroke-linecap:butt;stroke-linejoin:miter;stroke:#000;stroke-opacity:1;stroke-miterlimit:8" transform="matrix(.27666 0 0 .27645 -22.686 -55.566)"/><path d="M1619.497 2080.504h278.007v72.997h-278.007Zm0 0" style="fill-rule:nonzero;fill:#8cc9f7;fill-opacity:1;stroke-width:3.4375;stroke-linecap:butt;stroke-linejoin:miter;stroke:#000;stroke-opacity:1;stroke-miterlimit:8" transform="matrix(.27666 0 0 .27645 -22.686 -55.566)"/><path d="M381.457 539.766v3.8h.95v-3.8Zm0 6.652v3.8h.95v-3.8Zm0 6.652v3.801h.95v-3.8Zm0 6.653v3.8h.95v-3.8Zm0 6.652v3.8h.95v-3.8Zm0 6.652v3.801h.95v-3.8Zm0 6.649v3.812h.941v-.953h-.464l.472.477v-3.336Zm3.797 3.812h3.805v-.953h-3.805Zm6.656 0h3.805v-.953h-3.805Zm6.656 0h3.805v-.953h-3.805Zm6.66 0h3.801v-.953h-3.8Zm6.657 0h3.805v-.953h-3.805Zm6.656 0h3.805v-.953h-3.805Zm6.656 0H429v-.953h-3.805Zm6.657 0h3.804v-.953h-3.804Zm6.66 0h3.804v-.953h-3.804Zm6.656 0h3.805v-.953h-3.805Zm6.656 0h.153v-.953h-.153Zm-1.117 2.059 7.61-2.535-7.61-2.535ZM140.484 464.848v3.8h.95v-3.8Zm0 6.652v3.8h.95v-3.8Zm0 6.652v3.801h.95v-3.8Zm0 6.653v3.8h.95v-3.8Zm0 6.652v3.8h.95v-3.8Zm0 6.652v3.801h.95v-3.8Zm0 6.653v3.8h.95v-3.8Zm0 6.652v3.8h.95v-3.8Zm0 6.649v3.804h.95v-3.804Zm0 6.652v3.8h.95v-3.8Zm0 6.652v3.801h.95v-3.8Zm0 6.653v3.8h.95v-3.8Zm0 6.652v3.8h.95v-3.8Zm0 6.652v3.801h.95v-3.8Zm0 6.653v3.8h.95v-3.8Zm0 6.652v3.8h.95v-3.8Zm0 6.652v3.801h.95v-3.8Zm0 6.653v3.8h.95v-3.8Zm1.895 5.707h3.8v-.95h-3.8Zm6.656 0 3.805-.004v-.95l-3.805.004Zm6.656-.004h3.805v-.953l-3.805.004Zm6.657-.004h3.804v-.95h-3.804Zm6.66 0 3.8-.004v-.95l-3.804.005Zm6.656-.004h3.805v-.953l-3.805.004Zm6.656-.004h3.805v-.95h-3.805Zm6.657 0 3.804-.004v-.95h-3.804Zm6.656-.004h3.804v-.95h-3.804Zm6.66-.004h2.437v-.949h-2.437Zm1.219 2.086 7.558-2.683-7.656-2.387ZM218.227 487.516v3.8h.949v-3.8Zm0 6.652v3.8h.949v-3.8Zm0 6.652v3.801h.949v-3.8Zm0 6.653v3.8h.949v-3.8Zm0 6.652v3.8h.949v-3.8Zm0 6.652v3.801h.949v-3.8Zm0 6.653v3.8h.949v-3.8Zm0 6.652v3.8h.949v-3.8Zm0 6.652v3.801h.949v-3.8Zm0 6.653v3.8h.949v-3.8Zm0 6.648v3.805h.949v-3.805Zm0 6.653v3.804h.949v-3.804Zm0 6.652v3.8h.949v-3.8Zm0 6.652v3.801h.949v-3.8Zm0 6.653v2.898h1.851v-.95h-1.375l.473.477v-2.425Zm4.707 2.898h3.804l-.004-.95h-3.8Zm6.656 0h3.805v-.953h-3.805Zm6.656-.004h3.805v-.95h-3.805Zm6.656 0h3.805v-.953l-3.805.004Zm6.66-.004h3.805l-.004-.95h-3.8Zm6.657 0h3.804v-.953l-3.804.004Zm6.656 0 3.805-.004v-.949h-3.805Zm6.656-.004h3.805v-.949h-3.805Zm6.66 0 3.801-.004v-.949h-3.8Zm6.657-.004h3.804v-.949h-3.804Zm3.879 2.078 7.57-2.644-7.64-2.426ZM300.395 513.227v3.8h.949v-3.8Zm0 6.652v3.8h.949v-3.8Zm0 6.652v3.801h.949v-3.8Zm0 6.653v3.8h.949v-3.8Zm0 6.652v3.8h.949v-3.8Zm0 6.652v3.801h.949v-3.8Zm0 6.649v3.804h.949v-3.804Zm0 6.652v3.805h.949v-3.805Zm0 6.652v3.801h.949v-3.8Zm0 6.653v3.8h.949v-3.8Zm0 6.652v3.774h.98v-.954h-.504l.473.477v-3.297Zm3.835 3.774h3.801v-.954h-3.8Zm6.657 0h3.804v-.954h-3.804Zm6.656 0h3.805v-.954h-3.805Zm6.656 0h3.805v-.954h-3.805Zm6.66 0h3.801v-.954h-3.8Zm6.657 0h3.804v-.954h-3.804Zm6.656 0h3.805v-.954h-3.805Zm6.656 0h3.805v-.954h-3.805Zm6.656 0h3.805v-.954h-3.805Zm6.66 0h3.805v-.954h-3.804Zm3.583 2.058 7.609-2.535-7.61-2.535Zm0 0" style="stroke:none;fill-rule:nonzero;fill:#000;fill-opacity:1"/><g style="fill:#000;fill-opacity:1"><use xlink:href="#ak" x="101.168" y="408.036"/><use xlink:href="#al" x="113.955" y="408.036"/><use xlink:href="#am" x="123.802" y="408.036"/><use xlink:href="#an" x="132.655" y="408.036"/><use xlink:href="#al" x="137.574" y="408.036"/><use xlink:href="#ao" x="147.421" y="408.036"/><use xlink:href="#ap" x="157.269" y="408.036"/><use xlink:href="#aq" x="162.188" y="408.036"/><use xlink:href="#ar" x="174.975" y="408.036"/></g><path d="M182.5 1737.524c0-11.615 9.404-21.026 21.01-21.026H2272.48c11.606 0 21.024 9.411 21.024 21.026v1613.957c0 11.615-9.418 21.026-21.024 21.026H203.51c-11.606 0-21.01-9.411-21.01-21.026Zm0 0" style="fill:none;stroke-width:3.4375;stroke-linecap:butt;stroke-linejoin:miter;stroke:#bfbfbf;stroke-opacity:1;stroke-miterlimit:8" transform="matrix(.27666 0 0 .27645 -22.686 -55.566)"/><use xlink:href="#as" x="28.109" y="32.895" style="fill:#000;fill-opacity:1"/><use xlink:href="#at" x="28.109" y="408.868" style="fill:#000;fill-opacity:1"/><path d="M182.5 379.845c0-7.927 6.425-14.342 14.346-14.342H2279.16c7.92 0 14.345 6.415 14.345 14.342v1101.288c0 7.913-6.424 14.342-14.345 14.342H196.846c-7.921 0-14.346-6.43-14.346-14.342Zm0 0" style="fill:none;stroke-width:3.4375;stroke-linecap:butt;stroke-linejoin:miter;stroke:#bfbfbf;stroke-opacity:1;stroke-miterlimit:8" transform="matrix(.27666 0 0 .27645 -22.686 -55.566)"/><path d="M422.499 579.504h938.997V652.5H422.5Zm0 0" style="fill-rule:nonzero;fill:#8cc9f7;fill-opacity:1;stroke-width:3.4375;stroke-linecap:butt;stroke-linejoin:miter;stroke:#000;stroke-opacity:1;stroke-miterlimit:8" transform="matrix(.27666 0 0 .27645 -22.686 -55.566)"/><path d="M1378.496 579.504h503.01V652.5h-503.01Zm0 0" style="fill-rule:nonzero;fill:#fcd9d3;fill-opacity:1;stroke-width:3.4375;stroke-linecap:butt;stroke-linejoin:miter;stroke:#000;stroke-opacity:1;stroke-miterlimit:8" transform="matrix(.27666 0 0 .27645 -22.686 -55.566)"/><path d="M640.5 801.502h502.996V957.5H640.499Zm0 0" style="fill-rule:nonzero;fill:#d9d9d9;fill-opacity:1;stroke-width:3.4375;stroke-linecap:butt;stroke-linejoin:round;stroke:#000;stroke-opacity:1;stroke-miterlimit:10" transform="matrix(.27666 0 0 .27645 -22.686 -55.566)"/><g style="fill:#000;fill-opacity:1"><use xlink:href="#m" x="173.453" y="183.563"/><use xlink:href="#g" x="181.565" y="183.563"/><use xlink:href="#n" x="184.515" y="183.563"/><use xlink:href="#d" x="187.466" y="183.563"/><use xlink:href="#b" x="191.155" y="183.563"/><use xlink:href="#e" x="198.541" y="183.563"/><use xlink:href="#o" x="202.963" y="183.563"/></g><g style="fill:#000;fill-opacity:1"><use xlink:href="#p" x="206.742" y="183.563"/><use xlink:href="#b" x="210.432" y="183.563"/><use xlink:href="#f" x="217.817" y="183.563"/><use xlink:href="#d" x="225.203" y="183.563"/><use xlink:href="#q" x="228.892" y="183.563"/><use xlink:href="#e" x="236.278" y="183.563"/><use xlink:href="#b" x="240.7" y="183.563"/><use xlink:href="#c" x="248.086" y="183.563"/><use xlink:href="#o" x="254.726" y="183.563"/><use xlink:href="#r" x="258.415" y="183.563"/><use xlink:href="#s" x="266.171" y="183.563"/></g><use xlink:href="#t" x="269.984" y="183.563" style="fill:#000;fill-opacity:1"/><g style="fill:#000;fill-opacity:1"><use xlink:href="#u" x="173.773" y="199.595"/><use xlink:href="#f" x="181.159" y="199.595"/><use xlink:href="#n" x="188.545" y="199.595"/><use xlink:href="#f" x="191.495" y="199.595"/><use xlink:href="#h" x="198.881" y="199.595"/><use xlink:href="#v" x="206.266" y="199.595"/><use xlink:href="#b" x="212.906" y="199.595"/><use xlink:href="#o" x="220.292" y="199.595"/><use xlink:href="#c" x="223.981" y="199.595"/><use xlink:href="#f" x="230.621" y="199.595"/><use xlink:href="#w" x="238.007" y="199.595"/><use xlink:href="#x" x="249.069" y="199.595"/><use xlink:href="#n" x="256.454" y="199.595"/><use xlink:href="#b" x="259.405" y="199.595"/><use xlink:href="#c" x="266.79" y="199.595"/></g><path d="M28.007 390.998c-7.738 0-14.007-7.348-14.007-16.42V211.928c0-9.072-6.269-16.434-14.006-16.434 7.737 0 14.006-7.347 14.006-16.419V16.422C14 7.351 20.27.003 28.007.003" style="fill:none;stroke-width:3.4375;stroke-linecap:butt;stroke-linejoin:miter;stroke:#000;stroke-opacity:1;stroke-miterlimit:8" transform="matrix(-.27666 0 0 .27645 496.194 234.843)"/><path d="M28.001 501.007c-7.73 0-14.003-7.356-14.003-16.435V266.924c0-9.064-6.26-16.42-14.003-16.42 7.743 0 14.003-7.356 14.003-16.435V16.421c0-9.064 6.274-16.42 14.003-16.42" style="fill:none;stroke-width:3.4375;stroke-linecap:butt;stroke-linejoin:miter;stroke:#000;stroke-opacity:1;stroke-miterlimit:8" transform="matrix(0 .27645 .27666 0 359.246 89.431)"/><path d="M1361.496 691.499c0 7.46-7.087 13.494-15.841 13.494H907.832c-8.74 0-15.827 6.048-15.827 13.509 0-7.461-7.102-13.509-15.842-13.509H438.34c-8.753 0-15.841-6.033-15.841-13.494" style="fill:none;stroke-width:3.4375;stroke-linecap:butt;stroke-linejoin:miter;stroke:#000;stroke-opacity:1;stroke-miterlimit:8" transform="matrix(.27666 0 0 .27645 -22.686 -55.566)"/><path d="M1427.504 801.502h404.995v154.993h-404.995Zm0 0" style="fill-rule:nonzero;fill:#fcd9d3;fill-opacity:1;stroke-width:3.4375;stroke-linecap:butt;stroke-linejoin:round;stroke:#000;stroke-opacity:1;stroke-miterlimit:10" transform="matrix(.27666 0 0 .27645 -22.686 -55.566)"/><g style="fill:#000;fill-opacity:1"><use xlink:href="#a" x="396.652" y="183.286"/><use xlink:href="#b" x="403.764" y="183.286"/><use xlink:href="#c" x="411.15" y="183.286"/><use xlink:href="#d" x="417.79" y="183.286"/><use xlink:href="#o" x="421.479" y="183.286"/><use xlink:href="#d" x="425.169" y="183.286"/><use xlink:href="#q" x="428.858" y="183.286"/><use xlink:href="#h" x="436.244" y="183.286"/><use xlink:href="#b" x="443.63" y="183.286"/><use xlink:href="#y" x="451.015" y="183.286"/><use xlink:href="#o" x="458.401" y="183.286"/></g><g style="fill:#000;fill-opacity:1"><use xlink:href="#w" x="409.891" y="199.321"/><use xlink:href="#z" x="420.953" y="199.321"/><use xlink:href="#y" x="428.338" y="199.321"/><use xlink:href="#b" x="435.724" y="199.321"/><use xlink:href="#n" x="443.11" y="199.321"/></g><g style="fill:#000;fill-opacity:1"><use xlink:href="#N" x="35.594" y="285.571"/><use xlink:href="#O" x="43.287" y="285.571"/></g><use xlink:href="#B" x="51.125" y="285.571" style="fill:#000;fill-opacity:1"/><g style="fill:#000;fill-opacity:1"><use xlink:href="#C" x="55.723" y="285.571"/><use xlink:href="#D" x="59.566" y="285.571"/><use xlink:href="#E" x="67.259" y="285.571"/><use xlink:href="#F" x="70.333" y="285.571"/></g><g style="fill:#000;fill-opacity:1"><use xlink:href="#L" x="47.164" y="302.435"/><use xlink:href="#M" x="57.154" y="302.435"/></g><path d="M223.484 209.133v17.515h.95v-17.515Zm-2.062 16.25 2.535 7.601 2.535-7.601ZM428.61 165.934V138.34h-.95v27.594Zm2.062-26.329-2.535-7.601-2.54 7.601ZM353.988 289.29h74.864V215.19h-.95v73.621l.473-.472h-74.387Zm76.926-72.833-2.539-7.602-2.535 7.602Zm0 0" style="stroke:none;fill-rule:nonzero;fill:#000;fill-opacity:1"/><path d="M403.494 1050.503h958.002v390.995H403.494Zm0 0" style="fill-rule:nonzero;fill:#d9d9d9;fill-opacity:1;stroke-width:3.4375;stroke-linecap:butt;stroke-linejoin:miter;stroke:#000;stroke-opacity:1;stroke-miterlimit:8" transform="matrix(.27666 0 0 .27645 -22.686 -55.566)"/><path d="M417.5 1070.497h71.994v72.996h-71.993Zm0 0" style="fill-rule:nonzero;fill:#ff0;fill-opacity:1;stroke-width:3.4375;stroke-linecap:butt;stroke-linejoin:miter;stroke:#000;stroke-opacity:1;stroke-miterlimit:8" transform="matrix(.27666 0 0 .27645 -22.686 -55.566)"/><path d="M503.5 1070.497h844.004v72.996H503.501ZM417.5 1163.502h71.994v74h-71.993Zm0 0" style="fill-rule:nonzero;fill:#caf297;fill-opacity:1;stroke-width:3.4375;stroke-linecap:butt;stroke-linejoin:miter;stroke:#000;stroke-opacity:1;stroke-miterlimit:8" transform="matrix(.27666 0 0 .27645 -22.686 -55.566)"/><path d="M503.5 1163.502h71.994v74h-71.993Zm0 0" style="fill-rule:nonzero;fill:#ff0;fill-opacity:1;stroke-width:3.4375;stroke-linecap:butt;stroke-linejoin:miter;stroke:#000;stroke-opacity:1;stroke-miterlimit:8" transform="matrix(.27666 0 0 .27645 -22.686 -55.566)"/><path d="M589.5 1163.502h758.004v74H589.501ZM417.5 1350.5h844.004v74H417.501Zm0 0" style="fill-rule:nonzero;fill:#caf297;fill-opacity:1;stroke-width:3.4375;stroke-linecap:butt;stroke-linejoin:miter;stroke:#000;stroke-opacity:1;stroke-miterlimit:8" transform="matrix(.27666 0 0 .27645 -22.686 -55.566)"/><path d="M1275.496 1350.5h72.008v74h-72.008Zm0 0" style="fill-rule:nonzero;fill:#ff0;fill-opacity:1;stroke-width:3.4375;stroke-linecap:butt;stroke-linejoin:miter;stroke:#000;stroke-opacity:1;stroke-miterlimit:8" transform="matrix(.27666 0 0 .27645 -22.686 -55.566)"/><g style="fill:#000;fill-opacity:1"><use xlink:href="#a" x="217.785" y="254.884"/><use xlink:href="#e" x="225.897" y="254.884"/><use xlink:href="#f" x="230.319" y="254.884"/><use xlink:href="#g" x="237.705" y="254.884"/><use xlink:href="#h" x="240.655" y="254.884"/></g><use xlink:href="#R" x="214.641" y="306.856" style="fill:#000;fill-opacity:1"/><path d="M224.434 146.934v12.863h-.95v-12.863Zm2.062 11.593-2.539 7.602-2.535-7.602Zm0 0" style="stroke:none;fill-rule:nonzero;fill:#000;fill-opacity:1"/><g style="fill:#000;fill-opacity:1"><use xlink:href="#S" x="399.82" y="64.138"/><use xlink:href="#T" x="411.343" y="64.138"/><use xlink:href="#U" x="419.037" y="64.138"/><use xlink:href="#V" x="426.73" y="64.138"/><use xlink:href="#W" x="434.423" y="64.138"/><use xlink:href="#X" x="442.873" y="64.138"/><use xlink:href="#T" x="448.256" y="64.138"/><use xlink:href="#Y" x="455.95" y="64.138"/></g><g style="fill:#000;fill-opacity:1"><use xlink:href="#Z" x="385.871" y="81.001"/><use xlink:href="#T" x="394.321" y="81.001"/><use xlink:href="#X" x="402.014" y="81.001"/><use xlink:href="#aa" x="407.398" y="81.001"/><use xlink:href="#ab" x="412.004" y="81.001"/><use xlink:href="#X" x="420.454" y="81.001"/><use xlink:href="#ac" x="425.837" y="81.001"/><use xlink:href="#U" x="438.137" y="81.001"/><use xlink:href="#ad" x="445.83" y="81.001"/><use xlink:href="#ae" x="454.28" y="81.001"/><use xlink:href="#T" x="461.973" y="81.001"/></g><g style="fill:#000;fill-opacity:1"><use xlink:href="#af" x="501.145" y="285.571"/><use xlink:href="#G" x="509.594" y="285.571"/><use xlink:href="#Q" x="517.288" y="285.571"/><use xlink:href="#I" x="524.981" y="285.571"/><use xlink:href="#K" x="532.674" y="285.571"/><use xlink:href="#ag" x="536.518" y="285.571"/><use xlink:href="#D" x="548.041" y="285.571"/><use xlink:href="#F" x="555.734" y="285.571"/><use xlink:href="#I" x="563.427" y="285.571"/><use xlink:href="#E" x="571.121" y="285.571"/><use xlink:href="#K" x="574.194" y="285.571"/></g><g style="fill:#000;fill-opacity:1"><use xlink:href="#ah" x="502.813" y="302.435"/><use xlink:href="#ai" x="510.506" y="302.435"/><use xlink:href="#J" x="518.199" y="302.435"/><use xlink:href="#ai" x="522.806" y="302.435"/><use xlink:href="#ag" x="530.499" y="302.435"/><use xlink:href="#I" x="542.022" y="302.435"/><use xlink:href="#H" x="549.715" y="302.435"/><use xlink:href="#I" x="553.559" y="302.435"/><use xlink:href="#J" x="561.252" y="302.435"/><use xlink:href="#aj" x="565.859" y="302.435"/></g><g style="fill:#000;fill-opacity:1"><use xlink:href="#au" x="92.188" y="31.79"/><use xlink:href="#av" x="103.997" y="31.79"/><use xlink:href="#aw" x="107.931" y="31.79"/><use xlink:href="#ax" x="117.778" y="31.79"/><use xlink:href="#ay" x="127.625" y="31.79"/><use xlink:href="#al" x="131.559" y="31.79"/><use xlink:href="#ap" x="141.406" y="31.79"/><use xlink:href="#az" x="146.326" y="31.79"/><use xlink:href="#aA" x="156.173" y="31.79"/><use xlink:href="#aB" x="166.02" y="31.79"/><use xlink:href="#an" x="171.916" y="31.79"/><use xlink:href="#av" x="176.836" y="31.79"/><use xlink:href="#an" x="180.77" y="31.79"/><use xlink:href="#av" x="185.689" y="31.79"/><use xlink:href="#aC" x="189.623" y="31.79"/><use xlink:href="#aw" x="199.47" y="31.79"/></g><g style="fill:#000;fill-opacity:1"><use xlink:href="#aD" x="392.813" y="119.977"/><use xlink:href="#s" x="400.198" y="119.977"/><use xlink:href="#aE" x="403.888" y="119.977"/><use xlink:href="#o" x="411.273" y="119.977"/><use xlink:href="#aF" x="414.963" y="119.977"/><use xlink:href="#z" x="422.348" y="119.977"/><use xlink:href="#n" x="429.734" y="119.977"/><use xlink:href="#y" x="432.684" y="119.977"/><use xlink:href="#o" x="440.07" y="119.977"/><use xlink:href="#z" x="443.759" y="119.977"/><use xlink:href="#q" x="451.145" y="119.977"/><use xlink:href="#d" x="458.531" y="119.977"/></g><g style="fill:#000;fill-opacity:1"><use xlink:href="#aG" x="199.879" y="118.872"/><use xlink:href="#s" x="207.264" y="118.872"/><use xlink:href="#aE" x="210.954" y="118.872"/><use xlink:href="#o" x="218.34" y="118.872"/><use xlink:href="#d" x="222.029" y="118.872"/><use xlink:href="#e" x="225.719" y="118.872"/><use xlink:href="#f" x="230.141" y="118.872"/><use xlink:href="#g" x="237.527" y="118.872"/><use xlink:href="#h" x="240.477" y="118.872"/></g></svg>