<svg width="2241" height="3176" xmlns="http://www.w3.org/2000/svg" xmlns:xlink="http://www.w3.org/1999/xlink" xml:space="preserve" overflow="hidden"><defs><clipPath id="clip0"><rect x="82" y="201" width="2241" height="3176"/></clipPath></defs><g clip-path="url(#clip0)" transform="translate(-82 -201)"><rect x="421.5" y="1782.5" width="1494" height="490" stroke="#000000" stroke-width="3.4375" stroke-linecap="butt" stroke-linejoin="miter" stroke-miterlimit="8" stroke-opacity="1" fill="#BFEBFA" fill-opacity="1"/><rect x="421.5" y="2949.5" width="1198" height="392" stroke="#000000" stroke-width="3.4375" stroke-linecap="butt" stroke-linejoin="miter" stroke-miterlimit="8" stroke-opacity="1" fill="#D9D9D9" fill-opacity="1"/><rect x="439.5" y="1798.5" width="276" height="72.9999" stroke="#000000" stroke-width="3.4375" stroke-linecap="butt" stroke-linejoin="miter" stroke-miterlimit="8" stroke-opacity="1" fill="#FCD9D3" fill-opacity="1"/><rect x="734.5" y="1798.5" width="1163" height="72.9999" stroke="#000000" stroke-width="3.4375" stroke-linecap="butt" stroke-linejoin="miter" stroke-miterlimit="8" stroke-opacity="1" fill="#8CC9F7" fill-opacity="1"/><rect x="439.5" y="1891.5" width="276" height="72.9999" stroke="#000000" stroke-width="3.4375" stroke-linecap="butt" stroke-linejoin="miter" stroke-miterlimit="8" stroke-opacity="1" fill="#8CC9F7" fill-opacity="1"/><rect x="734.5" y="1891.5" width="277" height="72.9999" stroke="#000000" stroke-width="3.4375" stroke-linecap="butt" stroke-linejoin="miter" stroke-miterlimit="8" stroke-opacity="1" fill="#FCD9D3" fill-opacity="1"/><rect x="1030.5" y="1891.5" width="867" height="72.9999" stroke="#000000" stroke-width="3.4375" stroke-linecap="butt" stroke-linejoin="miter" stroke-miterlimit="8" stroke-opacity="1" fill="#8CC9F7" fill-opacity="1"/><rect x="439.5" y="2179.5" width="1163" height="73.0002" stroke="#000000" stroke-width="3.4375" stroke-linecap="butt" stroke-linejoin="miter" stroke-miterlimit="8" stroke-opacity="1" fill="#8CC9F7" fill-opacity="1"/><rect x="1620.5" y="2179.5" width="277" height="73.0002" stroke="#000000" stroke-width="3.4375" stroke-linecap="butt" stroke-linejoin="miter" stroke-miterlimit="8" stroke-opacity="1" fill="#FCD9D3" fill-opacity="1"/><rect x="439.5" y="2969.5" width="99" height="72.9998" stroke="#000000" stroke-width="3.4375" stroke-linecap="butt" stroke-linejoin="miter" stroke-miterlimit="8" stroke-opacity="1" fill="#FFFF00" fill-opacity="1"/><rect x="557.5" y="2969.5" width="1045" height="74" stroke="#000000" stroke-width="3.4375" stroke-linecap="butt" stroke-linejoin="miter" stroke-miterlimit="8" stroke-opacity="1" fill="#CAF297" fill-opacity="1"/><rect x="439.5" y="3062.5" width="99" height="74" stroke="#000000" stroke-width="3.4375" stroke-linecap="butt" stroke-linejoin="miter" stroke-miterlimit="8" stroke-opacity="1" fill="#CAF297" fill-opacity="1"/><rect x="557.5" y="3062.5" width="99" height="74" stroke="#000000" stroke-width="3.4375" stroke-linecap="butt" stroke-linejoin="miter" stroke-miterlimit="8" stroke-opacity="1" fill="#FFFF00" fill-opacity="1"/><rect x="674.5" y="3062.5" width="928" height="74" stroke="#000000" stroke-width="3.4375" stroke-linecap="butt" stroke-linejoin="miter" stroke-miterlimit="8" stroke-opacity="1" fill="#CAF297" fill-opacity="1"/><rect x="439.5" y="3249.5" width="1045" height="74" stroke="#000000" stroke-width="3.4375" stroke-linecap="butt" stroke-linejoin="miter" stroke-miterlimit="8" stroke-opacity="1" fill="#CAF297" fill-opacity="1"/><rect x="1501.5" y="3249.5" width="101" height="74" stroke="#000000" stroke-width="3.4375" stroke-linecap="butt" stroke-linejoin="miter" stroke-miterlimit="8" stroke-opacity="1" fill="#FFFF00" fill-opacity="1"/><text fill="#000000" fill-opacity="1" font-family="Arial,Arial_MSFontService,sans-serif" font-style="normal" font-variant="normal" font-weight="400" font-stretch="normal" font-size="48" text-anchor="start" direction="ltr" writing-mode="lr-tb" unicode-bidi="normal" text-decoration="none" transform="matrix(1 0 0 1 541.147 1851)">Test</text><text fill="#000000" fill-opacity="1" font-family="Arial,Arial_MSFontService,sans-serif" font-style="normal" font-variant="normal" font-weight="400" font-stretch="normal" font-size="48" text-anchor="start" direction="ltr" writing-mode="lr-tb" unicode-bidi="normal" text-decoration="none" transform="matrix(1 0 0 1 1232.79 1851)">Train</text><text fill="#000000" fill-opacity="1" font-family="Arial,Arial_MSFontService,sans-serif" font-style="normal" font-variant="normal" font-weight="400" font-stretch="normal" font-size="48" text-anchor="start" direction="ltr" writing-mode="lr-tb" unicode-bidi="normal" text-decoration="none" transform="matrix(1 0 0 1 1018.11 3022)">Train</text><text fill="#000000" fill-opacity="1" font-family="Arial,Arial_MSFontService,sans-serif" font-style="normal" font-variant="normal" font-weight="400" font-stretch="normal" font-size="37" text-anchor="start" direction="ltr" writing-mode="lr-tb" unicode-bidi="normal" text-decoration="none" transform="matrix(1 0 0 1 452.592 3019)">Test</text><rect x="780.5" y="2700.5" width="479" height="155" stroke="#000000" stroke-width="3.4375" stroke-linecap="butt" stroke-linejoin="round" stroke-miterlimit="10" stroke-opacity="1" fill="#D9D9D9" fill-opacity="1"/><text fill="#000000" fill-opacity="1" font-family="Arial,Arial_MSFontService,sans-serif" font-style="normal" font-variant="normal" font-weight="400" font-stretch="normal" font-size="48" text-anchor="start" direction="ltr" writing-mode="lr-tb" unicode-bidi="normal" text-decoration="none" transform="matrix(1 0 0 1 837.072 2763)">Filter </text><text fill="#000000" fill-opacity="1" font-family="Arial,Arial_MSFontService,sans-serif" font-style="normal" font-variant="normal" font-weight="400" font-stretch="normal" font-size="48" text-anchor="start" direction="ltr" writing-mode="lr-tb" unicode-bidi="normal" text-decoration="none" transform="matrix(1 0 0 1 957.384 2763)">features +/</text><text fill="#000000" fill-opacity="1" font-family="Arial,Arial_MSFontService,sans-serif" font-style="normal" font-variant="normal" font-weight="400" font-stretch="normal" font-size="48" text-anchor="start" direction="ltr" writing-mode="lr-tb" unicode-bidi="normal" text-decoration="none" transform="matrix(1 0 0 1 1185.98 2763)">-</text><text fill="#000000" fill-opacity="1" font-family="Arial,Arial_MSFontService,sans-serif" font-style="normal" font-variant="normal" font-weight="400" font-stretch="normal" font-size="48" text-anchor="start" direction="ltr" writing-mode="lr-tb" unicode-bidi="normal" text-decoration="none" transform="matrix(1 0 0 1 838.218 2821)">balance samples</text><path d="M28.0002 392C20.2682 392 14.0001 384.646 14.0001 375.575L14.0001 212.426C14.0001 203.354 7.73204 196 2.33941e-15 196 7.73204 196 14.0001 188.646 14.0001 179.575L14.0001 16.4255C14.0001 7.35395 20.2682 0 28.0002 0" stroke="#000000" stroke-width="3.4375" stroke-linecap="butt" stroke-linejoin="miter" stroke-miterlimit="8" stroke-opacity="1" fill="none" fill-rule="evenodd" transform="matrix(-1 0 0 1 1964.5 2949.5)"/><path d="M28.0002 528C20.268 528 13.9998 520.646 13.9998 511.575L14.0004 280.426C14.0004 271.354 7.7322 264 3.15102e-15 264 7.7322 264 14.0004 256.646 14.0004 247.575L14.0004 16.4255C14.0004 7.35395 20.2686-2.10067e-15 28.0008-4.20134e-15" stroke="#000000" stroke-width="3.4375" stroke-linecap="butt" stroke-linejoin="miter" stroke-miterlimit="8" stroke-opacity="1" fill="none" fill-rule="evenodd" transform="matrix(-1 0 0 1 1964.5 1782.5)"/><path d="M1602.5 2590.5C1602.5 2597.96 1595.41 2604 1586.66 2604L1036.84 2604C1028.09 2604 1021 2610.04 1021 2617.5 1021 2610.04 1013.91 2604 1005.16 2604L455.339 2604C446.591 2604 439.5 2597.96 439.5 2590.5" stroke="#000000" stroke-width="3.4375" stroke-linecap="butt" stroke-linejoin="miter" stroke-miterlimit="8" stroke-opacity="1" fill="none" fill-rule="evenodd"/><rect x="1556.5" y="2700.5" width="406" height="155" stroke="#000000" stroke-width="3.4375" stroke-linecap="butt" stroke-linejoin="round" stroke-miterlimit="10" stroke-opacity="1" fill="#FCD9D3" fill-opacity="1"/><text fill="#000000" fill-opacity="1" font-family="Arial,Arial_MSFontService,sans-serif" font-style="normal" font-variant="normal" font-weight="400" font-stretch="normal" font-size="48" text-anchor="start" direction="ltr" writing-mode="lr-tb" unicode-bidi="normal" text-decoration="none" transform="matrix(1 0 0 1 1645.13 2763)">Test tuned </text><text fill="#000000" fill-opacity="1" font-family="Arial,Arial_MSFontService,sans-serif" font-style="normal" font-variant="normal" font-weight="400" font-stretch="normal" font-size="48" text-anchor="start" direction="ltr" writing-mode="lr-tb" unicode-bidi="normal" text-decoration="none" transform="matrix(1 0 0 1 1692.98 2821)">model</text><text fill="#000000" fill-opacity="1" font-family="Arial,Arial_MSFontService,sans-serif" font-style="normal" font-variant="normal" font-weight="400" font-stretch="normal" font-size="50" text-anchor="start" direction="ltr" writing-mode="lr-tb" unicode-bidi="normal" text-decoration="none" transform="matrix(1 0 0 1 241.375 2016)">5</text><text fill="#000000" fill-opacity="1" font-family="Arial,Arial_MSFontService,sans-serif" font-style="normal" font-variant="normal" font-weight="400" font-stretch="normal" font-size="50" text-anchor="start" direction="ltr" writing-mode="lr-tb" unicode-bidi="normal" text-decoration="none" transform="matrix(1 0 0 1 269.448 2016)">-</text><text fill="#000000" fill-opacity="1" font-family="Arial,Arial_MSFontService,sans-serif" font-style="normal" font-variant="normal" font-weight="400" font-stretch="normal" font-size="50" text-anchor="start" direction="ltr" writing-mode="lr-tb" unicode-bidi="normal" text-decoration="none" transform="matrix(1 0 0 1 286.063 2016)">fold</text><text fill="#000000" fill-opacity="1" font-family="Arial,Arial_MSFontService,sans-serif" font-style="normal" font-variant="normal" font-weight="400" font-stretch="normal" font-size="50" text-anchor="start" direction="ltr" writing-mode="lr-tb" unicode-bidi="normal" text-decoration="none" transform="matrix(1 0 0 1 204.984 2077)">outer CV</text><text fill="#000000" fill-opacity="1" font-family="Arial,Arial_MSFontService,sans-serif" font-style="normal" font-variant="normal" font-weight="400" font-stretch="normal" font-size="50" text-anchor="start" direction="ltr" writing-mode="lr-tb" unicode-bidi="normal" text-decoration="none" transform="matrix(1 0 0 1 227.328 3133)">10</text><text fill="#000000" fill-opacity="1" font-family="Arial,Arial_MSFontService,sans-serif" font-style="normal" font-variant="normal" font-weight="400" font-stretch="normal" font-size="50" text-anchor="start" direction="ltr" writing-mode="lr-tb" unicode-bidi="normal" text-decoration="none" transform="matrix(1 0 0 1 283.473 3133)">-</text><text fill="#000000" fill-opacity="1" font-family="Arial,Arial_MSFontService,sans-serif" font-style="normal" font-variant="normal" font-weight="400" font-stretch="normal" font-size="50" text-anchor="start" direction="ltr" writing-mode="lr-tb" unicode-bidi="normal" text-decoration="none" transform="matrix(1 0 0 1 300.088 3133)">fold</text><text fill="#000000" fill-opacity="1" font-family="Arial,Arial_MSFontService,sans-serif" font-style="normal" font-variant="normal" font-weight="400" font-stretch="normal" font-size="50" text-anchor="start" direction="ltr" writing-mode="lr-tb" unicode-bidi="normal" text-decoration="none" transform="matrix(1 0 0 1 206.13 3194)">inner CV</text><path d="M1022.22 2855.49 1022.7 2924.64 1019.26 2924.66 1018.78 2855.51ZM1030.12 2920 1021.14 2947.57 1011.78 2920.13Z" fill="#000000" fill-rule="nonzero" fill-opacity="1"/><path d="M1.71875-5.05382e-06 1.71904 99.8189-1.71846 99.8189-1.71875 5.05382e-06ZM9.16695 95.2355 0.000360892 122.736-9.16639 95.2355Z" fill="#000000" fill-rule="nonzero" fill-opacity="1" transform="matrix(1 0 0 -1 1759.5 2700.24)"/><path d="M0-1.71875 141.536-1.71875 141.536 266.344 138.099 266.344 138.099 0 139.818 1.71875 0 1.71875ZM148.984 261.761 139.818 289.261 130.651 261.761Z" fill="#000000" fill-rule="nonzero" fill-opacity="1" transform="matrix(1 0 0 -1 1619.5 3144.76)"/><text fill="#000000" fill-opacity="1" font-family="Arial,Arial_MSFontService,sans-serif" font-style="normal" font-variant="normal" font-weight="400" font-stretch="normal" font-size="48" text-anchor="start" direction="ltr" writing-mode="lr-tb" unicode-bidi="normal" text-decoration="none" transform="matrix(1 0 0 1 996.126 3210)">…</text><path d="M1022.22 2631.5 1022.22 2677.02 1018.78 2677.02 1018.78 2631.5ZM1029.67 2672.44 1020.5 2699.94 1011.33 2672.44Z" fill="#000000" fill-rule="nonzero" fill-opacity="1"/><text fill="#000000" fill-opacity="1" font-family="Arial,Arial_MSFontService,sans-serif" font-style="normal" font-variant="normal" font-weight="700" font-stretch="normal" font-size="50" text-anchor="start" direction="ltr" writing-mode="lr-tb" unicode-bidi="normal" text-decoration="none" transform="matrix(1 0 0 1 2016.44 2033)">Measure </text><text fill="#000000" fill-opacity="1" font-family="Arial,Arial_MSFontService,sans-serif" font-style="normal" font-variant="normal" font-weight="700" font-stretch="normal" font-size="50" text-anchor="start" direction="ltr" writing-mode="lr-tb" unicode-bidi="normal" text-decoration="none" transform="matrix(1 0 0 1 1966.02 2094)">performance</text><text fill="#000000" fill-opacity="1" font-family="Arial,Arial_MSFontService,sans-serif" font-style="normal" font-variant="normal" font-weight="400" font-stretch="normal" font-size="50" text-anchor="start" direction="ltr" writing-mode="lr-tb" unicode-bidi="normal" text-decoration="none" transform="matrix(1 0 0 1 1985.5 3133)">Tune model </text><text fill="#000000" fill-opacity="1" font-family="Arial,Arial_MSFontService,sans-serif" font-style="normal" font-variant="normal" font-weight="400" font-stretch="normal" font-size="50" text-anchor="start" direction="ltr" writing-mode="lr-tb" unicode-bidi="normal" text-decoration="none" transform="matrix(1 0 0 1 1991.53 3194)">parameters</text><rect x="439.5" y="2486.5" width="1163" height="73.0002" stroke="#000000" stroke-width="3.4375" stroke-linecap="butt" stroke-linejoin="miter" stroke-miterlimit="8" stroke-opacity="1" fill="#8CC9F7" fill-opacity="1"/><rect x="1620.5" y="2486.5" width="277" height="73.0002" stroke="#000000" stroke-width="3.4375" stroke-linecap="butt" stroke-linejoin="miter" stroke-miterlimit="8" stroke-opacity="1" fill="#FCD9D3" fill-opacity="1"/><path d="M439.5 2218.22 366.52 2218.22 368.239 2216.5 368.239 2393.72 366.52 2392 1022.83 2392 1022.83 2463.76 1019.39 2463.76 1019.39 2393.72 1021.11 2395.44 364.801 2395.44 364.801 2214.78 439.5 2214.78ZM1030.28 2459.18 1021.11 2486.68 1011.94 2459.18Z" fill="#000000" fill-rule="nonzero" fill-opacity="1"/><path d="M0-1.71875 13.75-1.71875 13.75 1.71875 0 1.71875ZM24.0625-1.71875 37.8125-1.71875 37.8125 1.71875 24.0625 1.71875ZM48.125-1.71875 58.7307-1.71875 58.7307 4.86302 55.2932 4.86302 55.2932 0 57.012 1.71875 48.125 1.71875ZM58.7307 15.1755 58.7307 28.9255 55.2932 28.9255 55.2932 15.1755ZM58.7307 39.238 58.7307 52.988 55.2932 52.988 55.2932 39.238ZM58.7307 63.3005 58.7307 77.0505 55.2932 77.0505 55.2932 63.3005ZM58.7307 87.363 58.7307 101.113 55.2932 101.113 55.2932 87.363ZM58.7307 111.426 58.7307 125.176 55.2932 125.176 55.2932 111.426ZM58.7307 135.488 58.7307 141.955 55.2932 141.955 55.2932 135.488ZM66.1786 137.372 57.012 164.872 47.8453 137.372Z" fill="#000000" fill-rule="nonzero" fill-opacity="1" transform="matrix(1.83697e-16 1 1 -1.83697e-16 1759.5 2252.5)"/><rect x="439.5" y="1984.5" width="572" height="72.9998" stroke="#000000" stroke-width="3.4375" stroke-linecap="butt" stroke-linejoin="miter" stroke-miterlimit="8" stroke-opacity="1" fill="#8CC9F7" fill-opacity="1"/><rect x="1325.5" y="1984.5" width="572" height="72.9998" stroke="#000000" stroke-width="3.4375" stroke-linecap="butt" stroke-linejoin="miter" stroke-miterlimit="8" stroke-opacity="1" fill="#8CC9F7" fill-opacity="1"/><rect x="1030.5" y="1984.5" width="277" height="72.9998" stroke="#000000" stroke-width="3.4375" stroke-linecap="butt" stroke-linejoin="miter" stroke-miterlimit="8" stroke-opacity="1" fill="#FCD9D3" fill-opacity="1"/><rect x="439.5" y="2080.5" width="866" height="73.0002" stroke="#000000" stroke-width="3.4375" stroke-linecap="butt" stroke-linejoin="miter" stroke-miterlimit="8" stroke-opacity="1" fill="#8CC9F7" fill-opacity="1"/><rect x="1323.5" y="2080.5" width="278" height="73.0002" stroke="#000000" stroke-width="3.4375" stroke-linecap="butt" stroke-linejoin="miter" stroke-miterlimit="8" stroke-opacity="1" fill="#FCD9D3" fill-opacity="1"/><rect x="1619.5" y="2080.5" width="278" height="73.0002" stroke="#000000" stroke-width="3.4375" stroke-linecap="butt" stroke-linejoin="miter" stroke-miterlimit="8" stroke-opacity="1" fill="#8CC9F7" fill-opacity="1"/><path d="M0-1.71875 13.75-1.71875 13.75 1.71875 0 1.71875ZM24.0625-1.71875 37.8125-1.71875 37.8125 1.71875 24.0625 1.71875ZM48.125-1.71875 61.875-1.71875 61.875 1.71875 48.125 1.71875ZM72.1875-1.71875 85.9375-1.71875 85.9375 1.71875 72.1875 1.71875ZM96.25-1.71875 110-1.71875 110 1.71875 96.25 1.71875ZM120.312-1.71875 134.062-1.71875 134.062 1.71875 120.312 1.71875ZM144.375-1.71875 158.153-1.71875 158.153 1.69114 154.715 1.69114 154.715 0 156.434 1.71875 144.375 1.71875ZM158.153 12.0036 158.153 25.7536 154.715 25.7536 154.715 12.0036ZM158.153 36.0661 158.153 49.8161 154.715 49.8161 154.715 36.0661ZM158.153 60.1286 158.153 73.8786 154.715 73.8786 154.715 60.1286ZM158.153 84.1911 158.153 97.9411 154.715 97.9411 154.715 84.1911ZM158.153 108.254 158.153 122.004 154.715 122.004 154.715 108.254ZM158.153 132.316 158.153 146.066 154.715 146.066 154.715 132.316ZM158.153 156.379 158.153 170.129 154.715 170.129 154.715 156.379ZM158.153 180.441 158.153 194.191 154.715 194.191 154.715 180.441ZM158.153 204.504 158.153 218.254 154.715 218.254 154.715 204.504ZM158.153 228.566 158.153 242.316 154.715 242.316 154.715 228.566ZM158.153 252.629 158.153 253.17 154.715 253.17 154.715 252.629ZM165.601 248.586 156.434 276.086 147.267 248.586Z" fill="#000000" fill-rule="nonzero" fill-opacity="1" transform="matrix(1.83697e-16 1 1 -1.83697e-16 1462.5 2153.5)"/><path d="M0-1.71875 13.75-1.71875 13.75 1.71875 0 1.71875ZM24.0625-1.71875 37.8125-1.71875 37.8125 1.71875 24.0625 1.71875ZM48.125-1.71875 61.875-1.71875 61.875 1.71875 48.125 1.71875ZM72.1875-1.71875 85.9375-1.71875 85.9375 1.71875 72.1875 1.71875ZM96.25-1.71875 110-1.71875 110 1.71875 96.25 1.71875ZM120.312-1.71875 134.062-1.71875 134.062 1.71875 120.312 1.71875ZM144.375-1.71875 158.125-1.71875 158.125 1.71875 144.375 1.71875ZM168.438-1.71875 182.188-1.71875 182.188 1.71875 168.438 1.71875ZM192.5-1.71875 206.25-1.71875 206.25 1.71875 192.5 1.71875ZM216.562-1.71875 230.312-1.71875 230.312 1.71875 216.562 1.71875ZM240.625-1.71875 254.375-1.71875 254.375 1.71875 240.625 1.71875ZM264.688-1.71875 278.438-1.71875 278.438 1.71875 264.688 1.71875ZM288.75-1.71875 302.5-1.71875 302.5 1.71875 288.75 1.71875ZM312.812-1.71875 326.562-1.71875 326.562 1.71875 312.812 1.71875ZM336.875-1.71875 350.625-1.71875 350.625 1.71875 336.875 1.71875ZM360.938-1.71875 374.688-1.71875 374.688 1.71875 360.938 1.71875ZM385-1.71875 398.75-1.71875 398.75 1.71875 385 1.71875ZM409.062-1.71875 422.812-1.71875 422.812 1.71875 409.062 1.71875ZM429.717 5.12539 429.712 18.8754 426.274 18.874 426.28 5.12404ZM429.708 29.1879 429.702 42.9379 426.265 42.9365 426.27 29.1865ZM429.698 53.2504 429.693 67.0004 426.255 66.999 426.261 53.249ZM429.689 77.3129 429.683 91.0629 426.246 91.0615 426.251 77.3115ZM429.679 101.375 429.674 115.125 426.236 115.124 426.242 101.374ZM429.67 125.438 429.664 139.188 426.227 139.187 426.232 125.437ZM429.66 149.5 429.655 163.25 426.217 163.249 426.223 149.499ZM429.651 173.563 429.646 187.313 426.208 187.312 426.213 173.562ZM429.641 197.625 429.636 211.375 426.199 211.374 426.204 197.624ZM429.632 221.688 429.629 230.504 426.191 230.503 426.195 221.687ZM437.165 226.102 427.458 253.416 418.835 225.74Z" fill="#000000" fill-rule="nonzero" fill-opacity="1" transform="matrix(1.83697e-16 1 1 -1.83697e-16 591.5 1882.5)"/><path d="M0-1.71875 13.75-1.71875 13.75 1.71875 0 1.71875ZM24.0625-1.71875 37.8125-1.71875 37.8125 1.71875 24.0625 1.71875ZM48.125-1.71875 61.875-1.71875 61.875 1.71875 48.125 1.71875ZM72.1875-1.71875 85.9375-1.71875 85.9375 1.71875 72.1875 1.71875ZM96.25-1.71875 110-1.71875 110 1.71875 96.25 1.71875ZM120.312-1.71875 134.062-1.71875 134.062 1.71875 120.312 1.71875ZM144.375-1.71875 158.125-1.71875 158.125 1.71875 144.375 1.71875ZM168.438-1.71875 182.188-1.71875 182.188 1.71875 168.438 1.71875ZM192.5-1.71875 206.25-1.71875 206.25 1.71875 192.5 1.71875ZM216.562-1.71875 230.312-1.71875 230.312 1.71875 216.562 1.71875ZM240.625-1.71875 254.375-1.71875 254.375 1.71875 240.625 1.71875ZM264.688-1.71875 278.438-1.71875 278.438 1.71875 264.688 1.71875ZM288.75-1.71875 302.5-1.71875 302.5 1.71875 288.75 1.71875ZM312.812-1.71875 326.562-1.71875 326.562 1.71875 312.812 1.71875ZM336.875-1.71875 347.364-1.71875 347.363 4.98018 343.925 4.97928 343.927-0.000451536 345.645 1.71875 336.875 1.71875ZM347.36 15.2927 347.356 29.0427 343.919 29.0418 343.922 15.2918ZM347.354 39.3552 347.35 53.1052 343.912 53.1043 343.916 39.3543ZM347.347 63.4177 347.344 77.1677 343.906 77.1668 343.91 63.4168ZM347.341 87.4802 347.337 101.23 343.9 101.229 343.903 87.4793ZM347.335 111.543 347.331 125.293 343.893 125.292 343.897 111.542ZM347.328 135.605 347.325 149.355 343.887 149.354 343.891 135.604ZM347.322 159.668 347.318 173.418 343.881 173.417 343.884 159.667ZM347.315 183.73 347.312 197.48 343.874 197.479 343.878 183.729ZM347.309 207.793 347.305 221.543 343.868 221.542 343.872 207.792ZM347.303 231.855 347.299 245.605 343.862 245.604 343.865 231.854ZM354.811 245.882 345.248 273.247 336.48 245.618Z" fill="#000000" fill-rule="nonzero" fill-opacity="1" transform="matrix(1.83697e-16 1 1 -1.83697e-16 872.5 1964.5)"/><path d="M0-1.71875 13.75-1.71875 13.75 1.71875 0 1.71875ZM24.0625-1.71875 37.8125-1.71875 37.8125 1.71875 24.0625 1.71875ZM48.125-1.71875 61.875-1.71875 61.875 1.71875 48.125 1.71875ZM72.1875-1.71875 85.9375-1.71875 85.9375 1.71875 72.1875 1.71875ZM96.25-1.71875 110-1.71875 110 1.71875 96.25 1.71875ZM120.312-1.71875 134.062-1.71875 134.062 1.71875 120.312 1.71875ZM144.375-1.71875 158.125-1.71875 158.125 1.71875 144.375 1.71875ZM168.438-1.71875 182.188-1.71875 182.188 1.71875 168.438 1.71875ZM192.5-1.71875 206.25-1.71875 206.25 1.71875 192.5 1.71875ZM216.562-1.71875 230.312-1.71875 230.312 1.71875 216.562 1.71875ZM240.625-1.71875 254.266-1.71875 254.266 1.82792 250.828 1.82792 250.828 0 252.547 1.71875 240.625 1.71875ZM254.266 12.1404 254.266 25.8904 250.828 25.8904 250.828 12.1404ZM254.266 36.2029 254.266 49.9529 250.828 49.9529 250.828 36.2029ZM254.266 60.2654 254.266 74.0154 250.828 74.0154 250.828 60.2654ZM254.266 84.3279 254.266 98.0779 250.828 98.0779 250.828 84.3279ZM254.266 108.39 254.266 122.14 250.828 122.14 250.828 108.39ZM254.266 132.453 254.266 146.203 250.828 146.203 250.828 132.453ZM254.266 156.515 254.266 170.265 250.828 170.265 250.828 156.515ZM254.266 180.578 254.266 194.328 250.828 194.328 250.828 180.578ZM254.266 204.64 254.266 218.39 250.828 218.39 250.828 204.64ZM254.266 228.703 254.266 242.453 250.828 242.453 250.828 228.703ZM261.714 241.657 252.547 269.157 243.38 241.657Z" fill="#000000" fill-rule="nonzero" fill-opacity="1" transform="matrix(1.83697e-16 1 1 -1.83697e-16 1169.5 2057.5)"/><text fill="#000000" fill-opacity="1" font-family="Arial,Arial_MSFontService,sans-serif" font-style="normal" font-variant="normal" font-weight="400" font-stretch="normal" font-size="64" text-anchor="start" direction="ltr" writing-mode="lr-tb" unicode-bidi="normal" text-decoration="none" transform="matrix(1 0 0 1 447.67 1677)">Nested CV</text><path d="M182.5 1737.52C182.5 1725.91 191.909 1716.5 203.515 1716.5L2272.48 1716.5C2284.09 1716.5 2293.5 1725.91 2293.5 1737.52L2293.5 3351.48C2293.5 3363.09 2284.09 3372.5 2272.48 3372.5L203.515 3372.5C191.909 3372.5 182.5 3363.09 182.5 3351.48Z" stroke="#BFBFBF" stroke-width="3.4375" stroke-linecap="butt" stroke-linejoin="miter" stroke-miterlimit="8" stroke-opacity="1" fill="none" fill-rule="evenodd"/><text fill="#000000" fill-opacity="1" font-family="Arial,Arial_MSFontService,sans-serif" font-style="normal" font-variant="normal" font-weight="700" font-stretch="normal" font-size="92" text-anchor="start" direction="ltr" writing-mode="lr-tb" unicode-bidi="normal" text-decoration="none" transform="matrix(1 0 0 1 183.598 320)">C</text><text fill="#000000" fill-opacity="1" font-family="Arial,Arial_MSFontService,sans-serif" font-style="normal" font-variant="normal" font-weight="700" font-stretch="normal" font-size="92" text-anchor="start" direction="ltr" writing-mode="lr-tb" unicode-bidi="normal" text-decoration="none" transform="matrix(1 0 0 1 183.598 1680)">D</text><path d="M182.5 379.839C182.5 371.92 188.92 365.5 196.839 365.5L2279.16 365.5C2287.08 365.5 2293.5 371.92 2293.5 379.839L2293.5 1481.13C2293.5 1489.05 2287.08 1495.47 2279.16 1495.47L196.839 1495.47C188.92 1495.47 182.5 1489.05 182.5 1481.13Z" stroke="#BFBFBF" stroke-width="3.4375" stroke-linecap="butt" stroke-linejoin="miter" stroke-miterlimit="8" stroke-opacity="1" fill="none" fill-rule="evenodd"/><rect x="422.5" y="579.5" width="939" height="72.9999" stroke="#000000" stroke-width="3.4375" stroke-linecap="butt" stroke-linejoin="miter" stroke-miterlimit="8" stroke-opacity="1" fill="#8CC9F7" fill-opacity="1"/><rect x="1378.5" y="579.5" width="503" height="72.9999" stroke="#000000" stroke-width="3.4375" stroke-linecap="butt" stroke-linejoin="miter" stroke-miterlimit="8" stroke-opacity="1" fill="#FCD9D3" fill-opacity="1"/><rect x="640.5" y="801.5" width="503" height="156" stroke="#000000" stroke-width="3.4375" stroke-linecap="butt" stroke-linejoin="round" stroke-miterlimit="10" stroke-opacity="1" fill="#D9D9D9" fill-opacity="1"/><text fill="#000000" fill-opacity="1" font-family="Arial,Arial_MSFontService,sans-serif" font-style="normal" font-variant="normal" font-weight="400" font-stretch="normal" font-size="48" text-anchor="start" direction="ltr" writing-mode="lr-tb" unicode-bidi="normal" text-decoration="none" transform="matrix(1 0 0 1 708.956 865)">Filter </text><text fill="#000000" fill-opacity="1" font-family="Arial,Arial_MSFontService,sans-serif" font-style="normal" font-variant="normal" font-weight="400" font-stretch="normal" font-size="48" text-anchor="start" direction="ltr" writing-mode="lr-tb" unicode-bidi="normal" text-decoration="none" transform="matrix(1 0 0 1 829.269 865)">features +/</text><text fill="#000000" fill-opacity="1" font-family="Arial,Arial_MSFontService,sans-serif" font-style="normal" font-variant="normal" font-weight="400" font-stretch="normal" font-size="48" text-anchor="start" direction="ltr" writing-mode="lr-tb" unicode-bidi="normal" text-decoration="none" transform="matrix(1 0 0 1 1057.86 865)">-</text><text fill="#000000" fill-opacity="1" font-family="Arial,Arial_MSFontService,sans-serif" font-style="normal" font-variant="normal" font-weight="400" font-stretch="normal" font-size="48" text-anchor="start" direction="ltr" writing-mode="lr-tb" unicode-bidi="normal" text-decoration="none" transform="matrix(1 0 0 1 710.102 923)">balance samples</text><path d="M27.9998 391C20.2679 391 13.9999 383.646 13.9999 374.574L13.9999 211.925C13.9999 202.854 7.73194 195.5 1.55563e-15 195.5 7.73194 195.5 13.9999 188.146 13.9999 179.074L13.9999 16.4255C13.9999 7.35395 20.2679 0 27.9998 0" stroke="#000000" stroke-width="3.4375" stroke-linecap="butt" stroke-linejoin="miter" stroke-miterlimit="8" stroke-opacity="1" fill="none" fill-rule="evenodd" transform="matrix(-1 0 0 1 1875.5 1050.5)"/><path d="M27.9998 501C20.2677 501 13.9996 493.646 13.9996 484.574L14.0002 266.925C14.0002 257.854 7.73209 250.5 1.99328e-15 250.5 7.73209 250.5 14.0002 243.146 14.0002 234.074L14.0002 16.4255C14.0002 7.35395 20.2683 0 28.0004 0" stroke="#000000" stroke-width="3.4375" stroke-linecap="butt" stroke-linejoin="miter" stroke-miterlimit="8" stroke-opacity="1" fill="none" fill-rule="evenodd" transform="matrix(1.83697e-16 1 1 -1.83697e-16 1380.5 524.5)"/><path d="M1361.5 691.5C1361.5 698.956 1354.41 705 1345.66 705L907.839 705C899.091 705 892 711.044 892 718.5 892 711.044 884.909 705 876.161 705L438.339 705C429.591 705 422.5 698.956 422.5 691.5" stroke="#000000" stroke-width="3.4375" stroke-linecap="butt" stroke-linejoin="miter" stroke-miterlimit="8" stroke-opacity="1" fill="none" fill-rule="evenodd"/><rect x="1427.5" y="801.5" width="405" height="155" stroke="#000000" stroke-width="3.4375" stroke-linecap="butt" stroke-linejoin="round" stroke-miterlimit="10" stroke-opacity="1" fill="#FCD9D3" fill-opacity="1"/><text fill="#000000" fill-opacity="1" font-family="Arial,Arial_MSFontService,sans-serif" font-style="normal" font-variant="normal" font-weight="400" font-stretch="normal" font-size="48" text-anchor="start" direction="ltr" writing-mode="lr-tb" unicode-bidi="normal" text-decoration="none" transform="matrix(1 0 0 1 1515.7 864)">Test tuned </text><text fill="#000000" fill-opacity="1" font-family="Arial,Arial_MSFontService,sans-serif" font-style="normal" font-variant="normal" font-weight="400" font-stretch="normal" font-size="48" text-anchor="start" direction="ltr" writing-mode="lr-tb" unicode-bidi="normal" text-decoration="none" transform="matrix(1 0 0 1 1563.55 922)">model</text><text fill="#000000" fill-opacity="1" font-family="Arial,Arial_MSFontService,sans-serif" font-style="normal" font-variant="normal" font-weight="400" font-stretch="normal" font-size="50" text-anchor="start" direction="ltr" writing-mode="lr-tb" unicode-bidi="normal" text-decoration="none" transform="matrix(1 0 0 1 210.65 1234)">10</text><text fill="#000000" fill-opacity="1" font-family="Arial,Arial_MSFontService,sans-serif" font-style="normal" font-variant="normal" font-weight="400" font-stretch="normal" font-size="50" text-anchor="start" direction="ltr" writing-mode="lr-tb" unicode-bidi="normal" text-decoration="none" transform="matrix(1 0 0 1 266.796 1234)">-</text><text fill="#000000" fill-opacity="1" font-family="Arial,Arial_MSFontService,sans-serif" font-style="normal" font-variant="normal" font-weight="400" font-stretch="normal" font-size="50" text-anchor="start" direction="ltr" writing-mode="lr-tb" unicode-bidi="normal" text-decoration="none" transform="matrix(1 0 0 1 283.411 1234)">fold</text><text fill="#000000" fill-opacity="1" font-family="Arial,Arial_MSFontService,sans-serif" font-style="normal" font-variant="normal" font-weight="400" font-stretch="normal" font-size="50" text-anchor="start" direction="ltr" writing-mode="lr-tb" unicode-bidi="normal" text-decoration="none" transform="matrix(1 0 0 1 252.473 1295)">CV</text><path d="M1.71875-7.18911e-06 1.71902 63.3644-1.71848 63.3644-1.71875 7.18911e-06ZM9.16691 58.781 0.000360892 86.2811-9.16642 58.7811Z" fill="#000000" fill-rule="nonzero" fill-opacity="1" transform="matrix(-1 0 0 1 891.5 957.5)"/><path d="M1.71875-5.05382e-06 1.71904 99.8189-1.71846 99.8189-1.71875 5.05382e-06ZM9.16695 95.2355 0.000360892 122.736-9.16639 95.2355Z" fill="#000000" fill-rule="nonzero" fill-opacity="1" transform="matrix(1 0 0 -1 1629.5 801.236)"/><path d="M0-1.71875 270.593-1.71875 270.593 266.315 267.155 266.315 267.155 0 268.874 1.71875 0 1.71875ZM278.041 261.732 268.874 289.232 259.708 261.732Z" fill="#000000" fill-rule="nonzero" fill-opacity="1" transform="matrix(1 0 0 -1 1361.5 1245.73)"/><rect x="403.5" y="1050.5" width="958" height="391" stroke="#000000" stroke-width="3.4375" stroke-linecap="butt" stroke-linejoin="miter" stroke-miterlimit="8" stroke-opacity="1" fill="#D9D9D9" fill-opacity="1"/><rect x="417.5" y="1070.5" width="71.9998" height="73.0002" stroke="#000000" stroke-width="3.4375" stroke-linecap="butt" stroke-linejoin="miter" stroke-miterlimit="8" stroke-opacity="1" fill="#FFFF00" fill-opacity="1"/><rect x="503.5" y="1070.5" width="844" height="73.0002" stroke="#000000" stroke-width="3.4375" stroke-linecap="butt" stroke-linejoin="miter" stroke-miterlimit="8" stroke-opacity="1" fill="#CAF297" fill-opacity="1"/><rect x="417.5" y="1163.5" width="71.9998" height="73.9999" stroke="#000000" stroke-width="3.4375" stroke-linecap="butt" stroke-linejoin="miter" stroke-miterlimit="8" stroke-opacity="1" fill="#CAF297" fill-opacity="1"/><rect x="503.5" y="1163.5" width="71.9998" height="73.9999" stroke="#000000" stroke-width="3.4375" stroke-linecap="butt" stroke-linejoin="miter" stroke-miterlimit="8" stroke-opacity="1" fill="#FFFF00" fill-opacity="1"/><rect x="589.5" y="1163.5" width="758" height="73.9999" stroke="#000000" stroke-width="3.4375" stroke-linecap="butt" stroke-linejoin="miter" stroke-miterlimit="8" stroke-opacity="1" fill="#CAF297" fill-opacity="1"/><rect x="417.5" y="1350.5" width="844" height="73.9999" stroke="#000000" stroke-width="3.4375" stroke-linecap="butt" stroke-linejoin="miter" stroke-miterlimit="8" stroke-opacity="1" fill="#CAF297" fill-opacity="1"/><rect x="1275.5" y="1350.5" width="71.9999" height="73.9999" stroke="#000000" stroke-width="3.4375" stroke-linecap="butt" stroke-linejoin="miter" stroke-miterlimit="8" stroke-opacity="1" fill="#FFFF00" fill-opacity="1"/><text fill="#000000" fill-opacity="1" font-family="Arial,Arial_MSFontService,sans-serif" font-style="normal" font-variant="normal" font-weight="400" font-stretch="normal" font-size="48" text-anchor="start" direction="ltr" writing-mode="lr-tb" unicode-bidi="normal" text-decoration="none" transform="matrix(1 0 0 1 869.187 1123)">Train</text><text fill="#000000" fill-opacity="1" font-family="Arial,Arial_MSFontService,sans-serif" font-style="normal" font-variant="normal" font-weight="400" font-stretch="normal" font-size="48" text-anchor="start" direction="ltr" writing-mode="lr-tb" unicode-bidi="normal" text-decoration="none" transform="matrix(1 0 0 1 857.822 1311)">…</text><path d="M893.219 732.5 893.219 779.029 889.781 779.029 889.781 732.5ZM900.667 774.445 891.5 801.945 882.333 774.446Z" fill="#000000" fill-rule="nonzero" fill-opacity="1"/><text fill="#000000" fill-opacity="1" font-family="Arial,Arial_MSFontService,sans-serif" font-style="normal" font-variant="normal" font-weight="700" font-stretch="normal" font-size="50" text-anchor="start" direction="ltr" writing-mode="lr-tb" unicode-bidi="normal" text-decoration="none" transform="matrix(1 0 0 1 1527.16 433)">Measure </text><text fill="#000000" fill-opacity="1" font-family="Arial,Arial_MSFontService,sans-serif" font-style="normal" font-variant="normal" font-weight="700" font-stretch="normal" font-size="50" text-anchor="start" direction="ltr" writing-mode="lr-tb" unicode-bidi="normal" text-decoration="none" transform="matrix(1 0 0 1 1476.74 494)">performance</text><text fill="#000000" fill-opacity="1" font-family="Arial,Arial_MSFontService,sans-serif" font-style="normal" font-variant="normal" font-weight="400" font-stretch="normal" font-size="50" text-anchor="start" direction="ltr" writing-mode="lr-tb" unicode-bidi="normal" text-decoration="none" transform="matrix(1 0 0 1 1893.39 1234)">Tune model </text><text fill="#000000" fill-opacity="1" font-family="Arial,Arial_MSFontService,sans-serif" font-style="normal" font-variant="normal" font-weight="400" font-stretch="normal" font-size="50" text-anchor="start" direction="ltr" writing-mode="lr-tb" unicode-bidi="normal" text-decoration="none" transform="matrix(1 0 0 1 1899.42 1295)">parameters</text><text fill="#000000" fill-opacity="1" font-family="Arial,Arial_MSFontService,sans-serif" font-style="normal" font-variant="normal" font-weight="400" font-stretch="normal" font-size="64" text-anchor="start" direction="ltr" writing-mode="lr-tb" unicode-bidi="normal" text-decoration="none" transform="matrix(1 0 0 1 415.218 316)">Single partition</text><text fill="#000000" fill-opacity="1" font-family="Arial,Arial_MSFontService,sans-serif" font-style="normal" font-variant="normal" font-weight="400" font-stretch="normal" font-size="48" text-anchor="start" direction="ltr" writing-mode="lr-tb" unicode-bidi="normal" text-decoration="none" transform="matrix(1 0 0 1 1501.83 635)">1/3 hold out</text><text fill="#000000" fill-opacity="1" font-family="Arial,Arial_MSFontService,sans-serif" font-style="normal" font-variant="normal" font-weight="400" font-stretch="normal" font-size="48" text-anchor="start" direction="ltr" writing-mode="lr-tb" unicode-bidi="normal" text-decoration="none" transform="matrix(1 0 0 1 804.463 631)">2/3 train</text></g></svg>