<?xml version="1.0" encoding="UTF-8" standalone="no"?>
<!DOCTYPE svg PUBLIC "-//W3C//DTD SVG 1.1//EN" "http://www.w3.org/Graphics/SVG/1.1/DTD/svg11.dtd">
<svg xmlns="http://www.w3.org/2000/svg" xmlns:xlink="http://www.w3.org/1999/xlink" version="1.1" width="595.2756pt" height="841.8898pt" viewBox="0 0 595.2756 841.8898">
<g enable-background="new">
<clipPath id="cp0">
<path transform="matrix(1,0,0,-1,0,841.8898)" d="M 12.00003 9.009758 L 583 9.009758 L 583 833.8898 L 12.00003 833.8898 Z "/>
</clipPath>
<g clip-path="url(#cp0)">
<path transform="matrix(1,0,0,-1,0,841.8898)" d="M 12.00003 833.8897 L 583 833.8897 L 583 9.009758 L 12.00003 9.009758 Z " fill="#ffffff"/>
</g>
<clipPath id="cp1">
<path transform="matrix(1,0,0,-1,0,841.8898)" d="M 12.00003 8.88974 L 583 8.88974 L 583 833.8898 L 12.00003 833.8898 Z "/>
</clipPath>
<g clip-path="url(#cp1)">
<path transform="matrix(1,0,0,-1,0,841.8898)" d="M 12.00003 833.8897 L 583 833.8897 L 583 8.889724 L 12.00003 8.889724 Z " fill="#ffffff"/>
<path transform="matrix(1,0,0,-1,0,841.8898)" d="M 111.382 422.6932 L 456.0184 422.6932 L 456.0184 309.5523 L 111.382 309.5523 Z " fill="#bfebfa"/>
<path transform="matrix(.00008326042,0,0,.00008328286,111.382,419.19657)" stroke-width="9525" stroke-linecap="butt" stroke-miterlimit="8" stroke-linejoin="miter" fill="none" stroke="#000000" d="M 0 0 L 4139258 0 L 4139258 1358513 L 0 1358513 Z "/>
<path transform="matrix(1,0,0,-1,0,841.8898)" d="M 111.3822 153.4496 L 387.6979 153.4496 L 387.6979 63.00187 L 111.3822 63.00187 Z " fill="#d9d9d9"/>
<path transform="matrix(.00008326042,0,0,.00008328286,111.3822,688.4402)" stroke-width="9525" stroke-linecap="butt" stroke-miterlimit="8" stroke-linejoin="miter" fill="none" stroke="#000000" d="M 0 0 L 3318692 0 L 3318692 1086030 L 0 1086030 Z "/>
<path transform="matrix(1,0,0,-1,0,841.8898)" d="M 115.3589 419.0257 L 179.2236 419.0257 L 179.2236 402.1026 L 115.3589 402.1026 Z " fill="#fcd9d3"/>
<path transform="matrix(.00008326042,0,0,.00008328286,115.3589,422.86408)" stroke-width="9525" stroke-linecap="butt" stroke-miterlimit="8" stroke-linejoin="miter" fill="none" stroke="#000000" d="M 0 0 L 767048 0 L 767048 203200 L 0 203200 Z "/>
<path transform="matrix(1,0,0,-1,0,841.8898)" d="M 183.5247 419.0257 L 451.8871 419.0257 L 451.8871 402.1026 L 183.5247 402.1026 Z " fill="#8cc9f7"/>
<path transform="matrix(.00008326042,0,0,.00008328286,183.5247,422.86408)" stroke-width="9525" stroke-linecap="butt" stroke-miterlimit="8" stroke-linejoin="miter" fill="none" stroke="#000000" d="M 0 0 L 3223169 0 L 3223169 203200 L 0 203200 Z "/>
<path transform="matrix(1,0,0,-1,0,841.8898)" d="M 115.3589 397.5231 L 179.2236 397.5231 L 179.2236 380.6 L 115.3589 380.6 Z " fill="#8cc9f7"/>
<path transform="matrix(.00008326042,0,0,.00008328286,115.3589,444.36668)" stroke-width="9525" stroke-linecap="butt" stroke-miterlimit="8" stroke-linejoin="miter" fill="none" stroke="#000000" d="M 0 0 L 767048 0 L 767048 203200 L 0 203200 Z "/>
<path transform="matrix(1,0,0,-1,0,841.8898)" d="M 183.5247 397.5231 L 247.3895 397.5231 L 247.3895 380.6 L 183.5247 380.6 Z " fill="#fcd9d3"/>
<path transform="matrix(.00008326042,0,0,.00008328286,183.5247,444.36668)" stroke-width="9525" stroke-linecap="butt" stroke-miterlimit="8" stroke-linejoin="miter" fill="none" stroke="#000000" d="M 0 0 L 767048 0 L 767048 203200 L 0 203200 Z "/>
<path transform="matrix(1,0,0,-1,0,841.8898)" d="M 251.6906 397.5231 L 451.887 397.5231 L 451.887 380.6 L 251.6906 380.6 Z " fill="#8cc9f7"/>
<path transform="matrix(.00008326042,0,0,.00008328286,251.6906,444.36668)" stroke-width="9525" stroke-linecap="butt" stroke-miterlimit="8" stroke-linejoin="miter" fill="none" stroke="#000000" d="M 0 0 L 2404461 0 L 2404461 203200 L 0 203200 Z "/>
<path transform="matrix(1,0,0,-1,0,841.8898)" d="M 115.3589 331.0072 L 383.7212 331.0072 L 383.7212 314.0841 L 115.3589 314.0841 Z " fill="#8cc9f7"/>
<path transform="matrix(.00008326042,0,0,.00008328286,115.3589,510.88258)" stroke-width="9525" stroke-linecap="butt" stroke-miterlimit="8" stroke-linejoin="miter" fill="none" stroke="#000000" d="M 0 0 L 3223168 0 L 3223168 203200 L 0 203200 Z "/>
<path transform="matrix(1,0,0,-1,0,841.8898)" d="M 388.0224 331.0072 L 451.8872 331.0072 L 451.8872 314.0841 L 388.0224 314.0841 Z " fill="#fcd9d3"/>
<path transform="matrix(.00008326042,0,0,.00008328286,388.0224,510.88258)" stroke-width="9525" stroke-linecap="butt" stroke-miterlimit="8" stroke-linejoin="miter" fill="none" stroke="#000000" d="M 0 0 L 767048 0 L 767048 203200 L 0 203200 Z "/>
<path transform="matrix(1,0,0,-1,0,841.8898)" d="M 115.3588 148.7093 L 138.2524 148.7093 L 138.2524 131.7862 L 115.3588 131.7862 Z " fill="#ffff00"/>
<path transform="matrix(.00008326042,0,0,.00008328286,115.3588,693.1805)" stroke-width="9525" stroke-linecap="butt" stroke-miterlimit="8" stroke-linejoin="miter" fill="none" stroke="#000000" d="M 0 0 L 274964 0 L 274964 203200 L 0 203200 Z "/>
<path transform="matrix(1,0,0,-1,0,841.8898)" d="M 142.633 148.6917 L 383.7213 148.6917 L 383.7213 131.7686 L 142.633 131.7686 Z " fill="#caf297"/>
<path transform="matrix(.00008326042,0,0,.00008328286,142.633,693.19808)" stroke-width="9525" stroke-linecap="butt" stroke-miterlimit="8" stroke-linejoin="miter" fill="none" stroke="#000000" d="M 0 0 L 2895592 0 L 2895592 203200 L 0 203200 Z "/>
<path transform="matrix(1,0,0,-1,0,841.8898)" d="M 115.3588 127.2067 L 138.2524 127.2067 L 138.2524 110.2836 L 115.3588 110.2836 Z " fill="#caf297"/>
<path transform="matrix(.00008326042,0,0,.00008328286,115.3588,714.68307)" stroke-width="9525" stroke-linecap="butt" stroke-miterlimit="8" stroke-linejoin="miter" fill="none" stroke="#000000" d="M 0 0 L 274964 0 L 274964 203200 L 0 203200 Z "/>
<path transform="matrix(1,0,0,-1,0,841.8898)" d="M 142.633 127.2067 L 165.5267 127.2067 L 165.5267 110.2836 L 142.633 110.2836 Z " fill="#ffff00"/>
<path transform="matrix(.00008326042,0,0,.00008328286,142.633,714.68307)" stroke-width="9525" stroke-linecap="butt" stroke-miterlimit="8" stroke-linejoin="miter" fill="none" stroke="#000000" d="M 0 0 L 274964 0 L 274964 203200 L 0 203200 Z "/>
<path transform="matrix(1,0,0,-1,0,841.8898)" d="M 169.6067 127.2067 L 383.7212 127.2067 L 383.7212 110.2836 L 169.6067 110.2836 Z " fill="#caf297"/>
<path transform="matrix(.00008326042,0,0,.00008328286,169.6067,714.68307)" stroke-width="9525" stroke-linecap="butt" stroke-miterlimit="8" stroke-linejoin="miter" fill="none" stroke="#000000" d="M 0 0 L 2571624 0 L 2571624 203200 L 0 203200 Z "/>
<path transform="matrix(1,0,0,-1,0,841.8898)" d="M 115.3588 84.05821 L 356.447 84.05821 L 356.447 67.13514 L 115.3588 67.13514 Z " fill="#caf297"/>
<path transform="matrix(.00008326042,0,0,.00008328286,115.3588,757.83157)" stroke-width="9525" stroke-linecap="butt" stroke-miterlimit="8" stroke-linejoin="miter" fill="none" stroke="#000000" d="M 0 0 L 2895592 0 L 2895592 203200 L 0 203200 Z "/>
<path transform="matrix(1,0,0,-1,0,841.8898)" d="M 360.4237 84.05821 L 383.7213 84.05821 L 383.7213 67.13514 L 360.4237 67.13514 Z " fill="#ffff00"/>
<path transform="matrix(.00008326042,0,0,.00008328286,360.4237,757.83157)" stroke-width="9525" stroke-linecap="butt" stroke-miterlimit="8" stroke-linejoin="miter" fill="none" stroke="#000000" d="M 0 0 L 279816 0 L 279816 203200 L 0 203200 Z "/>
<text xml:space="preserve" transform="matrix(.24 0 -0 .2400647 139.0218 1260.5422)" font-size="45.83333" font-family="ArialMT"><tspan y="-3437" x="0 28.086665 53.97333 77.10999">Test</tspan></text>
<text xml:space="preserve" transform="matrix(.24 0 -0 .2400647 298.5876 1260.5422)" font-size="45.83333" font-family="ArialMT"><tspan y="-3437" x="0 28.086665 43.52333 69.409999 79.89666">Train</tspan></text>
<text xml:space="preserve" transform="matrix(.24 0 -0 .2400647 249.0607 1530.7822)" font-size="45.83333" font-family="ArialMT"><tspan y="-3437" x="0 28.086665 43.52333 69.409999 79.89666">Train</tspan></text>
<text xml:space="preserve" transform="matrix(.24 0 -0 .2400647 118.5916 1529.8223)" font-size="33.33333" font-family="ArialMT"><tspan y="-3437" x="0 21.479998 41.29333 58.90666">Test</tspan></text>
<path transform="matrix(1,0,0,-1,0,841.8898)" d="M 205.8683 200.2834 L 292.9153 200.2834 L 292.9153 178.4957 L 205.8683 178.4957 Z " fill="#d9d9d9"/>
<path transform="matrix(.00008326042,0,0,.00008328286,205.8683,641.6064)" stroke-width="9525" stroke-linecap="butt" stroke-linejoin="round" fill="none" stroke="#000000" d="M 0 0 L 1045479 0 L 1045479 261610 L 0 261610 Z "/>
<text xml:space="preserve" transform="matrix(.24 0 -0 .2400647 213.9025 1481.8223)" font-size="50" font-family="ArialMT"><tspan y="-3437" x="0 29.74 40.78 51.82 65.060009 92.05 108.04 121.28001 134.52 161.51001 188.50002 201.74 228.73001 244.72 271.71">Filter features</tspan></text>
<path transform="matrix(-.00008326042,-0,0,.00008328286,467.2102,688.4402)" stroke-width="9525" stroke-linecap="butt" stroke-miterlimit="8" stroke-linejoin="miter" fill="none" stroke="#000000" d="M 76915 1086030 C 55675.18 1086030 38456.91 1065829 38456.91 1040909 L 38458.09 588135.6 C 38458.09 563216.1 21239.82 543015 0 543015 C 21239.82 543015 38458.09 522813.8 38458.09 497894.4 L 38458.09 45120.6 C 38458.09 20201.18 55676.37 0 76916.19 0 "/>
<path transform="matrix(-.00008326042,-0,0,.00008328286,467.2102,419.19657)" stroke-width="9525" stroke-linecap="butt" stroke-miterlimit="8" stroke-linejoin="miter" fill="none" stroke="#000000" d="M 76915 1462074 C 55675.06 1462074 38456.7 1441873 38456.7 1416953 L 38458.3 776157.6 C 38458.3 751238.2 21239.93 731037 0 731037 C 21239.93 731037 38458.3 710835.9 38458.3 685916.4 L 38458.3 45120.59 C 38458.3 20201.18 55676.66 0 76916.6 0 "/>
<path transform="matrix(0,-.00008328286,.00008326042,0,115.3587,611.99819)" stroke-width="9525" stroke-linecap="butt" stroke-miterlimit="8" stroke-linejoin="miter" fill="none" stroke="#000000" d="M 76915 3223171 C 55675.51 3223171 38457.5 3202971 38457.5 3178052 L 38457.5 1656704 C 38457.5 1631786 21239.49 1611585 0 1611585 C 21239.49 1611585 38457.5 1591385 38457.5 1566467 L 38457.5 45118.75 C 38457.5 20200.35 55675.51 0 76915 0 "/>
<path transform="matrix(1,0,0,-1,0,841.8898)" d="M 373.1613 207.9737 L 466.7482 207.9737 L 466.7482 172.0882 L 373.1613 172.0882 Z " fill="#fcd9d3"/>
<path transform="matrix(.00008326042,0,0,.00008328286,373.1613,633.9161)" stroke-width="9525" stroke-linecap="butt" stroke-linejoin="round" fill="none" stroke="#000000" d="M 0 0 L 1124026 0 L 1124026 430887 L 0 430887 Z "/>
<text xml:space="preserve" transform="matrix(.24 0 -0 .2400647 392.5283 1473.9024)" font-size="50" font-family="ArialMT"><tspan y="-3437" x="0 29.74 56.730005 80.97001 94.210018 107.45002 120.690029 147.68003 174.67003 201.66004 228.65004">Test tuned </tspan></text>
<text xml:space="preserve" transform="matrix(.24 0 -0 .2400647 404.0963 1488.0623)" font-size="50" font-family="ArialMT"><tspan y="-3437" x="0 40.205 67.21001 94.21501 121.22002">model</tspan></text>
<text xml:space="preserve" transform="matrix(.24 0 -0 .2400647 69.8624 1298.2223)" font-size="50" font-family="ArialMT"><tspan y="-3437" x="0">5</tspan></text>
<text xml:space="preserve" transform="matrix(.24 0 -0 .2400647 76.33902 1298.2223)" font-size="50" font-family="ArialMT"><tspan y="-3437" x="0">-</tspan></text>
<text xml:space="preserve" transform="matrix(.24 0 -0 .2400647 80.17212 1298.2223)" font-size="50" font-family="ArialMT"><tspan y="-3437" x="0 13.220002 40.190004 51.21">fold</tspan></text>
<text xml:space="preserve" transform="matrix(.24 0 -0 .2400647 61.46658 1312.3823)" font-size="50" font-family="ArialMT"><tspan y="-3437" x="0 26.985 53.97 67.205 94.19 110.175 123.41 158.645">outer CV</tspan></text>
<text xml:space="preserve" transform="matrix(.24 0 -0 .2400647 66.62145 1555.9823)" font-size="50" font-family="ArialMT"><tspan y="-3437" x="0 26.985">10</tspan></text>
<text xml:space="preserve" transform="matrix(.24 0 -0 .2400647 79.57468 1555.9823)" font-size="50" font-family="ArialMT"><tspan y="-3437" x="0">-</tspan></text>
<text xml:space="preserve" transform="matrix(.24 0 -0 .2400647 83.40779 1555.9823)" font-size="50" font-family="ArialMT"><tspan y="-3437" x="0 13.220002 40.190004 51.21">fold</tspan></text>
<text xml:space="preserve" transform="matrix(.24 0 -0 .2400647 61.73094 1570.1423)" font-size="50" font-family="ArialMT"><tspan y="-3437" x="0 11.015001 37.980005 64.94501 91.91001 107.87501 121.09001 156.35501">inner CV</tspan></text>
<path transform="matrix(1,0,0,-1,0,841.8898)" d="M 249.7883 178.4985 L 249.8988 162.8876 L 249.1058 162.882 L 248.9953 178.4929 Z M 251.6096 163.9574 L 249.5398 157.5964 L 247.3801 163.9275 Z "/>
<path transform="matrix(1,0,0,-1,0,841.8898)" d="M 420.3513 207.9737 L 420.3514 231.0089 L 419.5583 231.0089 L 419.5583 207.9737 Z M 422.0697 229.9512 L 419.9549 236.2973 L 417.84 229.9512 Z "/>
<path transform="matrix(1,0,0,-1,0,841.8898)" d="M 387.6979 107.8291 L 420.3513 107.8291 L 420.3513 166.7998 L 419.5583 166.7998 L 419.5583 108.2257 L 419.9548 108.6224 L 387.6979 108.6224 Z M 422.0696 165.7421 L 419.9548 172.0883 L 417.84 165.7421 Z "/>
<text xml:space="preserve" transform="matrix(.24 0 -0 .2400647 243.9887 1574.2223)" font-size="45.83333" font-family="ArialMT"><tspan y="-3437" x="0">&#x2026;</tspan></text>
<path transform="matrix(1,0,0,-1,0,841.8898)" d="M 249.7883 226.4366 L 249.7884 205.5718 L 248.9953 205.5718 L 248.9953 226.4366 Z M 251.5067 206.6295 L 249.3919 200.2833 L 247.2771 206.6295 Z "/>
<text xml:space="preserve" transform="matrix(.24 0 -0 .2400647 479.3813 1302.3023)" font-size="50" font-family="Arial" font-weight="bold"><tspan y="-3437" x="0 40.205 67.21001 94.21501 121.22002 150.975 169.68001 196.685">Measure </tspan></text>
<text xml:space="preserve" transform="matrix(.24 0 -0 .2400647 467.7499 1316.2223)" font-size="50" font-family="Arial" font-weight="bold"><tspan y="-3437" x="0 29.74 56.730005 75.47 91.46 121.2 139.94 182.88 209.87001 239.61002 266.6">performance</tspan></text>
<text xml:space="preserve" transform="matrix(.24 0 -0 .2400647 472.2438 1555.9823)" font-size="50" font-family="ArialMT"><tspan y="-3437" x="0 29.74 56.730005 83.72 110.71001 123.95001 164.14002 191.13002 218.12003 245.11003 256.15003">Tune model </tspan></text>
<text xml:space="preserve" transform="matrix(.24 0 -0 .2400647 473.6343 1570.1423)" font-size="50" font-family="ArialMT"><tspan y="-3437" x="0 26.985 53.97 69.955 96.94 137.12502 164.11002 177.34502 204.33002 220.31502">parameters</tspan></text>
<path transform="matrix(1,0,0,-1,0,841.8898)" d="M 115.3589 260.1971 L 383.7212 260.1971 L 383.7212 243.274 L 115.3589 243.274 Z " fill="#8cc9f7"/>
<path transform="matrix(.00008326042,0,0,.00008328286,115.3589,581.6926)" stroke-width="9525" stroke-linecap="butt" stroke-miterlimit="8" stroke-linejoin="miter" fill="none" stroke="#000000" d="M 0 0 L 3223168 0 L 3223168 203200 L 0 203200 Z "/>
<path transform="matrix(1,0,0,-1,0,841.8898)" d="M 388.0224 260.1971 L 451.8872 260.1971 L 451.8872 243.274 L 388.0224 243.274 Z " fill="#fcd9d3"/>
<path transform="matrix(.00008326042,0,0,.00008328286,388.0224,581.6926)" stroke-width="9525" stroke-linecap="butt" stroke-miterlimit="8" stroke-linejoin="miter" fill="none" stroke="#000000" d="M 0 0 L 767048 0 L 767048 203200 L 0 203200 Z "/>
<path transform="matrix(1,0,0,-1,0,841.8898)" d="M 115.3589 322.1491 L 98.52178 322.1491 L 98.91831 322.5457 L 98.91831 281.6487 L 98.52178 282.0453 L 249.9365 282.0453 L 249.9365 265.4856 L 249.1435 265.4856 L 249.1435 281.6487 L 249.54 281.2521 L 98.12526 281.2521 L 98.12526 322.9424 L 115.3589 322.9424 Z M 251.6548 266.5433 L 249.54 260.1971 L 247.4252 266.5433 Z "/>
<path transform="matrix(1,0,0,-1,0,841.8898)" d="M 419.5583 314.0841 L 419.5583 310.9111 L 420.3514 310.9111 L 420.3514 314.0841 Z M 419.5583 308.5313 L 419.5583 305.3582 L 420.3514 305.3582 L 420.3514 308.5313 Z M 419.5583 302.9784 L 419.5583 300.5309 L 421.0768 300.5309 L 421.0768 301.3242 L 419.9548 301.3242 L 420.3514 300.9275 L 420.3514 302.9784 Z M 423.4559 300.5309 L 426.6282 300.5309 L 426.6282 301.3242 L 423.4559 301.3242 Z M 429.0073 300.5309 L 432.1796 300.5309 L 432.1796 301.3242 L 429.0073 301.3242 Z M 434.5587 300.5309 L 437.7309 300.5309 L 437.7309 301.3242 L 434.5587 301.3242 Z M 440.1101 300.5309 L 443.2823 300.5309 L 443.2823 301.3242 L 440.1101 301.3242 Z M 445.6615 300.5309 L 448.8337 300.5309 L 448.8337 301.3242 L 445.6615 301.3242 Z M 451.2129 300.5309 L 452.7048 300.5309 L 452.7048 301.3242 L 451.2129 301.3242 Z M 451.6474 298.8122 L 457.9919 300.9275 L 451.6474 303.0429 Z "/>
<path transform="matrix(1,0,0,-1,0,841.8898)" d="M 115.3588 376.1306 L 247.3894 376.1306 L 247.3894 359.2075 L 115.3588 359.2075 Z " fill="#8cc9f7"/>
<path transform="matrix(.00008326042,0,0,.00008328286,115.3588,465.75917)" stroke-width="9525" stroke-linecap="butt" stroke-miterlimit="8" stroke-linejoin="miter" fill="none" stroke="#000000" d="M 0 0 L 1585755 0 L 1585755 203200 L 0 203200 Z "/>
<path transform="matrix(1,0,0,-1,0,841.8898)" d="M 319.8565 376.1306 L 451.887 376.1306 L 451.887 359.2075 L 319.8565 359.2075 Z " fill="#8cc9f7"/>
<path transform="matrix(.00008326042,0,0,.00008328286,319.8565,465.75917)" stroke-width="9525" stroke-linecap="butt" stroke-miterlimit="8" stroke-linejoin="miter" fill="none" stroke="#000000" d="M 0 0 L 1585753 0 L 1585753 203200 L 0 203200 Z "/>
<path transform="matrix(1,0,0,-1,0,841.8898)" d="M 251.8604 376.1306 L 315.7251 376.1306 L 315.7251 359.2075 L 251.8604 359.2075 Z " fill="#fcd9d3"/>
<path transform="matrix(.00008326042,0,0,.00008328286,251.8604,465.75917)" stroke-width="9525" stroke-linecap="butt" stroke-miterlimit="8" stroke-linejoin="miter" fill="none" stroke="#000000" d="M 0 0 L 767048 0 L 767048 203200 L 0 203200 Z "/>
<path transform="matrix(1,0,0,-1,0,841.8898)" d="M 115.3588 353.9506 L 315.2457 353.9506 L 315.2457 337.0276 L 115.3588 337.0276 Z " fill="#8cc9f7"/>
<path transform="matrix(.00008326042,0,0,.00008328286,115.3588,487.93919)" stroke-width="9525" stroke-linecap="butt" stroke-miterlimit="8" stroke-linejoin="miter" fill="none" stroke="#000000" d="M 0 0 L 2400744 0 L 2400744 203200 L 0 203200 Z "/>
<path transform="matrix(1,0,0,-1,0,841.8898)" d="M 319.3773 353.9506 L 383.5663 353.9506 L 383.5663 337.0276 L 319.3773 337.0276 Z " fill="#fcd9d3"/>
<path transform="matrix(.00008326042,0,0,.00008328286,319.3773,487.93919)" stroke-width="9525" stroke-linecap="butt" stroke-miterlimit="8" stroke-linejoin="miter" fill="none" stroke="#000000" d="M 0 0 L 770943 0 L 770943 203200 L 0 203200 Z "/>
<path transform="matrix(1,0,0,-1,0,841.8898)" d="M 387.6979 353.9506 L 451.8869 353.9506 L 451.8869 337.0276 L 387.6979 337.0276 Z " fill="#8cc9f7"/>
<path transform="matrix(.00008326042,0,0,.00008328286,387.6979,487.93919)" stroke-width="9525" stroke-linecap="butt" stroke-miterlimit="8" stroke-linejoin="miter" fill="none" stroke="#000000" d="M 0 0 L 770943 0 L 770943 203200 L 0 203200 Z "/>
<path transform="matrix(1,0,0,-1,0,841.8898)" d="M 351.0753 337.0275 L 351.0753 333.8544 L 351.8684 333.8544 L 351.8684 337.0275 Z M 351.0753 331.4746 L 351.0753 328.3016 L 351.8684 328.3016 L 351.8684 331.4746 Z M 351.0753 325.9218 L 351.0753 322.7487 L 351.8684 322.7487 L 351.8684 325.9218 Z M 351.0753 320.3689 L 351.0753 317.1958 L 351.8684 317.1958 L 351.8684 320.3689 Z M 351.0753 314.816 L 351.0753 311.6429 L 351.8684 311.6429 L 351.8684 314.816 Z M 351.0753 309.2631 L 351.0753 306.09 L 351.8684 306.09 L 351.8684 309.2631 Z M 351.0753 303.7102 L 351.0753 300.5308 L 351.862 300.5308 L 351.862 301.324 L 351.4718 301.324 L 351.8684 300.9274 L 351.8684 303.7102 Z M 354.2412 300.5308 L 357.4134 300.5308 L 357.4134 301.324 L 354.2412 301.324 Z M 359.7926 300.5308 L 362.9648 300.5308 L 362.9648 301.324 L 359.7926 301.324 Z M 365.3439 300.5308 L 368.5162 300.5308 L 368.5162 301.324 L 365.3439 301.324 Z M 370.8953 300.5308 L 374.0676 300.5308 L 374.0676 301.324 L 370.8953 301.324 Z M 376.4467 300.5308 L 379.6189 300.5308 L 379.6189 301.324 L 376.4467 301.324 Z M 381.9981 300.5308 L 385.1703 300.5308 L 385.1703 301.324 L 381.9981 301.324 Z M 387.5495 300.5308 L 390.7217 300.5308 L 390.7217 301.324 L 387.5495 301.324 Z M 393.1009 300.5308 L 396.2731 300.5308 L 396.2731 301.324 L 393.1009 301.324 Z M 398.6523 300.5308 L 401.8245 300.5308 L 401.8245 301.324 L 398.6523 301.324 Z M 404.2037 300.5308 L 407.3759 300.5308 L 407.3759 301.324 L 404.2037 301.324 Z M 409.7551 300.5308 L 409.8799 300.5308 L 409.8799 301.324 L 409.7551 301.324 Z M 408.8225 298.812 L 415.1669 300.9274 L 408.8225 303.0428 Z "/>
<path transform="matrix(1,0,0,-1,0,841.8898)" d="M 150.1111 399.5715 L 150.1111 396.3985 L 150.9041 396.3985 L 150.9041 399.5715 Z M 150.1111 394.0187 L 150.1111 390.8456 L 150.9041 390.8456 L 150.9041 394.0187 Z M 150.1111 388.4658 L 150.1111 385.2927 L 150.9041 385.2927 L 150.9041 388.4658 Z M 150.1111 382.9129 L 150.1111 379.7398 L 150.9041 379.7398 L 150.9041 382.9129 Z M 150.1111 377.36 L 150.1111 374.1869 L 150.9041 374.1869 L 150.9041 377.36 Z M 150.1111 371.8071 L 150.1111 368.634 L 150.9041 368.634 L 150.9041 371.8071 Z M 150.1111 366.2542 L 150.1111 363.0812 L 150.9041 363.0812 L 150.9041 366.2542 Z M 150.1111 360.7014 L 150.1111 357.5283 L 150.9041 357.5283 L 150.9041 360.7014 Z M 150.1111 355.1485 L 150.1111 351.9754 L 150.9041 351.9754 L 150.9041 355.1485 Z M 150.1111 349.5956 L 150.1111 346.4225 L 150.9041 346.4225 L 150.9041 349.5956 Z M 150.1111 344.0427 L 150.1111 340.8696 L 150.9041 340.8696 L 150.9041 344.0427 Z M 150.1111 338.4898 L 150.1111 335.3167 L 150.9041 335.3167 L 150.9041 338.4898 Z M 150.1111 332.9369 L 150.1111 329.7639 L 150.9041 329.7639 L 150.9041 332.9369 Z M 150.1111 327.384 L 150.1111 324.211 L 150.9041 324.211 L 150.9041 327.384 Z M 150.1111 321.8312 L 150.1111 318.6581 L 150.9041 318.6581 L 150.9041 321.8312 Z M 150.1111 316.2783 L 150.1111 313.1052 L 150.9041 313.1052 L 150.9041 316.2783 Z M 150.1111 310.7254 L 150.1111 307.5523 L 150.9041 307.5523 L 150.9041 310.7254 Z M 150.1111 305.1725 L 150.1111 301.9994 L 150.9041 301.9994 L 150.9041 305.1725 Z M 151.69 300.4061 L 154.8623 300.4073 L 154.862 301.2006 L 151.6897 301.1994 Z M 157.2414 300.4083 L 160.4137 300.4095 L 160.4133 301.2028 L 157.2411 301.2015 Z M 162.7928 300.4105 L 165.965 300.4117 L 165.9647 301.205 L 162.7925 301.2037 Z M 168.3442 300.4126 L 171.5164 300.4139 L 171.5161 301.2071 L 168.3439 301.2059 Z M 173.8956 300.4148 L 177.0678 300.416 L 177.0675 301.2093 L 173.8953 301.2081 Z M 179.447 300.417 L 182.6192 300.4182 L 182.6189 301.2115 L 179.4467 301.2103 Z M 184.9984 300.4192 L 188.1706 300.4204 L 188.1703 301.2137 L 184.9981 301.2124 Z M 190.5498 300.4213 L 193.722 300.4226 L 193.7217 301.2159 L 190.5495 301.2146 Z M 196.1011 300.4235 L 199.2734 300.4248 L 199.2731 301.218 L 196.1008 301.2168 Z M 201.6525 300.4257 L 203.6865 300.4265 L 203.6862 301.2198 L 201.6522 301.219 Z M 202.6709 298.6873 L 208.9724 300.9275 L 202.5874 302.9172 Z "/>
<path transform="matrix(1,0,0,-1,0,841.8898)" d="M 215.0606 380.6001 L 215.0606 377.427 L 215.8536 377.427 L 215.8536 380.6001 Z M 215.0606 375.0472 L 215.0606 371.8741 L 215.8536 371.8741 L 215.8536 375.0472 Z M 215.0606 369.4943 L 215.0606 366.3212 L 215.8536 366.3212 L 215.8536 369.4943 Z M 215.0606 363.9414 L 215.0606 360.7683 L 215.8536 360.7683 L 215.8536 363.9414 Z M 215.0606 358.3885 L 215.0606 355.2154 L 215.8536 355.2154 L 215.8536 358.3885 Z M 215.0606 352.8356 L 215.0606 349.6626 L 215.8536 349.6626 L 215.8536 352.8356 Z M 215.0606 347.2828 L 215.0606 344.1097 L 215.8536 344.1097 L 215.8536 347.2828 Z M 215.0606 341.7299 L 215.0606 338.5568 L 215.8536 338.5568 L 215.8536 341.7299 Z M 215.0606 336.177 L 215.0606 333.0039 L 215.8536 333.0039 L 215.8536 336.177 Z M 215.0606 330.6241 L 215.0606 327.451 L 215.8536 327.451 L 215.8536 330.6241 Z M 215.0606 325.0712 L 215.0606 321.8981 L 215.8536 321.8981 L 215.8536 325.0712 Z M 215.0606 319.5183 L 215.0606 316.3453 L 215.8536 316.3453 L 215.8536 319.5183 Z M 215.0606 313.9654 L 215.0606 310.7924 L 215.8536 310.7924 L 215.8536 313.9654 Z M 215.0606 308.4126 L 215.0606 305.2395 L 215.8536 305.2395 L 215.8536 308.4126 Z M 215.0606 302.8597 L 215.0606 300.439 L 216.6061 300.4394 L 216.6059 301.2327 L 215.457 301.2324 L 215.8536 300.8358 L 215.8536 302.8597 Z M 218.9852 300.4401 L 222.1575 300.4409 L 222.1573 301.2342 L 218.985 301.2333 Z M 224.5366 300.4415 L 227.7088 300.4424 L 227.7086 301.2356 L 224.5364 301.2348 Z M 230.088 300.443 L 233.2602 300.4438 L 233.26 301.2371 L 230.0878 301.2363 Z M 235.6394 300.4445 L 238.8116 300.4453 L 238.8114 301.2386 L 235.6392 301.2377 Z M 241.1908 300.4459 L 244.363 300.4468 L 244.3628 301.24 L 241.1906 301.2392 Z M 246.7422 300.4474 L 249.9144 300.4482 L 249.9142 301.2415 L 246.742 301.2407 Z M 252.2936 300.4489 L 255.4658 300.4497 L 255.4656 301.243 L 252.2934 301.2421 Z M 257.845 300.4503 L 261.0172 300.4512 L 261.017 301.2444 L 257.8448 301.2436 Z M 263.3963 300.4518 L 266.5686 300.4527 L 266.5684 301.2459 L 263.3961 301.2451 Z M 268.9477 300.4533 L 272.12 300.4541 L 272.1198 301.2474 L 268.9475 301.2465 Z M 272.1839 298.7206 L 278.4972 300.9274 L 272.1228 302.9509 Z "/>
<path transform="matrix(1,0,0,-1,0,841.8898)" d="M 283.3963 359.2076 L 283.3963 356.0345 L 284.1893 356.0345 L 284.1893 359.2076 Z M 283.3963 353.6547 L 283.3963 350.4816 L 284.1893 350.4816 L 284.1893 353.6547 Z M 283.3963 348.1018 L 283.3963 344.9288 L 284.1893 344.9288 L 284.1893 348.1018 Z M 283.3963 342.5489 L 283.3963 339.3759 L 284.1893 339.3759 L 284.1893 342.5489 Z M 283.3963 336.9961 L 283.3963 333.823 L 284.1893 333.823 L 284.1893 336.9961 Z M 283.3963 331.4432 L 283.3963 328.2701 L 284.1893 328.2701 L 284.1893 331.4432 Z M 283.3963 325.8903 L 283.3963 322.7172 L 284.1893 322.7172 L 284.1893 325.8903 Z M 283.3963 320.3374 L 283.3963 317.1643 L 284.1893 317.1643 L 284.1893 320.3374 Z M 283.3963 314.7845 L 283.3963 311.6114 L 284.1893 311.6114 L 284.1893 314.7845 Z M 283.3963 309.2316 L 283.3963 306.0586 L 284.1893 306.0586 L 284.1893 309.2316 Z M 283.3963 303.6788 L 283.3963 300.5309 L 284.2145 300.5309 L 284.2145 301.3241 L 283.7928 301.3241 L 284.1893 300.9275 L 284.1893 303.6788 Z M 286.5937 300.5309 L 289.7659 300.5309 L 289.7659 301.3241 L 286.5937 301.3241 Z M 292.1451 300.5309 L 295.3173 300.5309 L 295.3173 301.3241 L 292.1451 301.3241 Z M 297.6964 300.5309 L 300.8687 300.5309 L 300.8687 301.3241 L 297.6964 301.3241 Z M 303.2478 300.5309 L 306.4201 300.5309 L 306.4201 301.3241 L 303.2478 301.3241 Z M 308.7992 300.5309 L 311.9714 300.5309 L 311.9714 301.3241 L 308.7992 301.3241 Z M 314.3506 300.5309 L 317.5228 300.5309 L 317.5228 301.3241 L 314.3506 301.3241 Z M 319.902 300.5309 L 323.0742 300.5309 L 323.0742 301.3241 L 319.902 301.3241 Z M 325.4534 300.5309 L 328.6256 300.5309 L 328.6256 301.3241 L 325.4534 301.3241 Z M 331.0048 300.5309 L 334.177 300.5309 L 334.177 301.3241 L 331.0048 301.3241 Z M 336.5562 300.5309 L 339.7284 300.5309 L 339.7284 301.3241 L 336.5562 301.3241 Z M 339.5447 298.8121 L 345.8892 300.9275 L 339.5447 303.0429 Z "/>
<text xml:space="preserve" transform="matrix(.24 0 -0 .2400647 115.2806 1219.7423)" font-size="62.5" font-family="ArialMT"><tspan y="-3437" x="0 44.606256 78.77501 109.631259 126.7375 160.90625 195.07501">Nested </tspan></text>
<text xml:space="preserve" transform="matrix(.24 0 -0 .2400647 166.1683 1219.7423)" font-size="62.5" font-family="ArialMT"><tspan y="-3437" x="0 44.606256">CV</tspan></text>
<path transform="matrix(.00008326042,0,0,.00008328286,53.99359,404.01679)" stroke-width="9525" stroke-linecap="butt" stroke-miterlimit="8" stroke-linejoin="miter" fill="none" stroke="#bfbfbf" d="M 0 58216.66 C 0 26064.48 26064.47 0 58216.62 0 L 5896288 0 C 5928440 0 5954505 26064.48 5954505 58216.66 L 5954505 4529477 C 5954505 4561630 5928440 4587694 5896288 4587694 L 58216.62 4587694 C 26064.47 4587694 0 4561630 0 4529477 Z "/>
<text xml:space="preserve" transform="matrix(.24 0 -0 .2400647 54.35735 907.2622)" font-size="87.5" font-family="Arial" font-weight="bold"><tspan y="-3437" x="0">C</tspan></text>
<text xml:space="preserve" transform="matrix(.24 0 -0 .2400647 54.35735 1221.4223)" font-size="87.5" font-family="Arial" font-weight="bold"><tspan y="-3437" x="0">D</tspan></text>
<path transform="matrix(.00008326042,0,0,.00008328286,53.99359,92.238468)" stroke-width="9525" stroke-linecap="butt" stroke-miterlimit="8" stroke-linejoin="miter" fill="none" stroke="#bfbfbf" d="M 0 39735.79 C 0 17790.32 17790.31 0 39735.77 0 L 5914769 0 C 5936715 0 5954505 17790.32 5954505 39735.79 L 5954505 3091414 C 5954505 3113360 5936715 3131150 5914769 3131150 L 39735.77 3131150 C 17790.31 3131150 0 3113360 0 3091414 Z "/>
<path transform="matrix(1,0,0,-1,0,841.8898)" d="M 109.336 700.3636 L 326.0372 700.3636 L 326.0372 683.4405 L 109.336 683.4405 Z " fill="#8cc9f7"/>
<path transform="matrix(.00008326042,0,0,.00008328286,109.336,141.52619)" stroke-width="9525" stroke-linecap="butt" stroke-miterlimit="8" stroke-linejoin="miter" fill="none" stroke="#000000" d="M 0 0 L 2602692 0 L 2602692 203200 L 0 203200 Z "/>
<path transform="matrix(1,0,0,-1,0,841.8898)" d="M 329.9751 700.3636 L 445.8643 700.3636 L 445.8643 683.4405 L 329.9751 683.4405 Z " fill="#fcd9d3"/>
<path transform="matrix(.00008326042,0,0,.00008328286,329.9751,141.52619)" stroke-width="9525" stroke-linecap="butt" stroke-miterlimit="8" stroke-linejoin="miter" fill="none" stroke="#000000" d="M 0 0 L 1391888 0 L 1391888 203200 L 0 203200 Z "/>
<path transform="matrix(1,0,0,-1,0,841.8898)" d="M 174.1357 638.5224 L 261.1827 638.5224 L 261.1827 616.7348 L 174.1357 616.7348 Z " fill="#d9d9d9"/>
<path transform="matrix(.00008326042,0,0,.00008328286,174.1357,203.36737)" stroke-width="9525" stroke-linecap="butt" stroke-linejoin="round" fill="none" stroke="#000000" d="M 0 0 L 1045479 0 L 1045479 261610 L 0 261610 Z "/>
<text xml:space="preserve" transform="matrix(.24 0 -0 .2400647 182.17 1043.3423)" font-size="50" font-family="ArialMT"><tspan y="-3437" x="0 29.74 40.78 51.82 65.060009 92.05 108.04 121.28001 134.52 161.51001 188.50002 201.74 228.73001 244.72 271.71">Filter features</tspan></text>
<path transform="matrix(-.00008326042,-0,0,.00008328286,444.5104,250.20105)" stroke-width="9525" stroke-linecap="butt" stroke-miterlimit="8" stroke-linejoin="miter" fill="none" stroke="#000000" d="M 76915 1086030 C 55675.18 1086030 38456.91 1065829 38456.91 1040909 L 38458.09 588135.6 C 38458.09 563216.1 21239.82 543015 0 543015 C 21239.82 543015 38458.09 522813.8 38458.09 497894.4 L 38458.09 45120.6 C 38458.09 20201.18 55676.37 0 76916.19 0 "/>
<path transform="matrix(0,.00008328286,.00008326042,0,330.2697,128.90735)" stroke-width="9525" stroke-linecap="butt" stroke-miterlimit="8" stroke-linejoin="miter" fill="none" stroke="#000000" d="M 76915 1388349 C 55675.51 1388349 38457.5 1368148 38457.5 1343228 L 38457.5 739295.9 C 38457.5 714376 21239.49 694174.5 0 694174.5 C 21239.49 694174.5 38457.5 673973 38457.5 649053.2 L 38457.5 45121.34 C 38457.5 20201.51 55675.51 0 76915 0 "/>
<path transform="matrix(0,-.00008328286,.00008326042,0,109.3358,173.7591)" stroke-width="9525" stroke-linecap="butt" stroke-miterlimit="8" stroke-linejoin="miter" fill="none" stroke="#000000" d="M 76915 2602684 C 55675.51 2602684 38457.5 2582483 38457.5 2557564 L 38457.5 1346462 C 38457.5 1321543 21239.49 1301342 0 1301342 C 21239.49 1301342 38457.5 1281141 38457.5 1256222 L 38457.5 45120.02 C 38457.5 20200.92 55675.51 0 76915 0 "/>
<path transform="matrix(1,0,0,-1,0,841.8898)" d="M 341.1262 646.2129 L 434.7131 646.2129 L 434.7131 610.3274 L 341.1262 610.3274 Z " fill="#fcd9d3"/>
<path transform="matrix(.00008326042,0,0,.00008328286,341.1262,195.67688)" stroke-width="9525" stroke-linecap="butt" stroke-linejoin="round" fill="none" stroke="#000000" d="M 0 0 L 1124026 0 L 1124026 430887 L 0 430887 Z "/>
<text xml:space="preserve" transform="matrix(.24 0 -0 .2400647 360.4931 1035.6622)" font-size="50" font-family="ArialMT"><tspan y="-3437" x="0 29.74 56.730005 80.97001 94.210018 107.45002 120.690029 147.68003 174.67003 201.66004 228.65004">Test tuned </tspan></text>
<text xml:space="preserve" transform="matrix(.24 0 -0 .2400647 372.0612 1049.5823)" font-size="50" font-family="ArialMT"><tspan y="-3437" x="0 40.205 67.21001 94.21501 121.22002">model</tspan></text>
<text xml:space="preserve" transform="matrix(.24 0 -0 .2400647 60.59855 1117.7423)" font-size="50" font-family="ArialMT"><tspan y="-3437" x="0 26.985">10</tspan></text>
<text xml:space="preserve" transform="matrix(.24 0 -0 .2400647 73.55179 1117.7423)" font-size="50" font-family="ArialMT"><tspan y="-3437" x="0">-</tspan></text>
<text xml:space="preserve" transform="matrix(.24 0 -0 .2400647 77.38489 1117.7423)" font-size="50" font-family="ArialMT"><tspan y="-3437" x="0 13.220002 40.190004 51.21">fold</tspan></text>
<text xml:space="preserve" transform="matrix(.24 0 -0 .2400647 70.2474 1131.6622)" font-size="50" font-family="ArialMT"><tspan y="-3437" x="0 35.245004">CV</tspan></text>
<path transform="matrix(1,0,0,-1,0,841.8898)" d="M 218.0557 616.7377 L 218.1662 601.1267 L 217.3732 601.1211 L 217.2627 616.732 Z M 219.877 602.1966 L 217.8071 595.8356 L 215.6475 602.1666 Z "/>
<path transform="matrix(1,0,0,-1,0,841.8898)" d="M 388.3161 646.2129 L 388.3162 669.248 L 387.5231 669.248 L 387.5231 646.2129 Z M 390.0345 668.1903 L 387.9197 674.5365 L 385.8048 668.1903 Z "/>
<path transform="matrix(1,0,0,-1,0,841.8898)" d="M 325.8885 546.0682 L 388.3162 546.0682 L 388.3162 605.039 L 387.5232 605.039 L 387.5232 546.4649 L 387.9197 546.8615 L 325.8885 546.8615 Z M 390.0345 603.9813 L 387.9197 610.3274 L 385.8049 603.9813 Z "/>
<path transform="matrix(1,0,0,-1,0,841.8898)" d="M 105.0257 591.6887 L 325.8885 591.6887 L 325.8885 501.241 L 105.0257 501.241 Z " fill="#d9d9d9"/>
<path transform="matrix(.00008326042,0,0,.00008328286,105.0257,250.20105)" stroke-width="9525" stroke-linecap="butt" stroke-miterlimit="8" stroke-linejoin="miter" fill="none" stroke="#000000" d="M 0 0 L 2652674 0 L 2652674 1086030 L 0 1086030 Z "/>
<path transform="matrix(1,0,0,-1,0,841.8898)" d="M 108.2043 586.9484 L 124.8152 586.9484 L 124.8152 570.0253 L 108.2043 570.0253 Z " fill="#ffff00"/>
<path transform="matrix(.00008326042,0,0,.00008328286,108.2043,254.94135)" stroke-width="9525" stroke-linecap="butt" stroke-miterlimit="8" stroke-linejoin="miter" fill="none" stroke="#000000" d="M 0 0 L 199506 0 L 199506 203200 L 0 203200 Z "/>
<path transform="matrix(1,0,0,-1,0,841.8898)" d="M 127.9938 586.9308 L 322.7099 586.9308 L 322.7099 570.0078 L 127.9938 570.0078 Z " fill="#caf297"/>
<path transform="matrix(.00008326042,0,0,.00008328286,127.9938,254.95899)" stroke-width="9525" stroke-linecap="butt" stroke-miterlimit="8" stroke-linejoin="miter" fill="none" stroke="#000000" d="M 0 0 L 2338640 0 L 2338640 203200 L 0 203200 Z "/>
<path transform="matrix(1,0,0,-1,0,841.8898)" d="M 108.2043 565.4458 L 124.8152 565.4458 L 124.8152 548.5227 L 108.2043 548.5227 Z " fill="#caf297"/>
<path transform="matrix(.00008326042,0,0,.00008328286,108.2043,276.44398)" stroke-width="9525" stroke-linecap="butt" stroke-miterlimit="8" stroke-linejoin="miter" fill="none" stroke="#000000" d="M 0 0 L 199506 0 L 199506 203200 L 0 203200 Z "/>
<path transform="matrix(1,0,0,-1,0,841.8898)" d="M 127.9937 565.4458 L 144.6047 565.4458 L 144.6047 548.5227 L 127.9937 548.5227 Z " fill="#ffff00"/>
<path transform="matrix(.00008326042,0,0,.00008328286,127.9937,276.44398)" stroke-width="9525" stroke-linecap="butt" stroke-miterlimit="8" stroke-linejoin="miter" fill="none" stroke="#000000" d="M 0 0 L 199506 0 L 199506 203200 L 0 203200 Z "/>
<path transform="matrix(1,0,0,-1,0,841.8898)" d="M 147.7832 565.4458 L 322.7099 565.4458 L 322.7099 548.5227 L 147.7832 548.5227 Z " fill="#caf297"/>
<path transform="matrix(.00008326042,0,0,.00008328286,147.7832,276.44398)" stroke-width="9525" stroke-linecap="butt" stroke-miterlimit="8" stroke-linejoin="miter" fill="none" stroke="#000000" d="M 0 0 L 2100959 0 L 2100959 203200 L 0 203200 Z "/>
<path transform="matrix(1,0,0,-1,0,841.8898)" d="M 108.2042 522.2974 L 302.9203 522.2974 L 302.9203 505.3743 L 108.2042 505.3743 Z " fill="#caf297"/>
<path transform="matrix(.00008326042,0,0,.00008328286,108.2042,319.59236)" stroke-width="9525" stroke-linecap="butt" stroke-miterlimit="8" stroke-linejoin="miter" fill="none" stroke="#000000" d="M 0 0 L 2338639 0 L 2338639 203200 L 0 203200 Z "/>
<path transform="matrix(1,0,0,-1,0,841.8898)" d="M 306.0989 522.2974 L 322.7099 522.2974 L 322.7099 505.3743 L 306.0989 505.3743 Z " fill="#ffff00"/>
<path transform="matrix(.00008326042,0,0,.00008328286,306.0989,319.59236)" stroke-width="9525" stroke-linecap="butt" stroke-miterlimit="8" stroke-linejoin="miter" fill="none" stroke="#000000" d="M 0 0 L 199506 0 L 199506 203200 L 0 203200 Z "/>
<text xml:space="preserve" transform="matrix(.24 0 -0 .2400647 212.5276 1092.5422)" font-size="45.83333" font-family="ArialMT"><tspan y="-3437" x="0 28.086665 43.52333 69.409999 79.89666">Train</tspan></text>
<text xml:space="preserve" transform="matrix(.24 0 -0 .2400647 209.9057 1135.9823)" font-size="45.83333" font-family="ArialMT"><tspan y="-3437" x="0">&#x2026;</tspan></text>
<path transform="matrix(1,0,0,-1,0,841.8898)" d="M 218.0557 664.6758 L 218.0558 643.8109 L 217.2627 643.8109 L 217.2627 664.6758 Z M 219.7741 644.8686 L 217.6593 638.5225 L 215.5444 644.8686 Z "/>
<text xml:space="preserve" transform="matrix(.24 0 -0 .2400647 364.3263 932.7023)" font-size="50" font-family="Arial" font-weight="bold"><tspan y="-3437" x="0 40.205 67.21001 94.21501 121.22002 150.975 169.68001 196.685">Measure </tspan></text>
<text xml:space="preserve" transform="matrix(.24 0 -0 .2400647 352.6948 946.62228)" font-size="50" font-family="Arial" font-weight="bold"><tspan y="-3437" x="0 29.74 56.730005 75.47 91.46 121.2 139.94 182.88 209.87001 239.61002 266.6">performance</tspan></text>
<text xml:space="preserve" transform="matrix(.24 0 -0 .2400647 448.8189 1117.7423)" font-size="50" font-family="ArialMT"><tspan y="-3437" x="0 29.74 56.730005 83.72 110.71001 123.95001 164.14002 191.13002 218.12003 245.11003 256.15003">Tune model </tspan></text>
<text xml:space="preserve" transform="matrix(.24 0 -0 .2400647 450.2094 1131.6622)" font-size="50" font-family="ArialMT"><tspan y="-3437" x="0 26.985 53.97 69.955 96.94 137.12502 164.11002 177.34502 204.33002 220.31502">parameters</tspan></text>
<text xml:space="preserve" transform="matrix(.24 0 -0 .2400647 107.7937 905.82229)" font-size="62.5" font-family="ArialMT"><tspan y="-3437" x="0 41.306257 55.050008 89.16876 123.28751 137.03127 171.15003 188.20627 222.32501 256.44377 276.8125 293.86875 307.6125 324.66874 338.41249 372.53123">Single partition</tspan></text>
<text xml:space="preserve" transform="matrix(.24 0 -0 .2400647 358.4826 979.74227)" font-size="45.83333" font-family="ArialMT"><tspan y="-3437" x="0 25.886666 38.573335 64.46 77.14666 103.033329 128.91999 139.36083 165.2475 177.93418 203.82083 229.70749">1/3 hold out</tspan></text>
<text xml:space="preserve" transform="matrix(.24 0 -0 .2400647 197.5954 979.0223)" font-size="45.83333" font-family="ArialMT"><tspan y="-3437" x="0 25.886666 38.573335 64.46 77.14666 89.83332 105.26999 131.15665 141.59749">2/3 train</tspan></text>
</g>
</g>
</svg>
